<svg width="32" height="32" viewBox="0 0 32 32" fill="none" xmlns="http://www.w3.org/2000/svg">
<path d="M9.33464 16H22.668M24.0013 9.33333H24.0133M9.06797 24C9.06797 24 10.1346 26.5 8.0013 28M22.9346 24C22.9346 24 21.868 26.5 24.0013 28M16.0013 24V28M21.3346 4C24.4533 4 26.012 4 27.1506 4.71467C27.7446 5.08779 28.2468 5.59002 28.62 6.184C29.3346 7.32267 29.3346 8.88 29.3346 12C29.3346 15.12 29.3346 16.6773 28.6186 17.816C28.2461 18.4092 27.7448 18.9109 27.152 19.284C26.0106 20 24.452 20 21.3346 20H10.668C7.5493 20 5.99064 20 4.85197 19.284C4.25828 18.9116 3.75607 18.4103 3.38264 17.8173C2.66797 16.676 2.66797 15.1173 2.66797 12C2.66797 8.88267 2.66797 7.32267 3.38264 6.184C3.75576 5.59002 4.25799 5.08779 4.85197 4.71467C5.99064 4 7.54797 4 10.668 4H21.3346Z" stroke="#333333" stroke-linecap="round" stroke-linejoin="round"/>
</svg>
