<svg width="32" height="32" viewBox="0 0 32 32" fill="none" xmlns="http://www.w3.org/2000/svg">
<path d="M10.4114 28.0019C10.0372 28.0019 9.72115 27.873 9.46338 27.6153C9.2056 27.3584 9.07671 27.0428 9.07671 26.6686V25.3353C9.07671 24.4446 9.29626 23.6019 9.73538 22.8073C10.1745 22.0126 10.8118 21.3495 11.6474 20.8179L10.634 14.2579H8.51404C7.90071 14.2579 7.38826 14.0526 6.97671 13.6419C6.56515 13.2313 6.35937 12.7188 6.35938 12.1046V7.48993C6.35938 6.89259 6.56915 6.38415 6.98871 5.96459C7.40915 5.54504 7.9176 5.33526 8.51404 5.33526H13.334V4.30859H18.6674V5.33526H22.7367L20.3554 20.8179C21.1909 21.3486 21.8278 22.0117 22.266 22.8073C22.7043 23.6028 22.9234 24.4455 22.9234 25.3353V26.6686C22.9234 27.0428 22.7949 27.3584 22.538 27.6153C22.2803 27.873 21.9647 28.0019 21.5914 28.0019H10.4114ZM10.438 12.9246L9.46071 6.66859H8.51404C8.3096 6.66859 8.1216 6.75393 7.95004 6.92459C7.77849 7.09526 7.69315 7.28326 7.69404 7.48859V12.1046C7.69404 12.309 7.77937 12.497 7.95004 12.6686C8.12071 12.8401 8.30871 12.9255 8.51404 12.9246H10.438ZM16.0007 25.0286C16.2932 25.0286 16.5372 24.9308 16.7327 24.7353C16.9283 24.5397 17.026 24.2957 17.026 24.0033C17.026 23.7108 16.9283 23.4668 16.7327 23.2713C16.5372 23.0757 16.2932 22.9779 16.0007 22.9779C15.7083 22.9779 15.4643 23.0757 15.2687 23.2713C15.0732 23.4668 14.9754 23.7108 14.9754 24.0033C14.9754 24.2957 15.0732 24.5397 15.2687 24.7353C15.4643 24.9308 15.7083 25.0286 16.0007 25.0286ZM12.8834 20.0019H19.1194L21.174 6.66859H10.826L12.8834 20.0019ZM10.4114 26.6686H21.59V25.3353C21.59 24.2242 21.2012 23.2797 20.4234 22.5019C19.6456 21.7241 18.7012 21.3353 17.59 21.3353H14.4114C13.3003 21.3353 12.3558 21.7241 11.578 22.5019C10.8003 23.2797 10.4114 24.2242 10.4114 25.3353V26.6686Z" fill="#333333"/>
</svg>
