<svg width="32" height="32" viewBox="0 0 32 32" fill="none" xmlns="http://www.w3.org/2000/svg">
<path d="M6.66797 28V4H25.3346V5.33333H22.0013V7.89733H11.3346V5.33333H8.0013V26.6667H14.0173C13.2235 26.1867 12.5782 25.5667 12.0813 24.8067C11.5835 24.0467 11.3346 23.128 11.3346 22.0507V16.7173H22.0013V22.0507C22.0013 23.128 21.7524 24.0467 21.2546 24.8067C20.7569 25.5658 20.112 26.1858 19.32 26.6667H25.3346V28H6.66797ZM16.668 26.052C17.7791 26.052 18.7235 25.6627 19.5013 24.884C20.2791 24.1053 20.668 23.1609 20.668 22.0507V18.0507H12.668V22.0507C12.668 23.1618 13.0569 24.1062 13.8346 24.884C14.6124 25.6618 15.5569 26.052 16.668 26.052ZM16.668 13.3333C16.9435 13.3333 17.1835 13.2311 17.388 13.0267C17.5924 12.8222 17.6946 12.5822 17.6946 12.3067C17.6946 12.0311 17.5924 11.7916 17.388 11.588C17.1835 11.3844 16.9435 11.2822 16.668 11.2813C16.3924 11.2804 16.1524 11.3827 15.948 11.588C15.7435 11.7933 15.6413 12.0333 15.6413 12.308C15.6413 12.5827 15.7435 12.8227 15.948 13.028C16.1524 13.2333 16.3924 13.3351 16.668 13.3333Z" fill="#333333"/>
</svg>
