<svg width="32" height="32" viewBox="0 0 32 32" fill="none" xmlns="http://www.w3.org/2000/svg">
<g clip-path="url(#clip0_11965_1395)">
<path d="M24.5331 13.8667V24.5333C24.5331 26.2307 23.8588 27.8586 22.6586 29.0588C21.4583 30.2591 19.8305 30.9333 18.1331 30.9333H7.46641C5.76902 30.9333 4.14116 30.2591 2.94092 29.0588C1.74069 27.8586 1.06641 26.2307 1.06641 24.5333V13.8667C1.06641 13.3009 1.29117 12.7583 1.69125 12.3582C2.09132 11.9581 2.63394 11.7333 3.19974 11.7333H22.3997C22.9655 11.7333 23.5082 11.9581 23.9082 12.3582C24.3083 12.7583 24.5331 13.3009 24.5331 13.8667ZM24.5331 13.8667H28.7997C29.3655 13.8667 29.9082 14.0914 30.3082 14.4915C30.7083 14.8916 30.9331 15.4342 30.9331 16V20.2667C30.9331 20.8325 30.7083 21.3751 30.3082 21.7752C29.9082 22.1752 29.3655 22.4 28.7997 22.4H24.5331M9.59974 8.53333V4.26667M15.9997 8.53333V0" stroke="black"/>
</g>
<defs>
<clipPath id="clip0_11965_1395">
<rect width="32" height="32" fill="white"/>
</clipPath>
</defs>
</svg>
