<svg width="32" height="32" viewBox="0 0 32 32" fill="none" xmlns="http://www.w3.org/2000/svg">
<g clip-path="url(#clip0_11965_1341)">
<path d="M11.3307 16.668C12.038 16.668 12.7163 16.387 13.2163 15.8869C13.7164 15.3868 13.9974 14.7085 13.9974 14.0013V4.66797V10.0013H8.66406V4.66797V14.0013C8.66406 14.7085 8.94501 15.3868 9.44511 15.8869C9.94521 16.387 10.6235 16.668 11.3307 16.668ZM11.3307 16.668V24.668M11.3307 10.0013V4.66797M23.3307 4.66797V24.668H21.9974V18.0013H23.3307H17.9974V10.0013C17.9974 8.58681 18.5593 7.23026 19.5595 6.23007C20.5597 5.22987 21.9162 4.66797 23.3307 4.66797Z" stroke="#333333" stroke-linejoin="round"/>
</g>
<defs>
<clipPath id="clip0_11965_1341">
<rect width="21.3333" height="21.3333" fill="white" transform="translate(5.33203 4)"/>
</clipPath>
</defs>
</svg>
