<svg width="32" height="32" viewBox="0 0 32 32" fill="none" xmlns="http://www.w3.org/2000/svg">
<path d="M8.0013 9.33464V4.0013H2.66797V9.33464M8.0013 9.33464H2.66797M8.0013 9.33464V12.0013C8.0013 12.8013 8.13464 13.868 8.26797 14.668L10.668 27.7346V28.0013C10.668 28.8013 10.1346 29.3346 9.33464 29.3346H4.0013C3.2013 29.3346 2.66797 28.8013 2.66797 28.0013V9.33464M18.668 2.66797V12.0013L16.0013 18.668V29.3346" stroke="#333333" stroke-linecap="round" stroke-linejoin="round"/>
<path d="M24.0026 8.0013H29.3359M24.0026 13.3346H29.3359M24.0026 18.668H29.3359M24.0026 24.0013H29.3359M24.0026 2.66797H26.6693C27.3765 2.66797 28.0548 2.94892 28.5549 3.44902C29.055 3.94911 29.3359 4.62739 29.3359 5.33464V26.668C29.3359 27.3752 29.055 28.0535 28.5549 28.5536C28.0548 29.0537 27.3765 29.3346 26.6693 29.3346H24.0026M13.3359 4.0013H18.6693V12.0013H13.3359V4.0013Z" stroke="#333333" stroke-linecap="round" stroke-linejoin="round"/>
</svg>
