<svg width="32" height="32" viewBox="0 0 32 32" fill="none" xmlns="http://www.w3.org/2000/svg">
<path d="M28.6393 16.9986C28.3493 15.9139 27.8026 14.9148 27.0453 14.0858C26.2881 13.2568 25.3425 12.6221 24.2885 12.2353C23.2344 11.8485 22.1028 11.7209 20.989 11.8633C19.8753 12.0057 18.8121 12.4139 17.8893 13.0536C17.7088 12.9369 17.518 12.8369 17.3193 12.7548L19.4781 4.13731C19.5035 4.03576 19.4965 3.92877 19.4579 3.83144C19.4194 3.73411 19.3512 3.65134 19.2631 3.59481C18.4569 3.08635 17.5553 2.74789 16.6137 2.60018C15.672 2.45248 14.7101 2.49864 13.787 2.73583C12.8638 2.97302 11.9988 3.39625 11.245 3.97958C10.4912 4.5629 9.86441 5.29403 9.40316 6.12814C8.9419 6.96226 8.65585 7.88179 8.56254 8.83037C8.46923 9.77894 8.57063 10.7366 8.86052 11.6446C9.15041 12.5526 9.62269 13.3918 10.2484 14.1108C10.8741 14.8299 11.6401 15.4135 12.4993 15.8261V15.9986C12.4992 16.1558 12.5101 16.3128 12.5318 16.4686L3.98808 18.9086C3.88712 18.937 3.79767 18.9965 3.73239 19.0786C3.66711 19.1607 3.62931 19.2613 3.62433 19.3661C3.55232 20.9596 4.02672 22.5299 4.96896 23.817C5.91121 25.1041 7.26479 26.0307 8.80558 26.4436C9.40037 26.6031 10.0135 26.6842 10.6293 26.6848C11.5957 26.6821 12.551 26.4796 13.4354 26.09C14.3197 25.7003 15.1139 25.1321 15.7681 24.4208C16.4223 23.7096 16.9224 22.8707 17.2369 21.957C17.5514 21.0432 17.6735 20.0743 17.5956 19.1111C17.7862 19.0125 17.9674 18.8966 18.1368 18.7648L24.5231 24.9448C24.6171 25.0361 24.7433 25.0868 24.8743 25.0861C24.9544 25.0857 25.0332 25.0664 25.1043 25.0298C26.5208 24.2946 27.6435 23.0975 28.2864 21.6368C28.9294 20.1762 29.0539 18.5397 28.6393 16.9986ZM15.9993 18.4986C15.5049 18.4986 15.0215 18.3519 14.6104 18.0772C14.1993 17.8025 13.8788 17.4121 13.6896 16.9553C13.5004 16.4985 13.4509 15.9958 13.5474 15.5108C13.6438 15.0259 13.8819 14.5804 14.2316 14.2308C14.5812 13.8812 15.0266 13.6431 15.5116 13.5466C15.9966 13.4501 16.4992 13.4996 16.956 13.6889C17.4129 13.8781 17.8033 14.1985 18.078 14.6096C18.3527 15.0208 18.4993 15.5041 18.4993 15.9986C18.4993 16.6616 18.2359 17.2975 17.7671 17.7663C17.2983 18.2352 16.6624 18.4986 15.9993 18.4986ZM9.49933 9.49856C9.49911 8.45254 9.77235 7.42464 10.292 6.51681C10.8116 5.60898 11.5595 4.85276 12.4615 4.32316C13.3636 3.79356 14.3884 3.50898 15.4343 3.49765C16.4803 3.48632 17.511 3.74863 18.4243 4.25856L16.3556 12.5161C16.2381 12.5048 16.1193 12.4986 15.9993 12.4986C15.2797 12.4995 14.5778 12.7218 13.9888 13.1353C13.3998 13.5487 12.9523 14.1333 12.7068 14.8098C11.7373 14.3028 10.9256 13.5395 10.36 12.6029C9.79441 11.6664 9.49671 10.5926 9.49933 9.49856ZM13.6243 24.8736C12.7186 25.3966 11.6919 25.6738 10.646 25.6777C9.60011 25.6816 8.57136 25.412 7.66178 24.8957C6.7522 24.3794 5.99339 23.6343 5.46058 22.7343C4.92778 21.8343 4.6395 20.8106 4.62433 19.7648L12.8118 17.4273C13.0871 18.0429 13.5344 18.5659 14.0999 18.9334C14.6654 19.3008 15.3249 19.4971 15.9993 19.4986C16.2064 19.4979 16.4129 19.4795 16.6168 19.4436C16.6624 20.5358 16.4074 21.6196 15.8798 22.577C15.3522 23.5344 14.572 24.3287 13.6243 24.8736ZM27.0743 21.8161C26.5617 22.7035 25.8301 23.4446 24.9493 23.9686L18.8243 18.0473C19.2831 17.4151 19.5164 16.6473 19.4869 15.8667C19.4575 15.0862 19.1669 14.3381 18.6618 13.7423C19.7959 13.0247 21.1378 12.7079 22.473 12.8427C23.8082 12.9775 25.0597 13.5561 26.0275 14.486C26.9952 15.4158 27.6232 16.6432 27.8111 17.972C27.9991 19.3008 27.7362 20.6543 27.0643 21.8161H27.0743Z" fill="#333333"/>
</svg>
