<svg width="32" height="32" viewBox="0 0 32 32" fill="none" xmlns="http://www.w3.org/2000/svg">
<path d="M27.1437 6.52157L18.3512 3.88407L23.2262 1.44782C23.285 1.41844 23.3374 1.37777 23.3805 1.32813C23.4235 1.2785 23.4564 1.22087 23.4771 1.15854C23.4979 1.0962 23.5062 1.03039 23.5016 0.964853C23.4969 0.899315 23.4794 0.835337 23.45 0.77657C23.4206 0.717804 23.3799 0.6654 23.3303 0.622351C23.2807 0.579303 23.223 0.546452 23.1607 0.525675C23.0984 0.504898 23.0326 0.496601 22.967 0.501259C22.9015 0.505916 22.8375 0.523437 22.7787 0.55282L16.875 3.50032C14.3779 3.53545 11.9948 4.55155 10.2407 6.3291C8.4865 8.10666 7.50205 10.503 7.5 13.0003V26.0003C7.5 26.1329 7.55268 26.2601 7.64645 26.3539C7.74021 26.4476 7.86739 26.5003 8 26.5003C8.13261 26.5003 8.25979 26.4476 8.35355 26.3539C8.44732 26.2601 8.5 26.1329 8.5 26.0003V21.5003H11.5V29.0003C11.5 29.3981 11.658 29.7797 11.9393 30.061C12.2206 30.3423 12.6022 30.5003 13 30.5003H21C21.3978 30.5003 21.7794 30.3423 22.0607 30.061C22.342 29.7797 22.5 29.3981 22.5 29.0003V13.0003C22.4981 11.6288 21.9845 10.3074 21.0597 9.29462C20.135 8.2818 18.8656 7.65045 17.5 7.52407V4.67282L26.8563 7.47907C26.9028 7.49348 26.9513 7.50065 27 7.50032C27.1199 7.50021 27.2358 7.45699 27.3266 7.37854C27.4173 7.30009 27.4768 7.19164 27.4942 7.07298C27.5117 6.95431 27.4858 6.83333 27.4215 6.73211C27.3572 6.63089 27.2586 6.55616 27.1437 6.52157ZM8.5 20.5003V13.0003C8.50279 10.8335 9.33202 8.74936 10.8186 7.17291C12.3051 5.59645 14.3371 4.64642 16.5 4.51657V7.52407C15.1344 7.65045 13.865 8.2818 12.9403 9.29462C12.0155 10.3074 11.5019 11.6288 11.5 13.0003V20.5003H8.5ZM21 29.5003H13C12.8674 29.5003 12.7402 29.4476 12.6464 29.3539C12.5527 29.2601 12.5 29.1329 12.5 29.0003V21.5003H21.5V29.0003C21.5 29.1329 21.4473 29.2601 21.3536 29.3539C21.2598 29.4476 21.1326 29.5003 21 29.5003ZM21.5 13.0003V20.5003H12.5V13.0003C12.5 11.8068 12.9741 10.6623 13.818 9.81834C14.6619 8.97443 15.8065 8.50032 17 8.50032C18.1935 8.50032 19.3381 8.97443 20.182 9.81834C21.0259 10.6623 21.5 11.8068 21.5 13.0003Z" fill="#333333"/>
</svg>
