<svg width="32" height="32" viewBox="0 0 32 32" fill="none" xmlns="http://www.w3.org/2000/svg">
<path d="M13.3333 18.6667H12M13.3333 8H12" stroke="#333333" stroke-width="1.5" stroke-linecap="round" stroke-linejoin="round"/>
<path d="M6.66797 13.3346V3.46797C6.66797 3.2558 6.75225 3.05231 6.90228 2.90228C7.05231 2.75225 7.2558 2.66797 7.46797 2.66797H24.5346C24.7468 2.66797 24.9503 2.75225 25.1003 2.90228C25.2503 3.05231 25.3346 3.2558 25.3346 3.46797V13.3346M6.66797 13.3346V28.5346C6.66797 28.6397 6.68866 28.7437 6.72887 28.8408C6.76907 28.9378 6.828 29.026 6.90228 29.1003C6.97657 29.1746 7.06476 29.2335 7.16182 29.2737C7.25888 29.3139 7.36291 29.3346 7.46797 29.3346H24.5346C24.6397 29.3346 24.7437 29.3139 24.8408 29.2737C24.9378 29.2335 25.026 29.1746 25.1003 29.1003C25.1746 29.026 25.2335 28.9378 25.2737 28.8408C25.3139 28.7437 25.3346 28.6397 25.3346 28.5346V13.3346M6.66797 13.3346H25.3346" stroke="#333333"/>
</svg>
