<svg width="32" height="32" viewBox="0 0 32 32" fill="none" xmlns="http://www.w3.org/2000/svg">
<g clip-path="url(#clip0_11965_1108)">
<path d="M7.25 11C7.25 10.2583 7.46993 9.5333 7.88199 8.91661C8.29404 8.29993 8.87971 7.81928 9.56494 7.53545C10.2502 7.25162 11.0042 7.17736 11.7316 7.32206C12.459 7.46675 13.1272 7.8239 13.6517 8.34835C14.1761 8.8728 14.5332 9.54098 14.6779 10.2684C14.8226 10.9958 14.7484 11.7498 14.4645 12.4351C14.1807 13.1203 13.7001 13.706 13.0834 14.118C12.4667 14.5301 11.7417 14.75 11 14.75C10.0054 14.75 9.05161 14.3549 8.34835 13.6517C7.64509 12.9484 7.25 11.9946 7.25 11ZM11 13.25C11.445 13.25 11.88 13.118 12.25 12.8708C12.62 12.6236 12.9084 12.2722 13.0787 11.861C13.249 11.4499 13.2936 10.9975 13.2068 10.561C13.1199 10.1246 12.9057 9.72368 12.591 9.40901C12.2763 9.09434 11.8754 8.88005 11.439 8.79323C11.0025 8.70642 10.5501 8.75097 10.139 8.92127C9.72783 9.09157 9.37643 9.37996 9.12919 9.74997C8.88196 10.12 8.75 10.555 8.75 11C8.75 11.5967 8.98705 12.169 9.40901 12.591C9.83097 13.0129 10.4033 13.25 11 13.25ZM11.6437 26.75C11.3078 26.7498 10.979 26.653 10.6966 26.471C10.4142 26.289 10.1902 26.0296 10.0513 25.7237L6.07625 16.9813C4.8445 15.9664 3.95612 14.5959 3.53247 13.0572C3.10882 11.5184 3.17057 9.88643 3.70927 8.3841C4.24798 6.88176 5.23737 5.58238 6.54229 4.66347C7.84721 3.74455 9.404 3.25092 11 3.25C11.0419 3.25016 11.0836 3.2535 11.125 3.26L28.2875 6.125C28.6955 6.19296 29.0663 6.40325 29.334 6.71857C29.6017 7.03389 29.7491 7.43385 29.75 7.8475V14.1525C29.7491 14.5661 29.6017 14.9661 29.334 15.2814C29.0663 15.5968 28.6955 15.807 28.2875 15.875L15.75 17.9688V25C15.75 25.4641 15.5656 25.9092 15.2374 26.2374C14.9092 26.5656 14.4641 26.75 14 26.75H13.75V27C13.75 28.2598 13.2496 29.468 12.3588 30.3588C11.468 31.2496 10.2598 31.75 9 31.75H7C6.80109 31.75 6.61032 31.671 6.46967 31.5303C6.32902 31.3897 6.25 31.1989 6.25 31C6.25 30.8011 6.32902 30.6103 6.46967 30.4697C6.61032 30.329 6.80109 30.25 7 30.25H9C9.86195 30.25 10.6886 29.9076 11.2981 29.2981C11.9076 28.6886 12.25 27.862 12.25 27V26.75H11.6437ZM28.25 14.1525V7.8475C28.2508 7.78776 28.2302 7.7297 28.1919 7.68384C28.1536 7.63798 28.1002 7.60735 28.0412 7.5975L10.94 4.75C9.2824 4.75 7.69268 5.40848 6.52058 6.58058C5.34848 7.75269 4.69 9.3424 4.69 11C4.69 12.6576 5.34848 14.2473 6.52058 15.4194C7.69268 16.5915 9.2824 17.25 10.94 17.25L28.0412 14.4C28.0997 14.3902 28.1529 14.3599 28.1911 14.3146C28.2293 14.2693 28.2502 14.2118 28.25 14.1525ZM14.25 25V18.2188L11.125 18.74C11.0836 18.7465 11.0419 18.7498 11 18.75C10.0814 18.7505 9.17001 18.5871 8.30875 18.2675L11.4163 25.1038C11.4362 25.1474 11.4682 25.1844 11.5085 25.2103C11.5489 25.2362 11.5958 25.25 11.6437 25.25H14C14.0663 25.25 14.1299 25.2237 14.1768 25.1768C14.2237 25.1299 14.25 25.0663 14.25 25Z" fill="#333333"/>
</g>
<defs>
<clipPath id="clip0_11965_1108">
<rect width="32" height="32" fill="white" transform="matrix(-1 0 0 1 32 0)"/>
</clipPath>
</defs>
</svg>
