<svg width="28" height="28" viewBox="0 0 28 28" fill="none" xmlns="http://www.w3.org/2000/svg">
<path d="M10.5483 3.04667C10.5483 1.64 11.8149 0.5 13.3803 0.5C14.9443 0.5 16.2123 1.64 16.2123 3.04667C16.2123 3.70667 15.9723 4.30933 15.5563 4.76267C14.7603 5.62933 13.5696 6.50267 13.5696 7.62667V8.00667M13.5696 8.00667C14.5559 7.99099 15.5237 8.27456 16.3456 8.82L26.2563 15.5C27.9976 16.676 27.0736 19.1667 24.8963 19.1667H21.8336M13.5696 8.00667C12.5917 8.01301 11.6385 8.31463 10.8349 8.872L1.37361 15.5267C-0.322386 16.72 0.616281 19.1667 2.77095 19.1667H5.83361" stroke="#333333" stroke-linecap="round"/>
<path d="M5.83203 21.8333C5.83203 19.3187 5.83203 18.0627 6.61336 17.2813C7.3947 16.5 8.6507 16.5 11.1654 16.5H16.4987C19.0134 16.5 20.2694 16.5 21.0507 17.2813C21.832 18.0627 21.832 19.3187 21.832 21.8333C21.832 24.348 21.832 25.604 21.0507 26.3853C20.2694 27.1667 19.0134 27.1667 16.4987 27.1667H11.1654C8.6507 27.1667 7.3947 27.1667 6.61336 26.3853C5.83203 25.604 5.83203 24.348 5.83203 21.8333Z" stroke="#333333"/>
</svg>
