<svg width="24" height="23" viewBox="0 0 24 23" fill="none" xmlns="http://www.w3.org/2000/svg">
<path d="M5.29067 5.84667C4.75733 5.84667 4.30622 5.65822 3.93733 5.28133C3.56844 4.90533 3.384 4.45289 3.384 3.924C3.384 3.39511 3.56844 2.94222 3.93733 2.56533C4.30622 2.18844 4.75733 2 5.29067 2C5.824 2 6.28044 2.18844 6.66 2.56533C7.03956 2.94222 7.22978 3.39467 7.23067 3.92267C7.23156 4.45067 7.04133 4.90311 6.66 5.28C6.27867 5.65689 5.82222 5.84533 5.29067 5.84533M2.15467 22.6667C1.56178 22.6667 1.05467 22.4556 0.633333 22.0333C0.212 21.6111 0.000888889 21.1049 0 20.5147V12.5653C0 12.2604 0.103111 12.0049 0.309334 11.7987C0.515556 11.5916 0.771556 11.488 1.07733 11.488H3.744V9.36C3.744 8.824 3.92622 8.37822 4.29067 8.02267C4.65689 7.66711 5.10711 7.48933 5.64133 7.48933C5.94889 7.48933 6.24044 7.548 6.516 7.66533C6.79156 7.78355 7.03333 7.95555 7.24133 8.18133L9.00533 10.1453C9.22933 10.4253 9.47689 10.6733 9.748 10.8893C10.0182 11.1044 10.3058 11.3044 10.6107 11.4893H22.9227C23.2284 11.4893 23.4844 11.5924 23.6907 11.7987C23.8969 12.0049 24 12.2604 24 12.5653V20.5147C24 21.1067 23.7893 21.6133 23.368 22.0347C22.9467 22.456 22.4396 22.6667 21.8467 22.6667H2.15467ZM21.4187 8.30667C21.2338 8.30667 21.08 8.24 20.9573 8.10667C20.8347 7.97333 20.7764 7.81467 20.7827 7.63067C20.8218 7.07333 20.7342 6.53111 20.52 6.004C20.3049 5.47689 19.9964 5.01244 19.5947 4.61067C19.0684 4.08356 18.6662 3.47911 18.388 2.79733C18.1107 2.11556 17.9862 1.41111 18.0147 0.684C18.0147 0.497333 18.0756 0.336444 18.1973 0.201333C18.3191 0.0671111 18.4729 0 18.6587 0C18.8444 0 18.9991 0.0720002 19.1227 0.216C19.2462 0.36 19.3062 0.524445 19.3027 0.709333C19.2636 1.25689 19.34 1.79022 19.532 2.30933C19.7249 2.82756 20.028 3.268 20.4413 3.63067C20.9676 4.15778 21.3764 4.76667 21.668 5.45733C21.9596 6.14711 22.0907 6.86667 22.0613 7.616C22.0613 7.81155 22.0009 7.976 21.88 8.10933C21.7582 8.24178 21.6044 8.308 21.4187 8.308M16.06 8.308C15.8751 8.308 15.7213 8.24133 15.5987 8.108C15.476 7.97467 15.4173 7.81555 15.4227 7.63067C15.4627 7.05644 15.3751 6.50978 15.16 5.99067C14.9458 5.47156 14.6293 5.01156 14.2107 4.61067C13.6844 4.08356 13.2867 3.47911 13.0173 2.79733C12.748 2.11556 12.628 1.41111 12.6573 0.684C12.6573 0.497333 12.7178 0.336444 12.8387 0.201333C12.9604 0.0671111 13.1138 0 13.2987 0C13.4836 0 13.6373 0.0666668 13.76 0.2C13.8827 0.333333 13.9413 0.492444 13.936 0.677333C13.8969 1.22844 13.9778 1.76222 14.1787 2.27867C14.3796 2.79511 14.672 3.24578 15.056 3.63067C15.6 4.15778 16.0178 4.76667 16.3093 5.45733C16.6009 6.14711 16.732 6.86667 16.7027 7.616C16.7027 7.81155 16.6418 7.976 16.52 8.10933C16.3982 8.24267 16.2449 8.30889 16.06 8.308ZM17.82 21.3333H21.6413V12.8213H17.82V21.3333ZM12.6667 21.3333H16.488V12.8213H12.6667V21.3333ZM7.512 21.3333H11.3333V12.8213H7.51333L7.512 21.3333ZM2.36 21.3333H6.18V12.8213H2.36V21.3333Z" fill="#333333"/>
</svg>
