<svg width="32" height="32" viewBox="0 0 32 32" fill="none" xmlns="http://www.w3.org/2000/svg">
<path d="M9.33479 9.33333L6.45212 9.99067C4.44679 10.448 3.44279 10.6773 2.95079 11.532C2.45879 12.3867 2.67346 13.528 3.10146 15.8093L3.69612 18.9747C4.26145 21.98 5.79346 22.9907 8.00146 24M9.52146 10.3747L8.15079 24.7747C7.94812 26.908 7.84679 27.9747 8.56012 28.6547C9.27479 29.3333 10.4975 29.3333 12.9428 29.3333H21.7268C24.1721 29.3333 25.3935 29.3333 26.1095 28.6533C26.8228 27.9733 26.7228 26.908 26.5188 24.776L25.1468 10.376C24.7228 5.92133 21.4415 4 17.3348 4C13.2281 4 9.94679 5.92267 9.52146 10.3747Z" stroke="#333333" stroke-linecap="round" stroke-linejoin="round"/>
<path d="M10.668 9.33464H27.972C29.1186 9.33464 29.516 9.63997 29.26 10.988C28.8293 13.272 27.524 15.136 25.8093 16.0013M16.0013 22.668C16.0013 18.668 18.668 20.0013 18.668 16.0013M17.3346 4.0013V2.66797" stroke="#333333" stroke-linecap="round" stroke-linejoin="round"/>
</svg>
