<svg width="32" height="32" viewBox="0 0 32 32" fill="none" xmlns="http://www.w3.org/2000/svg">
<path d="M6.15467 25.3346C5.55733 25.3346 5.04889 25.1249 4.62933 24.7053C4.20978 24.2857 4 23.7777 4 23.1813V8.8213C4 8.22575 4.20978 7.71775 4.62933 7.2973C5.04889 6.87775 5.55733 6.66797 6.15467 6.66797H25.8467C26.4422 6.66797 26.9502 6.87775 27.3707 7.2973C27.7902 7.71686 28 8.2253 28 8.82264V23.1813C28 23.7769 27.7902 24.2849 27.3707 24.7053C26.9511 25.1249 26.4431 25.3346 25.8467 25.3346H6.15467ZM6.15467 24.0013H25.8467C26.0858 24.0013 26.2822 23.9244 26.436 23.7706C26.5898 23.6169 26.6667 23.4204 26.6667 23.1813V8.8213C26.6667 8.58219 26.5898 8.38575 26.436 8.23197C26.2822 8.07819 26.0858 8.0013 25.8467 8.0013H6.15333C5.91422 8.0013 5.71778 8.07819 5.564 8.23197C5.41022 8.38575 5.33333 8.58264 5.33333 8.82264V23.1813C5.33333 23.4204 5.41022 23.6169 5.564 23.7706C5.71778 23.9244 5.91467 24.0013 6.15467 24.0013ZM7.84667 21.4893H18.82V10.5146H7.84667V21.4893ZM23.4867 21.4893C23.7622 21.4893 24.0022 21.3871 24.2067 21.1826C24.4111 20.9782 24.5133 20.7382 24.5133 20.4626C24.5133 20.1871 24.4111 19.9471 24.2067 19.7426C24.0022 19.5382 23.7622 19.4364 23.4867 19.4373C23.2111 19.4382 22.9716 19.5404 22.768 19.744C22.5644 19.9475 22.4622 20.1875 22.4613 20.464C22.4613 20.7386 22.5636 20.9782 22.768 21.1826C22.9724 21.3871 23.2111 21.4893 23.4867 21.4893ZM9.18 20.156V11.848H17.4867V20.1546L9.18 20.156ZM23.4867 17.0266C23.7622 17.0266 24.0022 16.9244 24.2067 16.72C24.4111 16.5155 24.5133 16.276 24.5133 16.0013C24.5133 15.7266 24.4111 15.4866 24.2067 15.2813C24.0022 15.076 23.7622 14.9737 23.4867 14.9746C23.2111 14.9755 22.9716 15.0777 22.768 15.2813C22.5644 15.4849 22.4622 15.7249 22.4613 16.0013C22.4604 16.2777 22.5627 16.5177 22.768 16.7213C22.9733 16.9249 23.2133 17.0271 23.488 17.028M23.488 12.5653C23.7627 12.5653 24.0022 12.4631 24.2067 12.2586C24.4111 12.0542 24.5133 11.8142 24.5133 11.5386C24.5133 11.2631 24.4111 11.024 24.2067 10.8213C24.0022 10.6186 23.7622 10.5164 23.4867 10.5146C23.2111 10.5129 22.9716 10.6151 22.768 10.8213C22.5644 11.0275 22.4622 11.2671 22.4613 11.54C22.4613 11.8155 22.5636 12.0555 22.768 12.26C22.9724 12.4644 23.2124 12.5662 23.488 12.5653Z" fill="#333333"/>
</svg>
