<svg width="32" height="32" viewBox="0 0 32 32" fill="none" xmlns="http://www.w3.org/2000/svg">
<path d="M26 4.5H6C5.60218 4.5 5.22064 4.65804 4.93934 4.93934C4.65804 5.22064 4.5 5.60218 4.5 6V26C4.5 26.3978 4.65804 26.7794 4.93934 27.0607C5.22064 27.342 5.60218 27.5 6 27.5H26C26.3978 27.5 26.7794 27.342 27.0607 27.0607C27.342 26.7794 27.5 26.3978 27.5 26V6C27.5 5.60218 27.342 5.22064 27.0607 4.93934C26.7794 4.65804 26.3978 4.5 26 4.5ZM26.5 26C26.5 26.1326 26.4473 26.2598 26.3536 26.3536C26.2598 26.4473 26.1326 26.5 26 26.5H6C5.86739 26.5 5.74021 26.4473 5.64645 26.3536C5.55268 26.2598 5.5 26.1326 5.5 26V6C5.5 5.86739 5.55268 5.74021 5.64645 5.64645C5.74021 5.55268 5.86739 5.5 6 5.5H26C26.1326 5.5 26.2598 5.55268 26.3536 5.64645C26.4473 5.74021 26.5 5.86739 26.5 6V26ZM9.5 9.5C9.5 9.30222 9.55865 9.10888 9.66853 8.94443C9.77841 8.77998 9.93459 8.65181 10.1173 8.57612C10.3 8.50043 10.5011 8.48063 10.6951 8.51921C10.8891 8.5578 11.0673 8.65304 11.2071 8.79289C11.347 8.93275 11.4422 9.11093 11.4808 9.30491C11.5194 9.49889 11.4996 9.69996 11.4239 9.88268C11.3482 10.0654 11.22 10.2216 11.0556 10.3315C10.8911 10.4414 10.6978 10.5 10.5 10.5C10.2348 10.5 9.98043 10.3946 9.79289 10.2071C9.60536 10.0196 9.5 9.76522 9.5 9.5ZM15 9.5C15 9.30222 15.0586 9.10888 15.1685 8.94443C15.2784 8.77998 15.4346 8.65181 15.6173 8.57612C15.8 8.50043 16.0011 8.48063 16.1951 8.51921C16.3891 8.5578 16.5673 8.65304 16.7071 8.79289C16.847 8.93275 16.9422 9.11093 16.9808 9.30491C17.0194 9.49889 16.9996 9.69996 16.9239 9.88268C16.8482 10.0654 16.72 10.2216 16.5556 10.3315C16.3911 10.4414 16.1978 10.5 16 10.5C15.7348 10.5 15.4804 10.3946 15.2929 10.2071C15.1054 10.0196 15 9.76522 15 9.5ZM20.5 9.5C20.5 9.30222 20.5586 9.10888 20.6685 8.94443C20.7784 8.77998 20.9346 8.65181 21.1173 8.57612C21.3 8.50043 21.5011 8.48063 21.6951 8.51921C21.8891 8.5578 22.0673 8.65304 22.2071 8.79289C22.347 8.93275 22.4422 9.11093 22.4808 9.30491C22.5194 9.49889 22.4996 9.69996 22.4239 9.88268C22.3482 10.0654 22.22 10.2216 22.0556 10.3315C21.8911 10.4414 21.6978 10.5 21.5 10.5C21.2348 10.5 20.9804 10.3946 20.7929 10.2071C20.6054 10.0196 20.5 9.76522 20.5 9.5ZM23 13.5H9C8.86739 13.5 8.74021 13.5527 8.64645 13.6464C8.55268 13.7402 8.5 13.8674 8.5 14V23C8.5 23.1326 8.55268 23.2598 8.64645 23.3536C8.74021 23.4473 8.86739 23.5 9 23.5H23C23.1326 23.5 23.2598 23.4473 23.3536 23.3536C23.4473 23.2598 23.5 23.1326 23.5 23V14C23.5 13.8674 23.4473 13.7402 23.3536 13.6464C23.2598 13.5527 23.1326 13.5 23 13.5ZM22.5 22.5H9.5V14.5H22.5V22.5Z" fill="#333333"/>
</svg>
