<svg width="24" height="21" viewBox="0 0 24 21" fill="none" xmlns="http://www.w3.org/2000/svg">
<path d="M20.5 1.84667C20.2333 1.06 19.7133 0.5 18.8333 0.5H4.83333C3.95333 0.5 3.44667 1.06 3.16667 1.84667L0.5 9.5V19.5C0.5 20.2333 0.766667 20.5 1.5 20.5H2.16667C2.9 20.5 3.16667 20.2333 3.16667 19.5V17.8333H20.5V19.5C20.5 20.2333 20.7667 20.5 21.5 20.5H22.1667C22.9 20.5 23.1667 20.2333 23.1667 19.5V9.5L20.5 1.84667Z" stroke="#333333"/>
<path d="M4.5013 13.8346C4.14768 13.8346 3.80854 13.6942 3.55849 13.4441C3.30844 13.1941 3.16797 12.8549 3.16797 12.5013C3.16797 12.1477 3.30844 11.8085 3.55849 11.5585C3.80854 11.3084 4.14768 11.168 4.5013 11.168C4.85492 11.168 5.19406 11.3084 5.44411 11.5585C5.69416 11.8085 5.83464 12.1477 5.83464 12.5013C5.83464 12.8549 5.69416 13.1941 5.44411 13.4441C5.19406 13.6942 4.85492 13.8346 4.5013 13.8346ZM19.168 13.8346C18.8143 13.8346 18.4752 13.6942 18.2252 13.4441C17.9751 13.1941 17.8346 12.8549 17.8346 12.5013C17.8346 12.1477 17.9751 11.8085 18.2252 11.5585C18.4752 11.3084 18.8143 11.168 19.168 11.168C19.5216 11.168 19.8607 11.3084 20.1108 11.5585C20.3608 11.8085 20.5013 12.1477 20.5013 12.5013C20.5013 12.8549 20.3608 13.1941 20.1108 13.4441C19.8607 13.6942 19.5216 13.8346 19.168 13.8346Z" stroke="#333333"/>
<path d="M3.5 7.16667L5.16667 2.5H18.5L20.1667 7.16667H3.5Z" stroke="#333333" stroke-linejoin="round"/>
</svg>
