<svg width="32" height="32" viewBox="0 0 32 32" fill="none" xmlns="http://www.w3.org/2000/svg">
<path d="M8.66797 23.1054C9.54073 24.2156 10.6544 25.1129 11.9248 25.7296C13.1952 26.3464 14.5891 26.6663 16.0013 26.6654C17.2432 26.6669 18.4729 26.4198 19.6178 25.9387C20.7628 25.4576 21.7999 24.7522 22.668 23.864M11.3346 9.2467C12.753 8.42661 14.3629 7.99607 16.0013 7.9987C18.6133 7.9987 20.9746 9.0707 22.668 10.8M5.33464 11.9987C6.80797 11.9987 8.0013 11.172 8.0013 9.33203C8.0013 7.49203 6.80797 5.33203 5.33464 5.33203C3.8613 5.33203 2.66797 7.49203 2.66797 9.33203C2.66797 11.172 3.8613 11.9987 5.33464 11.9987ZM5.33464 11.9987V26.6654M26.0013 17.332V5.33203H26.668C27.3752 5.33203 28.0535 5.61298 28.5536 6.11308C29.0537 6.61318 29.3346 7.29145 29.3346 7.9987V17.332H26.0013ZM26.0013 17.332V26.6654M21.3346 17.332C21.3346 18.7465 20.7727 20.1031 19.7725 21.1033C18.7723 22.1035 17.4158 22.6654 16.0013 22.6654C14.5868 22.6654 13.2303 22.1035 12.2301 21.1033C11.2299 20.1031 10.668 18.7465 10.668 17.332C10.668 15.9175 11.2299 14.561 12.2301 13.5608C13.2303 12.5606 14.5868 11.9987 16.0013 11.9987C17.4158 11.9987 18.7723 12.5606 19.7725 13.5608C20.7727 14.561 21.3346 15.9175 21.3346 17.332Z" stroke="#333333" stroke-linecap="round" stroke-linejoin="round"/>
</svg>
