<svg width="32" height="32" viewBox="0 0 32 32" fill="none" xmlns="http://www.w3.org/2000/svg">
<path d="M29.351 19.6539C29.351 20.893 28.8588 22.0814 27.9826 22.9575C27.1064 23.8337 25.9181 24.3259 24.679 24.3259C23.4399 24.3259 22.2516 23.8337 21.3754 22.9575C20.4992 22.0814 20.007 20.893 20.007 19.6539C20.007 16.1499 24.6737 10.3086 24.6737 10.3086C24.6737 10.3086 29.351 16.1499 29.351 19.6539ZM13.3323 12.3113H5.32168C4.97104 12.3109 4.62377 12.3797 4.29975 12.5137C3.97574 12.6478 3.68133 12.8444 3.43339 13.0923C3.18545 13.3402 2.98884 13.6347 2.85482 13.9587C2.7208 14.2827 2.65199 14.63 2.65235 14.9806V28.3313C2.65235 29.8059 3.84701 31.0006 5.32168 31.0006H13.3323C13.683 31.0009 14.0303 30.9321 14.3543 30.7981C14.6783 30.6641 14.9727 30.4675 15.2206 30.2195C15.4686 29.9716 15.6652 29.6772 15.7992 29.3532C15.9332 29.0292 16.002 28.6819 16.0017 28.3313V14.9806C16.002 14.63 15.9332 14.2827 15.7992 13.9587C15.6652 13.6347 15.4686 13.3402 15.2206 13.0923C14.9727 12.8444 14.6783 12.6478 14.3543 12.5137C14.0303 12.3797 13.683 12.3109 13.3323 12.3113Z" stroke="#333333" stroke-linecap="round" stroke-linejoin="round"/>
<path d="M18.6696 3.66933L18.0736 2.476C17.8524 2.03267 17.512 1.65973 17.0907 1.39902C16.6694 1.13831 16.1837 1.00014 15.6883 1H3.98828M9.32828 18.9853V24.3253M6.65895 21.656H11.9976M9.32828 1V8.30667M6.35761 8.30667H12.2989C12.4349 8.30632 12.5697 8.33278 12.6954 8.38453C12.8212 8.43629 12.9355 8.51233 13.0318 8.6083C13.1282 8.70427 13.2046 8.81829 13.2569 8.94384C13.3091 9.0694 13.3361 9.20401 13.3363 9.34V12.3107H5.32295V9.34C5.3233 9.06582 5.43247 8.80299 5.62647 8.60924C5.82047 8.41549 6.08343 8.30667 6.35761 8.30667Z" stroke="#333333" stroke-linecap="round" stroke-linejoin="round"/>
</svg>
