<svg width="25" height="25" viewBox="0 0 25 25" fill="none" xmlns="http://www.w3.org/2000/svg">
<path d="M24.5 0.5L13.8333 11.8333M9.09467 11.28C5.788 12.5493 3.144 12.332 0.5 11.284C1.16667 19.8747 5.172 23.1773 10.512 24.5C10.512 24.5 14.5347 21.6547 15.1147 14.9093C15.1773 14.1787 15.208 13.8147 15.0573 13.4027C14.9053 12.9907 14.6067 12.696 14.0107 12.1053C13.0293 11.1347 12.54 10.6493 11.9573 10.5267C11.3747 10.4067 10.6147 10.6973 9.09467 11.28Z" stroke="#333333" stroke-linecap="round" stroke-linejoin="round"/>
<path d="M2.5 18.4267C2.5 18.4267 5.83333 19.072 9.16667 16.4987M11.1667 1.83203V1.96536M7.83333 6.16536C7.83333 6.60739 7.65774 7.03131 7.34518 7.34388C7.03262 7.65644 6.60869 7.83203 6.16667 7.83203C5.72464 7.83203 5.30072 7.65644 4.98816 7.34388C4.67559 7.03131 4.5 6.60739 4.5 6.16536C4.5 5.72334 4.67559 5.29941 4.98816 4.98685C5.30072 4.67429 5.72464 4.4987 6.16667 4.4987C6.60869 4.4987 7.03262 4.67429 7.34518 4.98685C7.65774 5.29941 7.83333 5.72334 7.83333 6.16536Z" stroke="#333333" stroke-linecap="round" stroke-linejoin="round"/>
</svg>
