<svg width="32" height="32" viewBox="0 0 32 32" fill="none" xmlns="http://www.w3.org/2000/svg">
<path d="M4 20C7.31067 20 9.79333 16 9.79333 16C9.79333 16 12.276 20 15.5867 20C18.8973 20 22.2067 16 22.2067 16C22.2067 16 25.5173 20 28 20M4 26.6667C7.31067 26.6667 9.79333 22.6667 9.79333 22.6667C9.79333 22.6667 12.276 26.6667 15.5867 26.6667C18.8973 26.6667 22.2067 22.6667 22.2067 22.6667C22.2067 22.6667 25.5173 26.6667 28 26.6667M6.66667 14L12 10.6667L10.4173 8.688C10.2764 8.5122 10.1722 8.30984 10.111 8.09295C10.0499 7.87607 10.033 7.6491 10.0613 7.42555C10.0897 7.202 10.1628 6.98644 10.2761 6.7917C10.3895 6.59696 10.5409 6.42702 10.7213 6.292C11.0662 6.03288 11.4974 5.91632 11.9259 5.96646C12.3543 6.01659 12.747 6.22959 13.0227 6.56133L18.6667 13.3333M22 10.6667C22.8841 10.6667 23.7319 10.3155 24.357 9.69036C24.9821 9.06523 25.3333 8.21739 25.3333 7.33333C25.3333 6.44928 24.9821 5.60143 24.357 4.97631C23.7319 4.35119 22.8841 4 22 4C21.1159 4 20.2681 4.35119 19.643 4.97631C19.0179 5.60143 18.6667 6.44928 18.6667 7.33333C18.6667 8.21739 19.0179 9.06523 19.643 9.69036C20.2681 10.3155 21.1159 10.6667 22 10.6667Z" stroke="#333333" stroke-linecap="round" stroke-linejoin="round"/>
</svg>
