<svg width="32" height="32" viewBox="0 0 32 32" fill="none" xmlns="http://www.w3.org/2000/svg">
<path d="M13.3346 12.6654C13.3346 16.716 10.948 19.9987 8.0013 19.9987C5.05464 19.9987 2.66797 16.716 2.66797 12.6654C2.66797 8.6147 5.05464 5.33203 8.0013 5.33203C10.948 5.33203 13.3346 8.6147 13.3346 12.6654Z" stroke="#333333" stroke-linecap="round" stroke-linejoin="round"/>
<path d="M8.012 12.6654H8M29.0853 14.2574C29.2453 13.552 29.3347 12.7907 29.3347 11.9987C29.3347 8.31736 27.436 5.33203 25.092 5.33203H8.00133C12.208 5.33203 14.0947 10.6054 13.3653 14.088C12.6093 17.688 9.57333 21.824 9.85333 25.5067C9.90267 26.1614 10.4 26.6654 10.9973 26.6654H24.4813C25.1373 26.6654 25.652 26.0494 25.5973 25.332C25.3253 21.7427 28.284 17.7494 29.0853 14.2574Z" stroke="#333333" stroke-linecap="round" stroke-linejoin="round"/>
</svg>
