<svg width="25" height="25" viewBox="0 0 25 25" fill="none" xmlns="http://www.w3.org/2000/svg">
<path d="M8.50116 19.1672H5.83428M4.50116 0.50032H17.8343C18.1879 0.494841 18.5391 0.559765 18.8675 0.691313C19.1958 0.822861 19.4947 1.0184 19.7467 1.26656C19.9987 1.51472 20.1989 1.81053 20.3355 2.13677C20.4721 2.46302 20.5425 2.81318 20.5425 3.16688C20.5425 3.52058 20.4721 3.87074 20.3355 4.19699C20.1989 4.52323 19.9987 4.81904 19.7467 5.0672C19.4947 5.31535 19.1958 5.5109 18.8675 5.64245C18.5391 5.77399 18.1879 5.83892 17.8343 5.83344V11.1672H4.50116V5.83344C4.14751 5.83892 3.7963 5.77399 3.46797 5.64245C3.13965 5.5109 2.84077 5.31535 2.58874 5.0672C2.33671 4.81904 2.13656 4.52323 1.99994 4.19699C1.86333 3.87074 1.79297 3.52058 1.79297 3.16688C1.79297 2.81318 1.86333 2.46302 1.99994 2.13677C2.13656 1.81053 2.33671 1.51472 2.58874 1.26656C2.84077 1.0184 3.13965 0.822861 3.46797 0.691313C3.7963 0.559765 4.14751 0.494841 4.50116 0.50032Z" stroke="#333333" stroke-linecap="round" stroke-linejoin="round"/>
<path d="M21.8331 15.168H24.5M21.8331 23.168V12.5011C21.8331 12.1475 21.6927 11.8084 21.4427 11.5584C21.1926 11.3084 20.8536 11.168 20.5 11.168H1.83312C1.47955 11.168 1.14047 11.3084 0.890462 11.5584C0.640453 11.8084 0.5 12.1475 0.5 12.5011V23.168C0.5 23.5215 0.640453 23.8606 0.890462 24.1106C1.14047 24.3606 1.47955 24.5011 1.83312 24.5011H20.5C20.8536 24.5011 21.1926 24.3606 21.4427 24.1106C21.6927 23.8606 21.8331 23.5215 21.8331 23.168Z" stroke="#333333" stroke-linecap="round" stroke-linejoin="round"/>
</svg>
