<svg width="32" height="32" viewBox="0 0 32 32" fill="none" xmlns="http://www.w3.org/2000/svg">
<path d="M8.66797 6.66536H20.0013C22.516 6.66536 23.772 6.66536 24.5533 7.4467C25.3346 8.22803 25.3346 9.48403 25.3346 11.9987V15.9987C25.3346 18.5134 25.3346 19.7694 24.5533 20.5507C23.772 21.332 22.516 21.332 20.0013 21.332H16.0013C13.4866 21.332 12.2306 21.332 11.4493 20.5507C10.668 19.7694 10.668 18.5134 10.668 15.9987V10.6654M8.66797 6.66536C8.13754 6.66536 7.62883 6.87608 7.25375 7.25115C6.87868 7.62622 6.66797 8.13493 6.66797 8.66536V10.6654M8.66797 6.66536C9.1984 6.66536 9.70711 6.87608 10.0822 7.25115C10.4573 7.62622 10.668 8.13493 10.668 8.66536V10.6654M10.668 10.6654H6.66797M6.66797 10.6654C5.4253 10.6654 4.80397 10.6654 4.31464 10.4627C3.99088 10.3287 3.6967 10.1322 3.44893 9.8844C3.20116 9.63663 3.00465 9.34246 2.87064 9.0187C2.66797 8.52936 2.66797 7.90803 2.66797 6.66536V5.33203M22.668 21.332C22.668 23.8467 22.668 25.1027 21.8866 25.884C21.1053 26.6654 19.8493 26.6654 17.3346 26.6654H12.0013C9.48663 26.6654 8.23064 26.6654 7.4493 25.884C6.66797 25.1027 6.66797 23.8467 6.66797 21.332V14.6654M29.3346 5.33203V6.66536C29.3346 7.90803 29.3346 8.52936 29.132 9.0187C28.9979 9.34246 28.8014 9.63663 28.5537 9.8844C28.3059 10.1322 28.0117 10.3287 27.688 10.4627C27.1986 10.6654 26.5773 10.6654 25.3346 10.6654" stroke="#333333" stroke-linecap="round" stroke-linejoin="round"/>
</svg>
