<svg width="32" height="32" viewBox="0 0 32 32" fill="none" xmlns="http://www.w3.org/2000/svg">
<path d="M8 26.668V29.3346M24 26.668V29.3346M16 26.668V2.66797M12 13.3346V14.668M20 13.3346V14.668M4 18.668V10.668C4 6.8973 4 5.01064 5.24 3.83997C6.48 2.6693 8.47733 2.66797 12.4707 2.66797H19.5293C23.5227 2.66797 25.5187 2.66797 26.76 3.83997C28 5.01064 28 6.8973 28 10.668V18.668C28 22.4386 28 24.3253 26.76 25.496C25.52 26.6666 23.5227 26.668 19.5293 26.668H12.4707C8.47733 26.668 6.48133 26.668 5.24 25.496C4 24.3253 4 22.4386 4 18.668Z" stroke="#333333" stroke-linecap="round" stroke-linejoin="round"/>
</svg>
