<svg width="32" height="32" viewBox="0 0 32 32" fill="none" xmlns="http://www.w3.org/2000/svg">
<path d="M24 6.6813L24.0133 6.66664M28 5.33464V26.668C28 27.3752 27.719 28.0535 27.219 28.5536C26.7189 29.0537 26.0406 29.3346 25.3333 29.3346H6.66667C5.95942 29.3346 5.28115 29.0537 4.78105 28.5536C4.28095 28.0535 4 27.3752 4 26.668V5.33464C4 4.62739 4.28095 3.94911 4.78105 3.44902C5.28115 2.94892 5.95942 2.66797 6.66667 2.66797H25.3333C26.0406 2.66797 26.7189 2.94892 27.219 3.44902C27.719 3.94911 28 4.62739 28 5.33464Z" stroke="#333333" stroke-linecap="round" stroke-linejoin="round"/>
<path d="M16 25.3359C18.1217 25.3359 20.1566 24.4931 21.6569 22.9928C23.1571 21.4925 24 19.4577 24 17.3359C24 15.2142 23.1571 13.1794 21.6569 11.6791C20.1566 10.1788 18.1217 9.33594 16 9.33594C13.8783 9.33594 11.8434 10.1788 10.3431 11.6791C8.84286 13.1794 8 15.2142 8 17.3359C8 19.4577 8.84286 21.4925 10.3431 22.9928C11.8434 24.4931 13.8783 25.3359 16 25.3359Z" stroke="#333333" stroke-linecap="round" stroke-linejoin="round"/>
<path d="M16 21.3359C14.9391 21.3359 13.9217 20.9145 13.1716 20.1644C12.4214 19.4142 12 18.3968 12 17.3359" stroke="#333333" stroke-linecap="round" stroke-linejoin="round"/>
</svg>
