<svg width="16" height="17" viewBox="0 0 16 17" fill="none" xmlns="http://www.w3.org/2000/svg">
<path d="M15.5 16.5C15.025 7.167 0.975 7.167 0.5 16.5M11 3.5C11 4.29565 10.6839 5.05871 10.1213 5.62132C9.55871 6.18393 8.79565 6.5 8 6.5C7.20435 6.5 6.44129 6.18393 5.87868 5.62132C5.31607 5.05871 5 4.29565 5 3.5C5 2.70435 5.31607 1.94129 5.87868 1.37868C6.44129 0.816071 7.20435 0.5 8 0.5C8.79565 0.5 9.55871 0.816071 10.1213 1.37868C10.6839 1.94129 11 2.70435 11 3.5Z" stroke="#333333" stroke-linecap="round" stroke-linejoin="round"/>
</svg>
