<svg width="16" height="16" viewBox="0 0 16 16" fill="none" xmlns="http://www.w3.org/2000/svg">
<path d="M7.82488 16C5.90421 16 4.21888 15.4107 2.76888 14.232C1.31888 13.0533 0.403548 11.5427 0.0228809 9.7C-0.0184524 9.55267 -0.00378561 9.41633 0.0668811 9.291C0.137548 9.16567 0.248548 9.093 0.399881 9.073C0.541881 9.053 0.666881 9.084 0.774881 9.166C0.882215 9.248 0.958548 9.36467 1.00388 9.516C1.36521 11.1053 2.18055 12.4167 3.44988 13.45C4.71921 14.4833 6.17755 15 7.82488 15C9.77488 15 11.4289 14.321 12.7869 12.963C14.1449 11.605 14.8242 9.95067 14.8249 8C14.8255 6.04933 14.1462 4.395 12.7869 3.037C11.4275 1.679 9.77355 1 7.82488 1C6.78955 1 5.81688 1.21867 4.90688 1.656C3.99688 2.09267 3.19355 2.69433 2.49688 3.461H4.47788C4.61988 3.461 4.73888 3.509 4.83488 3.605C4.93088 3.701 4.97855 3.82 4.97788 3.962C4.97721 4.104 4.92955 4.22267 4.83488 4.318C4.74021 4.41333 4.62121 4.461 4.47788 4.461H1.63288C1.40421 4.461 1.21255 4.38367 1.05788 4.229C0.903215 4.07433 0.825881 3.88267 0.825881 3.654V0.808C0.825881 0.666 0.873881 0.547333 0.969881 0.452C1.06588 0.356667 1.18455 0.308667 1.32588 0.308C1.46721 0.307333 1.58588 0.355333 1.68188 0.452C1.77788 0.548667 1.82588 0.667333 1.82588 0.808V2.696C2.59921 1.84733 3.50521 1.186 4.54388 0.712C5.58255 0.238 6.67621 0.000666667 7.82488 0C8.93488 0 9.97455 0.208667 10.9439 0.626C11.9132 1.04333 12.7602 1.61467 13.4849 2.34C14.2095 3.06533 14.7809 3.912 15.1989 4.88C15.6169 5.848 15.8255 6.88767 15.8249 7.999C15.8242 9.11033 15.6155 10.1503 15.1989 11.119C14.7822 12.0877 14.2109 12.935 13.4849 13.661C12.7589 14.387 11.9119 14.958 10.9439 15.374C9.97588 15.79 8.93688 15.9987 7.82488 16ZM8.38188 7.792L11.3819 10.792C11.4752 10.8853 11.5252 11 11.5319 11.136C11.5385 11.2727 11.4885 11.394 11.3819 11.5C11.2752 11.6067 11.1575 11.66 11.0289 11.66C10.8989 11.66 10.7809 11.6067 10.6749 11.5L7.62488 8.45C7.53755 8.36333 7.47521 8.272 7.43788 8.176C7.40055 8.08 7.38188 7.981 7.38188 7.879V3.5C7.38188 3.358 7.42988 3.23933 7.52588 3.144C7.62188 3.048 7.74088 3 7.88288 3C8.02488 3 8.14355 3.048 8.23888 3.144C8.33421 3.24 8.38188 3.35867 8.38188 3.5V7.792Z" fill="#333333"/>
</svg>
