<svg width="20" height="21" viewBox="0 0 20 21" fill="none" xmlns="http://www.w3.org/2000/svg">
<path d="M8.29 20.461H7.39C4.142 20.461 2.517 20.461 1.508 19.436C0.499 18.411 0.5 16.761 0.5 13.461V8.461C0.5 5.161 0.5 3.511 1.51 2.487C2.517 1.46 4.142 1.46 7.39 1.46H10.343C13.592 1.46 15.49 1.516 16.499 2.54C17.509 3.566 17.499 5.16 17.499 8.46V9.647M13.945 0.5V2.5M8.945 0.5V2.5M3.945 0.5V2.5M5 13.5H9M5 8.5H13" stroke="#333333" stroke-linecap="round" stroke-linejoin="round"/>
<path opacity="0.93" d="M18.7601 13.3786C17.8541 12.3636 17.3111 12.4246 16.7081 12.6056C16.2851 12.6656 14.8371 14.3556 14.2331 14.8956C13.2421 15.8736 12.2461 16.8816 12.1811 17.0136C11.9931 17.3186 11.8191 17.8586 11.7341 18.4626C11.5771 19.3686 11.3511 20.3876 11.6371 20.4756C11.9231 20.5636 12.7241 20.3956 13.6291 20.2626C14.2331 20.1526 14.6551 20.0326 14.9571 19.8516C15.3801 19.5976 16.1641 18.7046 17.5171 17.3756C18.3641 16.4826 19.1821 15.8656 19.4241 15.2626C19.6651 14.3566 19.3041 13.8736 18.7601 13.3786Z" stroke="#333333" stroke-linecap="round" stroke-linejoin="round"/>
</svg>
