<svg width="17" height="21" viewBox="0 0 17 21" fill="none" xmlns="http://www.w3.org/2000/svg">
<path d="M4.5 10.4999L7.5 13.4999L12.5 6.49994M0.500001 9.75194C0.500001 17.4389 7.418 20.1389 8.387 20.4799C8.46233 20.5066 8.53767 20.5066 8.613 20.4799C9.584 20.1499 16.5 17.5179 16.5 9.75294V2.80394C16.5002 2.71457 16.4705 2.6277 16.4156 2.5572C16.3607 2.48669 16.2837 2.43661 16.197 2.41494L8.597 0.511939C8.53331 0.49602 8.46669 0.49602 8.403 0.511939L0.803001 2.41494C0.716299 2.43661 0.639352 2.48669 0.584434 2.5572C0.529516 2.6277 0.499791 2.71457 0.500001 2.80394V9.75194Z" stroke="#333333" stroke-linecap="round" stroke-linejoin="round"/>
</svg>
