<svg width="20" height="20" viewBox="0 0 20 20" fill="none" xmlns="http://www.w3.org/2000/svg">
<path d="M14.5775 8.036C14.8329 8.2915 15.1361 8.49418 15.4698 8.63246C15.8036 8.77074 16.1613 8.84191 16.5225 8.84191C16.8838 8.84191 17.2415 8.77074 17.5752 8.63246C17.9089 8.49418 18.2121 8.2915 18.4675 8.036C18.5945 7.908 18.8295 7.96 18.8605 8.138C19.204 10.0759 18.9205 12.0728 18.0512 13.8384C17.1818 15.6041 15.772 17.0465 14.0266 17.9558C12.2813 18.8652 10.2913 19.1942 8.34614 18.895C6.40095 18.5957 4.60189 17.6839 3.21053 16.292C1.81862 14.9006 0.906777 13.1016 0.607549 11.1564C0.308322 9.2112 0.637312 7.22127 1.54669 5.4759C2.45607 3.73052 3.89843 2.32069 5.66409 1.45135C7.42975 0.582011 9.42667 0.298488 11.3645 0.642C11.5425 0.673 11.5945 0.908 11.4665 1.036C11.0584 1.4441 10.789 1.97025 10.6966 2.53994C10.6041 3.10962 10.6932 3.69397 10.9513 4.21021C11.2093 4.72644 11.6233 5.1484 12.1344 5.41632C12.6456 5.68424 13.2282 5.78453 13.7995 5.703C13.7392 6.12558 13.7782 6.55638 13.9132 6.96131C14.0482 7.36625 14.2757 7.73418 14.5775 8.036Z" stroke="#333333" stroke-linecap="round" stroke-linejoin="round"/>
<path d="M6 14.25C6.69036 14.25 7.25 13.6904 7.25 13C7.25 12.3096 6.69036 11.75 6 11.75C5.30964 11.75 4.75 12.3096 4.75 13C4.75 13.6904 5.30964 14.25 6 14.25Z" fill="#333333"/>
<path d="M5 8.25C5.69036 8.25 6.25 7.69036 6.25 7C6.25 6.30964 5.69036 5.75 5 5.75C4.30964 5.75 3.75 6.30964 3.75 7C3.75 7.69036 4.30964 8.25 5 8.25Z" fill="#333333"/>
<path d="M10 11.25C10.6904 11.25 11.25 10.6904 11.25 10C11.25 9.30964 10.6904 8.75 10 8.75C9.30964 8.75 8.75 9.30964 8.75 10C8.75 10.6904 9.30964 11.25 10 11.25Z" fill="#333333"/>
<path d="M13 15.25C13.6904 15.25 14.25 14.6904 14.25 14C14.25 13.3096 13.6904 12.75 13 12.75C12.3096 12.75 11.75 13.3096 11.75 14C11.75 14.6904 12.3096 15.25 13 15.25Z" fill="#333333"/>
</svg>
