<svg width="86" height="86" viewBox="0 0 86 86" fill="none" xmlns="http://www.w3.org/2000/svg">
<path d="M55.048 23.9154C55.048 23.9154 57.1313 23.9154 59.2146 28.082C59.2146 28.082 65.8355 17.6654 71.7146 15.582M71.8188 55.3404L71.9355 74.2987C71.833 76.9962 70.6886 79.549 68.7429 81.4201C66.7971 83.2913 64.2016 84.3351 61.5021 84.332H15.1396C13.7701 84.3342 12.4135 84.0666 11.1473 83.5445C9.88114 83.0225 8.73021 82.2561 7.76023 81.2892C6.79024 80.3223 6.0202 79.1738 5.49406 77.9093C4.96793 76.6449 4.696 75.2891 4.69381 73.9195L5.05215 46.9779M30.0938 17.7195L14.1188 17.4529C12.3158 17.4072 10.5465 17.9462 9.07526 18.9894C7.604 20.0326 6.50984 21.5239 5.95631 23.2404L1.38548 37.4737C0.843815 39.157 0.806314 40.9945 1.70631 42.5195C4.97715 48.0779 13.7688 55.6612 27.7396 47.5112M23.6938 39.8862C25.3188 45.1695 31.6938 54.4404 44.6938 49.0695" stroke="#FF7D01" stroke-width="2" stroke-linecap="round" stroke-linejoin="round"/>
<path d="M84.3344 21.9C84.3377 24.6424 83.8006 27.3586 82.7538 29.8933C81.7069 32.4281 80.1709 34.7317 78.2335 36.6726C76.2961 38.6135 73.9952 40.1536 71.4623 41.205C68.9295 42.2564 66.2143 42.7984 63.4719 42.8C60.7295 42.7984 58.0143 42.2564 55.4814 41.205C52.9486 40.1536 50.6477 38.6135 48.7103 36.6726C46.7728 34.7317 45.2368 32.4281 44.19 29.8933C43.1432 27.3586 42.6061 24.6424 42.6094 21.9C42.6061 19.1576 43.1432 16.4414 44.19 13.9067C45.2368 11.372 46.7728 9.06831 48.7103 7.1274C50.6477 5.18649 52.9486 3.64636 55.4814 2.59499C58.0143 1.54363 60.7295 1.00164 63.4719 1C66.2143 1.00164 68.9295 1.54363 71.4623 2.59499C73.9952 3.64636 76.2961 5.18649 78.2335 7.1274C80.1709 9.06831 81.7069 11.372 82.7538 13.9067C83.8006 16.4414 84.3377 19.1576 84.3344 21.9Z" stroke="#FF7D01" stroke-width="2" stroke-linecap="round" stroke-linejoin="round"/>
</svg>
