<svg width="20" height="21" viewBox="0 0 20 21" fill="none" xmlns="http://www.w3.org/2000/svg">
<path d="M9.99797 0.5C6.98997 0.5 5.03997 2.519 2.73397 3.255C1.79597 3.555 1.32697 3.704 1.13697 3.915C0.946971 4.125 0.89197 4.434 0.78097 5.05C-0.40903 11.646 2.19097 17.744 8.39097 20.118C9.05597 20.373 9.38897 20.5 10.001 20.5C10.613 20.5 10.947 20.372 11.613 20.117C17.812 17.744 20.409 11.646 19.219 5.05C19.108 4.434 19.052 4.125 18.862 3.914C18.672 3.703 18.204 3.554 17.266 3.255C14.959 2.519 13.006 0.5 9.99797 0.5Z" stroke="#333333" stroke-linecap="round" stroke-linejoin="round"/>
<path d="M8.25014 8.45848C8.25014 8.39848 8.25814 8.05248 8.26014 7.61848C8.26014 7.22048 8.22614 6.83848 8.41614 6.48848C9.12614 5.07448 11.1661 5.21848 11.6701 6.65848C11.7571 6.89548 11.7631 7.27048 11.7601 7.61848C11.7571 8.06148 11.7661 8.45848 11.7661 8.45848M8.33714 8.87948C7.25714 8.87948 6.71714 9.65948 6.59714 10.1395C6.47714 10.6195 6.47714 12.3595 6.54914 13.0795C6.78914 13.9795 7.38914 14.3515 7.97714 14.4715C8.51714 14.5195 10.7971 14.5015 11.4571 14.5015C12.4171 14.5195 13.1371 14.1595 13.4371 13.0795C13.4971 12.7195 13.5571 10.7395 13.4071 10.1395C13.0891 9.17948 12.2971 8.87948 11.6971 8.87948H8.33714Z" stroke="#333333" stroke-linecap="round" stroke-linejoin="round"/>
</svg>
