<svg width="80" height="64" viewBox="0 0 80 64" fill="none" xmlns="http://www.w3.org/2000/svg">
<path d="M74.3199 14.8008V45.1527C74.3199 45.1527 74.1941 45.7365 73.0298 45.6798C73.0298 45.6798 72.1887 45.6837 72.0942 44.9625L71.459 14.8008H74.3199Z" fill="#B77C48"/>
<path d="M73.1876 45.8174C73.1355 45.8174 73.0808 45.8148 73.0241 45.8135C72.9804 45.8135 72.0683 45.7978 71.9608 44.9782L71.3242 14.8028C71.3242 14.7657 71.3372 14.7299 71.3627 14.7058C71.3887 14.6797 71.4239 14.6641 71.4597 14.6641H74.3213C74.3949 14.6641 74.4555 14.7253 74.4555 14.7989V45.1508C74.447 45.2062 74.3024 45.8174 73.1876 45.8174ZM71.5972 14.9345L72.2305 44.9567C72.3054 45.5359 73.0006 45.5431 73.0306 45.5431C73.0899 45.545 73.14 45.5463 73.1876 45.5463C74.0698 45.5463 74.1851 45.1365 74.1897 45.1196L74.1858 14.9345H71.5972Z" fill="#7A4719"/>
<path d="M74.3199 14.8008V45.1527C74.3199 45.1527 74.1941 45.7365 73.0298 45.6798C73.0298 45.6798 72.1887 45.6837 72.0942 44.9625L71.459 14.8008H74.3199Z" fill="#333333"/>
<path d="M73.1876 45.8174C73.1355 45.8174 73.0808 45.8148 73.0241 45.8135C72.9804 45.8135 72.0683 45.7978 71.9608 44.9782L71.3242 14.8028C71.3242 14.7657 71.3372 14.7299 71.3627 14.7058C71.3887 14.6797 71.4239 14.6641 71.4597 14.6641H74.3213C74.3949 14.6641 74.4555 14.7253 74.4555 14.7989V45.1508C74.447 45.2062 74.3024 45.8174 73.1876 45.8174ZM71.5972 14.9345L72.2305 44.9567C72.3054 45.5359 73.0006 45.5431 73.0306 45.5431C73.0899 45.545 73.14 45.5463 73.1876 45.5463C74.0698 45.5463 74.1851 45.1365 74.1897 45.1196L74.1858 14.9345H71.5972Z" fill="#333333"/>
<path d="M72.2076 15.565C72.2076 15.565 74.1922 45.7365 73.0279 45.6798C73.0279 45.6798 72.1868 45.6837 72.0923 44.9625L71.457 14.8008L72.2076 15.565Z" fill="#333333"/>
<path d="M56.8101 8.72656V39.0785C56.8101 39.0785 56.6844 39.6616 55.5194 39.6056C55.5194 39.6056 54.6776 39.6082 54.5838 38.8869L53.9473 8.72656H56.8101Z" fill="#B77C48"/>
<path d="M55.6747 39.7418C55.6232 39.7418 55.5685 39.7412 55.5105 39.7386C55.4883 39.7308 54.5553 39.7295 54.4491 38.9027L53.8126 8.72732C53.8113 8.69148 53.8243 8.6563 53.851 8.63154C53.8764 8.60417 53.9116 8.58984 53.9468 8.58984H56.8096C56.8833 8.58984 56.9439 8.65043 56.9439 8.72536V39.0773C56.9347 39.1314 56.7901 39.7418 55.6747 39.7418ZM54.0843 8.86023L54.7182 38.8818C54.7931 39.461 55.4883 39.4682 55.5183 39.4682C55.5776 39.4708 55.6265 39.4734 55.6747 39.4734C56.5569 39.4734 56.6735 39.0623 56.6767 39.0447L56.6741 8.86023H54.0843Z" fill="#7A4719"/>
<path d="M56.8101 8.72656V39.0785C56.8101 39.0785 56.6844 39.6616 55.5194 39.6056C55.5194 39.6056 54.6776 39.6082 54.5838 38.8869L53.9473 8.72656H56.8101Z" fill="#B77C48"/>
<path d="M55.6747 39.7418C55.6232 39.7418 55.5685 39.7412 55.5105 39.7386C55.4883 39.7308 54.5553 39.7295 54.4491 38.9027L53.8126 8.72732C53.8113 8.69148 53.8243 8.6563 53.851 8.63154C53.8764 8.60417 53.9116 8.58984 53.9468 8.58984H56.8096C56.8833 8.58984 56.9439 8.65043 56.9439 8.72536V39.0773C56.9347 39.1314 56.7901 39.7418 55.6747 39.7418ZM54.0843 8.86023L54.7182 38.8818C54.7931 39.461 55.4883 39.4682 55.5183 39.4682C55.5776 39.4708 55.6265 39.4734 55.6747 39.4734C56.5569 39.4734 56.6735 39.0623 56.6767 39.0447L56.6741 8.86023H54.0843Z" fill="#7A4719"/>
<path d="M54.993 9.91563C54.993 9.91563 55.9292 39.1071 55.5194 39.6056C55.5194 39.6056 54.6776 39.6082 54.5838 38.8869L53.9473 8.72656L54.993 9.91563Z" fill="#B77C48"/>
<path d="M5.97287 21.2812V56.7999C5.97287 56.7999 5.84712 57.484 4.68217 57.4169C4.68217 57.4169 3.84105 57.4208 3.74657 56.5751L3.11133 21.2812H5.97287Z" fill="#B77C48"/>
<path d="M4.8393 57.5597C4.78782 57.5597 4.73179 57.5584 4.67511 57.5531C4.34934 57.5531 3.69781 57.3531 3.61376 56.5934L2.97656 21.2859C2.97656 21.2494 2.99024 21.2155 3.0163 21.1895C3.04106 21.1641 3.07625 21.1484 3.11208 21.1484H5.97362C6.04855 21.1484 6.10979 21.209 6.10979 21.2833V56.8019C6.10197 56.8573 5.95928 57.5597 4.8393 57.5597ZM3.25086 21.4195L3.8835 56.5752C3.96103 57.2749 4.65361 57.2841 4.68358 57.2841C4.74417 57.288 4.79369 57.2893 4.83995 57.2893C5.72343 57.2893 5.83745 56.7967 5.84266 56.7759L5.84005 21.4195H3.25086Z" fill="#7A4719"/>
<path d="M5.97287 21.2812V56.7999C5.97287 56.7999 5.84712 57.484 4.68217 57.4169C4.68217 57.4169 3.84105 57.4208 3.74657 56.5751L3.11133 21.2812H5.97287Z" fill="#333333"/>
<path d="M4.8393 57.5597C4.78782 57.5597 4.73179 57.5584 4.67511 57.5531C4.34934 57.5531 3.69781 57.3531 3.61376 56.5934L2.97656 21.2859C2.97656 21.2494 2.99024 21.2155 3.0163 21.1895C3.04106 21.1641 3.07625 21.1484 3.11208 21.1484H5.97362C6.04855 21.1484 6.10979 21.209 6.10979 21.2833V56.8019C6.10197 56.8573 5.95928 57.5597 4.8393 57.5597ZM3.25086 21.4195L3.8835 56.5752C3.96103 57.2749 4.65361 57.2841 4.68358 57.2841C4.74417 57.288 4.79369 57.2893 4.83995 57.2893C5.72343 57.2893 5.83745 56.7967 5.84266 56.7759L5.84005 21.4195H3.25086Z" fill="#333333"/>
<path d="M4.53884 22.0957C4.53884 22.0957 5.84321 57.4833 4.67827 57.4169C4.67827 57.4169 3.83714 57.4208 3.74267 56.5751L3.10742 21.2812L4.53884 22.0957Z" fill="#333333"/>
<path d="M5.14368 52.6412L23.6994 59.2635L72.8902 40.7617V17.6914L4.54492 23.3546L5.14368 52.6412Z" fill="#6F3D28"/>
<path d="M23.6884 59.3972C23.6728 59.3972 23.6578 59.3933 23.6435 59.3881L5.08778 52.7658C5.03501 52.7476 4.99983 52.6981 4.99852 52.6414L4.39846 23.3554C4.39716 23.2837 4.45188 23.2244 4.5229 23.2186L72.8676 17.5554C72.9047 17.5515 72.9412 17.5639 72.9699 17.5899C72.9972 17.6147 73.0129 17.6518 73.0129 17.6896V40.7599C73.0129 40.8166 72.9783 40.8674 72.9249 40.887L23.7347 59.3881C23.7204 59.3939 23.7047 59.3972 23.6884 59.3972ZM5.26565 52.543L23.6871 59.119L72.7431 40.6674V17.8369L4.6708 23.4759L5.26565 52.543Z" fill="#553211"/>
<path d="M23.2954 21.8008L4.54492 23.3547L5.14368 52.6413L23.2954 59.1209V21.8008Z" fill="#333333"/>
<path d="M23.2851 59.2568C23.2708 59.2568 23.2545 59.2542 23.2395 59.249L5.08778 52.7701C5.03436 52.7519 4.99983 52.7024 4.99852 52.6457L4.39846 23.3597C4.39716 23.288 4.45188 23.2287 4.5229 23.2229L23.2741 21.6683C23.3125 21.6657 23.3483 21.6787 23.3764 21.7041C23.4044 21.7289 23.4194 21.7647 23.4194 21.8032V59.1226C23.4194 59.165 23.3985 59.2067 23.362 59.2321C23.3399 59.2477 23.3125 59.2568 23.2851 59.2568ZM5.2663 52.5467L23.1496 58.9298V21.9491L4.67145 23.4802L5.2663 52.5467Z" fill="#FF7D01"/>
<path d="M23.6406 21.772V59.2426L23.6999 59.2635L72.8908 40.7617V17.6914L23.6406 21.772Z" fill="#333333"/>
<path d="M23.6987 59.3978C23.6831 59.3978 23.6681 59.3939 23.6538 59.3887L23.5945 59.3679C23.5397 59.3483 23.5039 59.2975 23.5039 59.2415V21.7708C23.5039 21.7005 23.558 21.6425 23.6284 21.6366L72.8778 17.5554C72.915 17.5515 72.9515 17.5639 72.9801 17.5899C73.0075 17.6147 73.0231 17.6518 73.0231 17.6896V40.7599C73.0231 40.8166 72.9886 40.8674 72.9352 40.887L23.745 59.3881C23.7306 59.3946 23.715 59.3978 23.6987 59.3978ZM23.7743 21.8959V59.091L72.754 40.6681V17.8375L23.7743 21.8959Z" fill="#FF7D01"/>
<path d="M24.551 27.7266V63.2439C24.551 63.2439 24.4252 63.928 23.2603 63.8609C23.2603 63.8609 22.4198 63.8661 22.3247 63.0204L21.6895 27.7266H24.551Z" fill="#B77C48"/>
<path d="M23.4175 63.9991C23.366 63.9991 23.3107 63.9978 23.2533 63.9958C23.2533 63.9958 23.2527 63.9958 23.252 63.9958C22.9276 63.9958 22.276 63.7926 22.1907 63.0348L21.5548 27.7273C21.5535 27.6915 21.5684 27.6563 21.5932 27.6309C21.6193 27.6035 21.6538 27.5898 21.6903 27.5898H24.5518C24.6261 27.5898 24.6867 27.6504 24.6867 27.7247V63.242C24.6789 63.2968 24.5375 63.9991 23.4175 63.9991ZM21.8284 27.8596L22.4617 63.0166C22.5392 63.715 23.2325 63.7242 23.2618 63.7242C23.3224 63.7281 23.3719 63.73 23.4182 63.73C24.3016 63.73 24.4157 63.2375 24.4209 63.2166L24.4176 27.8596H21.8284Z" fill="#7A4719"/>
<path d="M24.551 27.7266V63.2439C24.551 63.2439 24.4252 63.928 23.2603 63.8609C23.2603 63.8609 22.4198 63.8661 22.3247 63.0204L21.6895 27.7266H24.551Z" fill="#333333"/>
<path d="M23.4175 63.9991C23.366 63.9991 23.3107 63.9978 23.2533 63.9958C23.2533 63.9958 23.2527 63.9958 23.252 63.9958C22.9276 63.9958 22.276 63.7926 22.1907 63.0348L21.5548 27.7273C21.5535 27.6915 21.5684 27.6563 21.5932 27.6309C21.6193 27.6035 21.6538 27.5898 21.6903 27.5898H24.5518C24.6261 27.5898 24.6867 27.6504 24.6867 27.7247V63.242C24.6789 63.2968 24.5375 63.9991 23.4175 63.9991ZM21.8284 27.8596L22.4617 63.0166C22.5392 63.715 23.2325 63.7242 23.2618 63.7242C23.3224 63.7281 23.3719 63.73 23.4182 63.73C24.3016 63.73 24.4157 63.2375 24.4209 63.2166L24.4176 27.8596H21.8284Z" fill="#333333"/>
<path d="M22.913 27.7637C22.913 27.7637 24.4213 63.928 23.2564 63.8609C23.2564 63.8609 22.4159 63.8661 22.3208 63.0204L21.6855 27.7266L22.913 27.7637Z" fill="#333333"/>
<path d="M54.1326 8.8125L79.4245 14.0424V16.2316L26.2561 32.2718L0.136719 22.4837V20.262L54.1326 8.8125Z" fill="#B77C48"/>
<path d="M26.2542 32.405C26.2386 32.405 26.2217 32.4024 26.2067 32.3978L0.0879585 22.6098C0.0358358 22.5889 0 22.54 0 22.4827V20.261C0 20.1971 0.0443049 20.1424 0.107504 20.1293L54.1021 8.6792C54.1204 8.67464 54.1399 8.67464 54.1581 8.6792L79.4488 13.9091C79.512 13.9228 79.5563 13.9769 79.5563 14.0414V16.2305C79.5563 16.2898 79.5178 16.3433 79.4611 16.3589L26.2927 32.3991C26.2809 32.4037 26.2679 32.405 26.2542 32.405ZM0.270387 22.3895L26.2588 32.1287L79.2872 16.1309V14.1508L54.1321 8.9496L0.270387 20.3698V22.3895Z" fill="#7A4719"/>
<path d="M54.1326 8.8125L79.4245 14.0424V16.2316L26.2561 32.2718L0.136719 22.4837V20.262L54.1326 8.8125Z" fill="#CFB8B2"/>
<path d="M26.2542 32.405C26.2386 32.405 26.2217 32.4024 26.2067 32.3978L0.0879585 22.6098C0.0358358 22.5889 0 22.54 0 22.4827V20.261C0 20.1971 0.0443049 20.1424 0.107504 20.1293L54.1021 8.6792C54.1204 8.67464 54.1399 8.67464 54.1581 8.6792L79.4488 13.9091C79.512 13.9228 79.5563 13.9769 79.5563 14.0414V16.2305C79.5563 16.2898 79.5178 16.3433 79.4611 16.3589L26.2927 32.3991C26.2809 32.4037 26.2679 32.405 26.2542 32.405ZM0.270387 22.3895L26.2588 32.1287L79.2872 16.1309V14.1508L54.1321 8.9496L0.270387 20.3698V22.3895Z" fill="#A38D82"/>
<path d="M26.3551 14.7031L26.2561 32.2719L0.136719 22.4838V20.262L26.3551 14.7031Z" fill="#CFB8B2"/>
<path d="M53.5762 7.37891L79.4245 14.0363L26.2685 30.272L0.136719 20.2559L53.5762 7.37891Z" fill="#333333"/>
<path d="M26.2662 30.4146C26.2499 30.4146 26.2323 30.412 26.218 30.4055L0.0875125 20.3888C0.0327836 20.3679 -0.00305259 20.3138 0.000205081 20.2546C0.00476582 20.1966 0.0458103 20.1458 0.103797 20.1321L53.5433 7.25376C53.5642 7.24855 53.587 7.24855 53.6091 7.25506L79.4561 13.9118C79.5154 13.9275 79.5558 13.9796 79.5571 14.0402C79.5591 14.1008 79.5193 14.1535 79.462 14.1718L26.3059 30.4075C26.2916 30.412 26.2792 30.4146 26.2662 30.4146ZM0.590494 20.293L26.2707 30.1371L78.9232 14.0539L53.5733 7.5248L0.590494 20.293Z" fill="#F49CAA"/>
<path d="M53.5773 7.37891L79.4256 14.0363L26.2695 30.272L76.5621 14.08L53.5773 7.37891Z" fill="#B77C48"/>
<path opacity="0.5" d="M66.3873 11.5527C61.1705 11.9006 55.9876 12.4902 50.8958 13.708C45.9376 14.8931 41.1261 16.5558 36.4396 18.5521C30.7562 20.9726 25.0735 23.9684 20.3206 28.0007L0.136719 20.2637L53.5762 7.38672L69.2574 11.4256C68.2996 11.4439 67.3425 11.4882 66.3873 11.5527Z" fill="#FF7D01"/>
<path d="M71.1563 19.7539L26.3516 33.2792V41.5798L71.254 26.4159L71.1563 19.7539Z" fill="#333333"/>
<path d="M26.3588 41.7132C26.3315 41.7132 26.3034 41.7028 26.2806 41.6871C26.2448 41.6624 26.2246 41.62 26.2246 41.577V33.2764C26.2246 33.2171 26.2637 33.1637 26.321 33.1468L71.1251 19.6234C71.1662 19.6104 71.2098 19.6182 71.245 19.643C71.2789 19.6684 71.2991 19.7081 71.2997 19.7498L71.3975 26.4111C71.3981 26.4704 71.3603 26.5232 71.3049 26.5415L26.4025 41.7054C26.3888 41.7106 26.3745 41.7132 26.3588 41.7132ZM26.495 33.3774V41.3887L71.1251 26.3167L71.0319 19.9322L26.495 33.3774Z" fill="#FF7D01"/>
<path d="M26.3516 49.8147V57.0507L71.4527 39.981L71.3661 34.125L26.3516 49.8147Z" fill="#333333"/>
<path d="M26.3588 57.1877C26.3321 57.1877 26.3048 57.1786 26.2826 57.163C26.2455 57.1382 26.2246 57.0965 26.2246 57.0515V49.8162C26.2246 49.7582 26.2604 49.7074 26.3152 49.6879L71.329 33.9995C71.3707 33.9858 71.4157 33.9916 71.4515 34.0151C71.488 34.0412 71.5089 34.0822 71.5102 34.1252L71.5955 39.9793C71.5962 40.036 71.561 40.0881 71.5082 40.1076L26.4077 57.1773C26.3914 57.1838 26.3758 57.1877 26.3588 57.1877ZM26.495 49.912V56.8567L71.3238 39.8887L71.2424 34.3155L26.495 49.912Z" fill="#FF7D01"/>
<path d="M71.254 26.4102L26.3516 41.5741V49.8134L71.3661 34.1237L71.254 26.4102Z" fill="#333333"/>
<path d="M26.3588 49.9542C26.3321 49.9542 26.3048 49.9458 26.2813 49.9301C26.2455 49.9054 26.2246 49.863 26.2246 49.82V41.58C26.2246 41.522 26.2617 41.4706 26.3158 41.4536L71.2183 26.2884C71.2593 26.2747 71.3043 26.2806 71.3395 26.3066C71.3753 26.3314 71.3961 26.3725 71.3975 26.4142L71.5102 34.129C71.5108 34.187 71.4737 34.2385 71.4183 34.258L26.4038 49.9471C26.3888 49.9523 26.3745 49.9542 26.3588 49.9542ZM26.495 41.6771V49.6285L71.2385 34.0346L71.1297 26.6038L26.495 41.6771Z" fill="#FF7D01"/>
<path d="M49.7688 27.9464C49.8567 27.5789 50.1616 27.3333 50.4555 27.386L50.4568 27.3847L50.4763 27.3886L50.4815 27.3899C50.4815 27.3912 50.4815 27.3912 50.4815 27.3912L50.8875 27.4082L50.6744 28.8474L50.1792 28.7725C50.1695 28.7699 50.161 28.7686 50.1506 28.766C50.131 28.7621 50.1121 28.7523 50.0932 28.7451L50.0672 28.738L50.0678 28.7354C49.8183 28.62 49.686 28.2891 49.7688 27.9464Z" fill="#B77C48"/>
<path d="M50.6749 28.9803C50.6677 28.9803 50.6612 28.9803 50.6554 28.979L50.1602 28.9034C50.1563 28.9027 50.1224 28.8975 50.1191 28.8962C50.0976 28.891 50.0768 28.8825 50.0553 28.8728C50.0416 28.8688 50.0266 28.8623 50.0129 28.8532L50.0116 28.8558C49.6976 28.7112 49.5412 28.315 49.6377 27.9143C49.74 27.4895 50.0996 27.1924 50.4651 27.2491C50.4729 27.2491 50.4801 27.2504 50.4873 27.253L50.8945 27.2713C50.9322 27.2739 50.9668 27.2921 50.9915 27.3201C51.0163 27.3501 51.028 27.3886 51.0215 27.4263L50.8078 28.8656C50.8026 28.9008 50.7837 28.934 50.755 28.9548C50.7316 28.9711 50.7029 28.9803 50.6749 28.9803ZM50.1302 28.6134C50.1374 28.6141 50.1439 28.6167 50.1439 28.618L50.1849 28.6343L50.5609 28.691L50.7322 27.5345L50.4768 27.5234C50.4723 27.5234 50.4573 27.5208 50.4436 27.5182C50.4397 27.5182 50.4358 27.5169 50.4319 27.5169C50.2012 27.4739 49.9706 27.6824 49.9002 27.9762C49.8351 28.2473 49.9315 28.5203 50.1244 28.6108C50.1244 28.6108 50.1283 28.6128 50.1302 28.6134Z" fill="#5B3512"/>
<path d="M50.1225 27.5965C50.0671 27.5913 50.0111 27.59 49.9551 27.5881C50.0912 27.4336 50.2763 27.3535 50.4574 27.3861L50.4587 27.3848L50.4783 27.3887L50.4835 27.39C50.4835 27.3913 50.4835 27.3913 50.4835 27.3913L50.8894 27.4082L50.8509 27.665C50.6099 27.6337 50.3669 27.6135 50.1225 27.5965Z" fill="#B77C48"/>
<path d="M49.75 28.293C50.0745 28.3425 50.4054 28.3614 50.7312 28.407L50.6661 28.8435L50.1709 28.7686C50.1611 28.766 50.1527 28.7647 50.1422 28.7621C50.1227 28.7582 50.1038 28.7484 50.0849 28.7412L50.0588 28.7341L50.0595 28.7315C49.8979 28.6572 49.7871 28.4917 49.75 28.293Z" fill="#B77C48"/>
<path d="M50.2322 27.9909C50.1384 28.3825 50.315 28.7584 50.6244 28.834C50.9365 28.9089 51.2643 28.6529 51.3574 28.262C51.4525 27.8704 51.2753 27.4931 50.9652 27.4189C50.6551 27.3452 50.3267 27.6013 50.2322 27.9909Z" fill="#EAC496"/>
<path d="M50.7329 28.9827C50.6853 28.9827 50.6377 28.9768 50.5915 28.9658C50.209 28.8745 49.9881 28.423 50.0989 27.9611C50.2077 27.507 50.6149 27.1968 50.9948 27.29C51.1863 27.3356 51.342 27.4698 51.4339 27.6666C51.5212 27.8536 51.5395 28.0764 51.4873 28.296C51.3916 28.6928 51.0743 28.9827 50.7329 28.9827ZM50.8534 27.5428C50.6351 27.5428 50.4286 27.7454 50.3621 28.0236C50.2852 28.3409 50.4175 28.6459 50.654 28.7038C50.6794 28.7104 50.7061 28.713 50.7322 28.713C50.9505 28.713 51.157 28.511 51.2248 28.2315C51.2632 28.0725 51.2495 27.9122 51.1883 27.7813C51.1316 27.6601 51.041 27.5786 50.9309 27.5526C50.9062 27.5448 50.8801 27.5428 50.8534 27.5428Z" fill="#5B3512"/>
<path d="M50.6365 27.8522C50.5935 28.0307 50.6749 28.2047 50.8176 28.2399C50.961 28.2744 51.1121 28.1558 51.1558 27.9766C51.1981 27.7968 51.118 27.6228 50.9753 27.5877C50.832 27.5544 50.6808 27.6717 50.6365 27.8522Z" fill="#EAC496"/>
<path d="M50.2497 27.8996C50.4185 27.3699 50.8876 27.0454 51.3117 27.1536L51.3131 27.1523L51.3417 27.1614C51.345 27.1614 51.3469 27.1627 51.3469 27.1627L51.3508 27.164L51.9392 27.2317L51.4759 29.3101L50.7625 29.146C50.7488 29.1434 50.7345 29.1407 50.7208 29.1368C50.6921 29.1251 50.6667 29.1108 50.6394 29.0971L50.6029 29.0834V29.0808C50.2517 28.8879 50.0934 28.3908 50.2497 27.8996Z" fill="#B77C48"/>
<path d="M51.4747 29.4462C51.4649 29.4462 51.4551 29.4449 51.4454 29.4423L50.7313 29.2794C50.7169 29.2768 50.6987 29.2716 50.6811 29.2671C50.6498 29.2566 50.6244 29.2449 50.5984 29.2306L50.5515 29.2097C50.5378 29.2052 50.5254 29.1973 50.515 29.1889C50.1143 28.9524 49.9488 28.3979 50.1195 27.8597C50.3045 27.2792 50.846 26.9033 51.3327 27.0219C51.3385 27.0219 51.3437 27.0232 51.3483 27.0245C51.3483 27.0245 51.3743 27.0316 51.3828 27.0329L51.9536 27.1C51.9914 27.1053 52.0252 27.1235 52.048 27.1554C52.0695 27.1867 52.0787 27.2258 52.0695 27.2629L51.6069 29.3413C51.5985 29.3759 51.577 29.4058 51.5477 29.4254C51.5255 29.4384 51.5007 29.4462 51.4747 29.4462ZM50.674 28.968L50.6889 28.9745C50.6922 28.9771 50.7196 28.9889 50.7235 28.9915C50.7365 28.998 50.7489 29.0045 50.7619 29.0097L51.373 29.1478L51.7744 27.3496L51.3346 27.2975C51.3216 27.2962 51.3085 27.2942 51.2962 27.289C51.2897 27.2877 51.2844 27.2864 51.2779 27.2838C50.9254 27.1958 50.5215 27.4897 50.3781 27.9405C50.2446 28.3595 50.369 28.798 50.6681 28.9634C50.6694 28.9654 50.6713 28.9667 50.674 28.968Z" fill="#5B3512"/>
<path d="M50.8036 27.4238C50.7221 27.4114 50.642 27.403 50.5605 27.3945C50.7749 27.1847 51.0531 27.087 51.3144 27.1534L51.3157 27.1521L51.3443 27.1613C51.3476 27.1613 51.3496 27.1626 51.3496 27.1626L51.3535 27.1639L51.9418 27.2316L51.8591 27.603C51.5098 27.53 51.158 27.4746 50.8036 27.4238Z" fill="#B77C48"/>
<path d="M50.1914 28.4102C50.6586 28.5151 51.1407 28.5782 51.6105 28.6792L51.4691 29.3119L50.7556 29.1477C50.742 29.1451 50.7276 29.1425 50.7139 29.1386C50.6853 29.1268 50.6599 29.1125 50.6325 29.0988L50.596 29.0851V29.0825C50.3699 28.9574 50.2253 28.7053 50.1914 28.4102Z" fill="#B77C48"/>
<path d="M50.9199 28.0236C50.7414 28.5827 50.9584 29.1521 51.404 29.2948C51.8497 29.4362 52.3553 29.0974 52.5331 28.5371C52.7116 27.978 52.4947 27.4079 52.049 27.2672C51.604 27.1239 51.0978 27.4633 50.9199 28.0236Z" fill="#EAC496"/>
<path d="M51.6108 29.4626C51.5261 29.4626 51.442 29.4489 51.3613 29.4241C50.8459 29.2586 50.5885 28.6136 50.7886 27.9823C50.9866 27.364 51.5815 26.9776 52.0897 27.1379C52.3451 27.2193 52.5444 27.42 52.6506 27.6969C52.7529 27.966 52.7562 28.28 52.6611 28.5778C52.4956 29.1003 52.0636 29.4626 51.6108 29.4626ZM51.8395 27.3705C51.5033 27.3705 51.1775 27.6558 51.0472 28.065C50.8915 28.5524 51.0694 29.0475 51.4434 29.1668C51.8141 29.2853 52.2513 28.9765 52.4037 28.4976C52.4812 28.2559 52.4786 28.0064 52.3985 27.7953C52.3223 27.5939 52.1835 27.4526 52.0069 27.3972C51.9535 27.3796 51.8968 27.3705 51.8395 27.3705Z" fill="#5B3512"/>
<path d="M51.531 27.863C51.4482 28.121 51.5486 28.3842 51.7551 28.448C51.9597 28.5138 52.1929 28.3575 52.2744 28.1014C52.3565 27.8434 52.2568 27.5802 52.0509 27.515C51.8463 27.4492 51.6131 27.6056 51.531 27.863Z" fill="#EAC496"/>
<path d="M49.7688 34.9321C49.8567 34.562 50.1616 34.3177 50.4555 34.3704H50.4568L50.4763 34.3743C50.4763 34.3743 50.4802 34.3743 50.4815 34.3756H50.4828L50.8875 34.3926L50.6744 35.8318L50.1792 35.7569C50.1695 35.7543 50.161 35.7543 50.1506 35.7517C50.131 35.7484 50.1121 35.7387 50.0932 35.7308L50.0672 35.7224L50.0678 35.7198C49.8183 35.6045 49.686 35.2741 49.7688 34.9321Z" fill="#B77C48"/>
<path d="M50.6749 35.9733C50.6677 35.9733 50.6612 35.9733 50.6554 35.9707L50.1602 35.8957C50.1563 35.8944 50.1224 35.8892 50.1191 35.8879C50.0989 35.8827 50.0768 35.8755 50.0553 35.8645C50.0416 35.8606 50.0266 35.8547 50.0129 35.8462L50.0116 35.8475C49.6976 35.7029 49.5412 35.308 49.6377 34.906C49.74 34.4799 50.1009 34.1841 50.4684 34.2415C50.4736 34.2415 50.4794 34.2428 50.4846 34.2441L50.8938 34.2636C50.9316 34.2649 50.9661 34.2832 50.9909 34.3132C51.0157 34.3412 51.0274 34.3796 51.0209 34.4174L50.8072 35.8579C50.802 35.8931 50.7831 35.9244 50.7544 35.9459C50.7316 35.9635 50.7029 35.9733 50.6749 35.9733ZM50.1302 35.6058C50.1374 35.6084 50.1439 35.6104 50.1439 35.6104L50.183 35.6253L50.5615 35.6846L50.7329 34.5268L50.4775 34.5158C50.4729 34.5158 50.4553 34.5132 50.4423 34.5106C50.439 34.5106 50.4351 34.5093 50.4325 34.5093C50.2019 34.4676 49.9712 34.6748 49.9009 34.9686C49.8357 35.2409 49.9321 35.5139 50.125 35.6032C50.1263 35.6045 50.1283 35.6045 50.1302 35.6058Z" fill="#5B3512"/>
<path d="M50.1225 34.5808C50.0671 34.5769 50.0111 34.575 49.9551 34.5737C50.0912 34.4192 50.2763 34.3378 50.4574 34.3704H50.4587L50.4783 34.3743C50.4783 34.3743 50.4822 34.3743 50.4835 34.3756H50.4848L50.8894 34.3925L50.8509 34.6505C50.6099 34.618 50.3669 34.5984 50.1225 34.5808Z" fill="#B77C48"/>
<path d="M49.75 35.2891C50.0745 35.3386 50.4054 35.3568 50.7312 35.4031L50.6661 35.8396L50.1709 35.7647C50.1611 35.7621 50.1527 35.7621 50.1422 35.7595C50.1227 35.7562 50.1038 35.7464 50.0849 35.7386L50.0588 35.7302L50.0595 35.7276C49.8979 35.6526 49.7871 35.4884 49.75 35.2891Z" fill="#B77C48"/>
<path d="M50.2322 34.9833C50.1384 35.3735 50.315 35.7508 50.6244 35.8264C50.9365 35.9 51.2643 35.6452 51.3574 35.255C51.4525 34.8634 51.2753 34.4855 50.9652 34.4119C50.6551 34.3356 50.3267 34.5917 50.2322 34.9833Z" fill="#EAC496"/>
<path d="M50.7329 35.9713C50.6859 35.9713 50.6377 35.9661 50.5915 35.955C50.209 35.8625 49.9881 35.4109 50.0989 34.949C50.2077 34.4949 50.6149 34.1861 50.9948 34.2779C51.1863 34.3235 51.342 34.4577 51.4339 34.6545C51.5212 34.8421 51.5395 35.0656 51.4873 35.2839C51.3916 35.6813 51.0743 35.9713 50.7329 35.9713ZM50.8534 34.532C50.6351 34.532 50.4286 34.7333 50.3621 35.0129C50.2852 35.3302 50.4162 35.6338 50.654 35.6918C50.8912 35.7484 51.1492 35.5328 51.2248 35.22C51.2632 35.0598 51.2495 34.9008 51.1883 34.7685C51.1316 34.6473 51.041 34.5659 50.9309 34.5398C50.9062 34.534 50.8801 34.532 50.8534 34.532Z" fill="#5B3512"/>
<path d="M50.6365 34.8431C50.5935 35.0229 50.6749 35.1963 50.8176 35.2308C50.961 35.2666 51.1121 35.148 51.1558 34.9682C51.1981 34.789 51.118 34.6138 50.9753 34.5799C50.832 34.5467 50.6808 34.6626 50.6365 34.8431Z" fill="#EAC496"/>
<path d="M50.2497 34.8922C50.4185 34.3625 50.8876 34.038 51.3117 34.1455H51.3131L51.3417 34.1527C51.345 34.154 51.3469 34.1553 51.3469 34.1553H51.3508L51.9392 34.2244L51.4759 36.3015L50.7625 36.1386C50.7488 36.1347 50.7345 36.1321 50.7208 36.1269C50.6921 36.1184 50.6667 36.1034 50.6394 36.0897L50.6029 36.0747V36.0734C50.2517 35.8786 50.0934 35.3834 50.2497 34.8922Z" fill="#B77C48"/>
<path d="M51.4747 36.4376C51.465 36.4376 51.4552 36.4363 51.4454 36.4337L50.7313 36.2721C50.7085 36.2656 50.6929 36.2624 50.6772 36.2571C50.6492 36.248 50.6225 36.235 50.5958 36.2213L50.5541 36.2037C50.5385 36.1979 50.5254 36.1907 50.5131 36.1809C50.1143 35.9424 49.9488 35.3893 50.1195 34.8511C50.3046 34.2719 50.846 33.8973 51.3327 34.0132C51.3379 34.0132 51.3438 34.0145 51.3483 34.0172C51.3483 34.0172 51.3737 34.0237 51.3829 34.0256L51.9536 34.0914C51.9914 34.0953 52.0253 34.1162 52.0481 34.1475C52.0696 34.1781 52.0787 34.2172 52.0696 34.2556L51.607 36.3327C51.5985 36.3679 51.577 36.3985 51.5477 36.4168C51.5255 36.4311 51.5008 36.4376 51.4747 36.4376ZM50.6727 35.9613L50.6864 35.9653C50.6909 35.9679 50.717 35.9796 50.7215 35.9822C50.7346 35.99 50.747 35.9972 50.7606 36.0004L51.3724 36.1418L51.7738 34.3416L51.334 34.2908C51.321 34.2901 51.3079 34.2862 51.2955 34.281C51.289 34.2797 51.2838 34.2784 51.2786 34.2771C50.9229 34.1872 50.5209 34.483 50.3775 34.9339C50.244 35.3528 50.3684 35.7919 50.6675 35.9561C50.6694 35.9574 50.6714 35.9587 50.6727 35.9613Z" fill="#5B3512"/>
<path d="M50.8036 34.4169C50.7221 34.4045 50.642 34.3947 50.5605 34.3862C50.7749 34.1778 51.0531 34.0787 51.3144 34.1458H51.3157L51.3443 34.153C51.3476 34.1543 51.3496 34.1556 51.3496 34.1556H51.3535L51.9418 34.2247L51.8591 34.596C51.5098 34.5231 51.158 34.4677 50.8036 34.4169Z" fill="#B77C48"/>
<path d="M50.1914 35.4023C50.6586 35.5085 51.1407 35.5717 51.6105 35.6714L51.4691 36.3041L50.7556 36.1412C50.742 36.1373 50.7276 36.1347 50.7139 36.1295C50.6853 36.121 50.6599 36.106 50.6325 36.0923L50.596 36.0773V36.076C50.3699 35.9496 50.2253 35.6988 50.1914 35.4023Z" fill="#B77C48"/>
<path d="M50.9199 35.0114C50.7414 35.5704 50.9584 36.1405 51.404 36.2832C51.8497 36.424 52.3553 36.0851 52.5331 35.5261C52.7116 34.9665 52.4947 34.397 52.049 34.255C51.604 34.1129 51.0978 34.4524 50.9199 35.0114Z" fill="#EAC496"/>
<path d="M51.6108 36.4539C51.5261 36.4539 51.442 36.4422 51.3613 36.4154C50.8459 36.2513 50.5885 35.6049 50.7886 34.9736C50.9866 34.3566 51.5815 33.9689 52.0897 34.1305C52.3451 34.2119 52.5444 34.4113 52.6506 34.6895C52.7529 34.9586 52.7562 35.2713 52.6611 35.571C52.4956 36.091 52.0636 36.4539 51.6108 36.4539ZM51.8395 34.3631C51.5033 34.3631 51.1775 34.6485 51.0472 35.0563C50.8915 35.5456 51.0694 36.0395 51.4434 36.1574C51.8141 36.276 52.2513 35.9672 52.4037 35.4883C52.4812 35.2479 52.4786 34.997 52.3985 34.7859C52.3223 34.5846 52.1835 34.4439 52.0069 34.3879C51.9535 34.3716 51.8968 34.3631 51.8395 34.3631Z" fill="#5B3512"/>
<path d="M51.531 34.8473C51.4482 35.1066 51.5486 35.3685 51.7551 35.4337C51.9597 35.4982 52.1929 35.3431 52.2744 35.0858C52.3565 34.8278 52.2568 34.5658 52.0509 34.4994C51.8463 34.4336 51.6131 34.5906 51.531 34.8473Z" fill="#EAC496"/>
<path d="M49.7688 42.83C49.8567 42.4612 50.1616 42.2156 50.4555 42.269H50.4568L50.4763 42.2729L50.4815 42.2736H50.4828L50.8875 42.2912L50.6744 43.7304L50.1792 43.6548C50.1695 43.6535 50.161 43.6522 50.1506 43.6503C50.131 43.6451 50.1121 43.6353 50.0932 43.6294L50.0672 43.6216L50.0678 43.6177C49.8183 43.503 49.686 43.1734 49.7688 42.83Z" fill="#B77C48"/>
<path d="M50.6749 43.8638C50.6677 43.8638 50.6612 43.8638 50.6554 43.8625L50.1602 43.7863C50.1602 43.7863 50.1257 43.7811 50.123 43.7798C50.097 43.7733 50.0761 43.7661 50.0553 43.7563C50.0416 43.7524 50.0266 43.7453 50.0129 43.7368L50.0116 43.7394C49.6976 43.5947 49.5412 43.1986 49.6377 42.7966C49.74 42.3731 50.1015 42.0747 50.4651 42.1321C50.4716 42.1321 50.4788 42.1334 50.4853 42.1347C50.4964 42.1347 50.5075 42.136 50.5179 42.1386L50.8945 42.1542C50.9316 42.1555 50.9668 42.1737 50.9915 42.2037C51.0163 42.233 51.028 42.2715 51.0215 42.3099L50.8078 43.7492C50.8026 43.7837 50.7837 43.8156 50.755 43.8378C50.7316 43.8554 50.7029 43.8638 50.6749 43.8638ZM50.1797 43.5159L50.5609 43.5752L50.7322 42.4174L50.4768 42.4077C50.4658 42.4064 50.4553 42.405 50.4449 42.4024C50.4403 42.4011 50.4358 42.4011 50.4319 42.3998C50.2012 42.3575 49.9706 42.5666 49.9002 42.8592C49.8351 43.1322 49.9315 43.4045 50.1244 43.4951C50.1244 43.4951 50.1283 43.4964 50.1302 43.4977C50.1374 43.499 50.1439 43.5003 50.1439 43.5016L50.1446 43.5061C50.1569 43.514 50.1667 43.5237 50.1758 43.5348L50.1797 43.5159Z" fill="#5B3512"/>
<path d="M50.1225 42.4791C50.0671 42.4752 50.0111 42.4726 49.9551 42.4713C50.0912 42.3169 50.2763 42.2354 50.4574 42.2693H50.4587L50.4783 42.2732L50.4835 42.2739H50.4848L50.8894 42.2915L50.8509 42.5495C50.6099 42.5156 50.3669 42.4961 50.1225 42.4791Z" fill="#B77C48"/>
<path d="M49.75 43.1797C50.0745 43.2292 50.4054 43.2475 50.7312 43.2937L50.6661 43.7309L50.1709 43.6553C50.1611 43.654 50.1527 43.6527 50.1422 43.6508C50.1227 43.6456 50.1038 43.6358 50.0849 43.6299L50.0588 43.6221L50.0595 43.6182C49.8979 43.5439 49.7871 43.3797 49.75 43.1797Z" fill="#B77C48"/>
<path d="M50.2322 42.8776C50.1384 43.2679 50.315 43.6458 50.6244 43.7207C50.9365 43.7943 51.2643 43.5396 51.3574 43.1493C51.4525 42.7577 51.2753 42.3811 50.9652 42.3062C50.6551 42.2306 50.3267 42.486 50.2322 42.8776Z" fill="#EAC496"/>
<path d="M50.7329 43.8665C50.6859 43.8665 50.6377 43.86 50.5915 43.8495C50.209 43.7577 49.9881 43.3062 50.0989 42.8449C50.2077 42.3908 50.6149 42.0819 50.9948 42.1718C51.1863 42.2174 51.342 42.3517 51.4339 42.5497C51.5212 42.7361 51.5395 42.9595 51.4873 43.1778C51.3916 43.5765 51.0743 43.8665 50.7329 43.8665ZM50.8534 42.4259C50.6351 42.4259 50.4286 42.6286 50.3621 42.9061C50.2852 43.2241 50.4162 43.529 50.654 43.5857C50.8899 43.6443 51.1492 43.4267 51.2248 43.114C51.2632 42.955 51.2495 42.7947 51.1883 42.6624C51.1316 42.5413 51.041 42.4598 50.9309 42.4351C50.9062 42.4298 50.8801 42.4259 50.8534 42.4259Z" fill="#5B3512"/>
<path d="M50.6365 42.7372C50.5935 42.917 50.6749 43.0916 50.8176 43.1248C50.961 43.1607 51.1121 43.0421 51.1558 42.8636C51.1981 42.6844 51.118 42.5091 50.9753 42.4746C50.832 42.4407 50.6808 42.5574 50.6365 42.7372Z" fill="#EAC496"/>
<path d="M50.2497 42.7891C50.4185 42.2594 50.8876 41.9356 51.3117 42.0444L51.3131 42.0431L51.3417 42.0516C51.345 42.0516 51.3469 42.0529 51.3469 42.0529C51.3502 42.0542 51.3502 42.0542 51.3502 42.0542L51.9392 42.122L51.4759 44.1997L50.7625 44.0368C50.7488 44.0329 50.7345 44.0303 50.7208 44.0264C50.6921 44.0166 50.6667 44.0023 50.6394 43.988L50.6029 43.9736V43.9723C50.2517 43.7769 50.0934 43.2811 50.2497 42.7891Z" fill="#B77C48"/>
<path d="M51.4747 44.3338C51.4649 44.3338 51.4551 44.3326 51.4454 44.3306L50.7313 44.1671C50.7085 44.1625 50.6928 44.1586 50.6772 44.1534C50.6498 44.1436 50.6244 44.1312 50.5984 44.1176L50.5521 44.0993C50.5384 44.0928 50.5254 44.0856 50.515 44.0758C50.1143 43.8387 49.9488 43.2855 50.1195 42.7473C50.3045 42.1662 50.846 41.7909 51.3327 41.9082C51.3385 41.9082 51.3437 41.9095 51.3483 41.9121C51.3483 41.9121 51.3743 41.9199 51.3828 41.9212L51.9536 41.9864C51.9914 41.9916 52.0252 42.0111 52.048 42.0437C52.0695 42.0743 52.0787 42.1121 52.0695 42.1499L51.6069 44.2276C51.5985 44.2628 51.577 44.2935 51.5477 44.313C51.5255 44.3273 51.5007 44.3338 51.4747 44.3338ZM50.6726 43.8569L50.6876 43.8615C50.6915 43.8641 50.7189 43.8765 50.7235 43.8784C50.7365 43.8863 50.7489 43.8921 50.7619 43.8973L51.373 44.0367L51.7744 42.2379L51.3346 42.1864C51.3216 42.1851 51.3085 42.1812 51.2962 42.176C51.2897 42.176 51.2844 42.1747 51.2779 42.172C50.9254 42.0847 50.5215 42.3779 50.3781 42.8288C50.2446 43.2477 50.369 43.6869 50.6681 43.8524C50.6681 43.8524 50.67 43.8543 50.6726 43.8569Z" fill="#5B3512"/>
<path d="M50.8036 42.3153C50.7221 42.3023 50.642 42.2945 50.5605 42.284C50.7749 42.0755 51.0531 41.9765 51.3144 42.0449L51.3157 42.0436L51.3443 42.0521C51.3476 42.0521 51.3496 42.0534 51.3496 42.0534C51.3528 42.0547 51.3528 42.0547 51.3528 42.0547L51.9418 42.1224L51.8591 42.4951C51.5098 42.4196 51.158 42.3655 50.8036 42.3153Z" fill="#B77C48"/>
<path d="M50.1914 43.293C50.6586 43.3992 51.1407 43.4624 51.6105 43.5621L51.4691 44.1941L50.7556 44.0312C50.742 44.0273 50.7276 44.0246 50.7139 44.0207C50.6853 44.011 50.6599 43.9966 50.6325 43.9823L50.596 43.968V43.9667C50.3699 43.839 50.2253 43.5888 50.1914 43.293Z" fill="#B77C48"/>
<path d="M50.9199 42.9097C50.7414 43.4694 50.9584 44.0388 51.404 44.1809C51.8497 44.3229 52.3553 43.9828 52.5331 43.4244C52.7116 42.8641 52.4947 42.2947 52.049 42.1539C51.604 42.0106 51.0978 42.35 50.9199 42.9097Z" fill="#EAC496"/>
<path d="M51.6108 44.3493C51.5261 44.3493 51.442 44.3356 51.3613 44.3102C50.8459 44.146 50.5885 43.5003 50.7886 42.8696C50.9866 42.2513 51.5815 41.863 52.0897 42.0252C52.3451 42.1067 52.5444 42.3054 52.6506 42.5836C52.7529 42.8527 52.7562 43.1654 52.6611 43.4658C52.4956 43.9844 52.0636 44.3493 51.6108 44.3493ZM51.8395 42.2565C51.5033 42.2565 51.1775 42.5419 51.0472 42.9504C50.8922 43.4391 51.0694 43.933 51.4434 44.0522C51.8141 44.1695 52.2513 43.8606 52.4037 43.3837C52.4812 43.1413 52.4786 42.8905 52.3985 42.68C52.3223 42.4787 52.1835 42.338 52.0069 42.2826C51.9535 42.265 51.8968 42.2565 51.8395 42.2565Z" fill="#5B3512"/>
<path d="M51.531 42.7456C51.4482 43.0043 51.5486 43.2655 51.7551 43.3307C51.9597 43.3965 52.1929 43.2401 52.2744 42.9827C52.3565 42.7247 52.2568 42.4628 52.0509 42.3977C51.8463 42.3325 51.6131 42.4876 51.531 42.7456Z" fill="#EAC496"/>
<path d="M17.9341 19.5723C16.9001 19.0328 15.2869 18.6836 13.473 18.6836C11.6598 18.6836 10.0473 19.0328 9.01327 19.5723H7.82227C7.82227 19.5723 7.82227 20.9457 7.82227 20.9842C7.82227 22.2547 10.3522 23.2841 13.473 23.2841C16.5945 23.2841 19.1251 22.2547 19.1251 20.9842V19.5723H17.9341Z" fill="#333333"/>
<path d="M13.4725 23.4197C10.2278 23.4197 7.68555 22.3493 7.68555 20.9843V19.5724C7.68555 19.4975 7.74679 19.4382 7.82172 19.4382H8.97949C10.0793 18.8726 11.7133 18.5508 13.4725 18.5508C15.2316 18.5508 16.8663 18.8726 17.9655 19.4382H19.1239C19.1982 19.4382 19.2588 19.4975 19.2588 19.5724V20.9843C19.2594 22.3493 16.7171 23.4197 13.4725 23.4197ZM7.95593 19.7079V20.9843C7.95593 22.157 10.4826 23.1493 13.4725 23.1493C16.4637 23.1493 18.989 22.157 18.989 20.9843V19.7079H17.9335C17.912 19.7079 17.8905 19.7033 17.8703 19.6916C16.8077 19.1378 15.2056 18.8192 13.4725 18.8192C11.7407 18.8192 10.1373 19.1372 9.07462 19.6916C9.05637 19.7033 9.03488 19.7079 9.01272 19.7079H7.95593Z" fill="#333333"/>
<path d="M9.31232 19.4336C9.21003 19.4792 9.10905 19.5261 9.01718 19.5743H7.82617C7.82617 19.5743 7.82617 20.9478 7.82617 20.9862C7.82617 21.585 8.3891 22.131 9.31232 22.5408V19.4336Z" fill="#333333"/>
<path d="M11.4958 18.8359C11.3251 18.862 11.1551 18.89 10.9922 18.9226V23.0501C11.1551 23.082 11.3258 23.1107 11.4958 23.1367V18.8359Z" fill="#333333"/>
<path d="M17.9392 19.5709C17.3483 19.262 16.569 19.0177 15.6719 18.8633V23.1022C17.704 22.7543 19.1309 21.9359 19.1309 20.9827V19.5709H17.9392Z" fill="#333333"/>
<path d="M19.1251 19.5727C19.1251 20.8426 16.5945 21.8733 13.473 21.8733C10.3522 21.8733 7.82227 20.8426 7.82227 19.5727C7.82227 18.3029 10.3522 17.2734 13.473 17.2734C16.5945 17.2734 19.1251 18.3029 19.1251 19.5727Z" fill="#FF7D01"/>
<path d="M13.4725 22.0063C10.2278 22.0063 7.68555 20.9358 7.68555 19.5709C7.68555 18.2052 10.2272 17.1367 13.4725 17.1367C16.7171 17.1367 19.2594 18.2059 19.2594 19.5709C19.2594 20.9358 16.7171 22.0063 13.4725 22.0063ZM13.4725 17.4065C10.4826 17.4065 7.95593 18.3974 7.95593 19.5702C7.95593 20.7443 10.4826 21.7353 13.4725 21.7353C16.4637 21.7353 18.989 20.7443 18.989 19.5702C18.989 18.3981 16.4637 17.4065 13.4725 17.4065Z" fill="#333333"/>
<path d="M14.9723 19.5805C14.9723 19.9161 14.3032 20.1891 13.477 20.1891C12.6509 20.1891 11.9824 19.9161 11.9824 19.5805C11.9824 19.2443 12.6509 18.9727 13.477 18.9727C14.3025 18.9733 14.9723 19.2443 14.9723 19.5805Z" fill="#FF7D01"/>
<path d="M12.9668 6.91406V19.5741C12.9668 19.5963 12.9701 19.6158 12.9714 19.6373C12.9759 19.6399 12.9792 19.6425 12.9831 19.6451C13.116 19.7214 13.2756 19.735 13.4274 19.7311C13.604 19.7285 13.8027 19.72 13.9682 19.6471C13.9721 19.6243 13.976 19.5995 13.976 19.5748V6.91472H12.9668V6.91406Z" fill="#FF7D01"/>
<path d="M13.4047 19.8641C13.2659 19.8641 13.0861 19.8511 12.9232 19.7592C12.8848 19.7384 12.8522 19.6934 12.847 19.6504C12.8418 19.6146 12.8398 19.5938 12.8398 19.5716V6.91156C12.8398 6.83793 12.8998 6.77734 12.9754 6.77734H13.9839C14.0576 6.77734 14.1188 6.83793 14.1188 6.91156V19.5716C14.1188 19.6022 14.1142 19.6309 14.1103 19.6596C14.1032 19.7052 14.0719 19.7495 14.0302 19.7677C13.8406 19.8518 13.6243 19.8609 13.4366 19.8641C13.436 19.8641 13.406 19.8641 13.4047 19.8641ZM13.1089 19.5462C13.2112 19.5879 13.3174 19.5931 13.4041 19.5931V19.7273L13.4321 19.5931C13.567 19.5918 13.7188 19.5853 13.8478 19.5462V7.04708H13.1089V19.5462Z" fill="#333333"/>
<path d="M13.2266 6.91406V15.9809C13.2266 16.235 13.3386 16.4422 13.4761 16.4422C13.6142 16.4422 13.7263 16.235 13.7263 15.9809V6.91406H13.2266Z" fill="#FF7D01"/>
<path d="M21.5487 13.8158L19.3491 0.917969H7.60781L5.40432 13.8341C5.38738 13.8881 5.37695 13.9435 5.37695 14.0009C5.37695 15.1971 9.00339 16.1653 13.4781 16.1653C17.9529 16.1653 21.58 15.1971 21.58 14.0009C21.5793 13.9396 21.5669 13.8764 21.5487 13.8158Z" fill="#FF7D01"/>
<path d="M13.4854 16.2983C9.43676 16.2983 5.25 15.4383 5.25 13.999C5.25 13.9345 5.25978 13.868 5.28128 13.7944L7.48151 0.893969C7.49324 0.828163 7.54927 0.78125 7.61507 0.78125H19.3564C19.4228 0.78125 19.4789 0.828163 19.4893 0.893969L21.6882 13.7918C21.7091 13.8537 21.7227 13.9273 21.7227 13.999C21.7221 15.4383 17.534 16.2983 13.4854 16.2983ZM7.72844 1.05099L5.54384 13.8537C5.52625 13.9182 5.51843 13.9606 5.51843 13.9984C5.51843 14.9783 8.72072 16.0272 13.4854 16.0272C18.2514 16.0272 21.4524 14.9783 21.4524 13.9984C21.4524 13.9554 21.4432 13.9078 21.4263 13.855L19.2424 1.05099H7.72844Z" fill="#333333"/>
<path d="M9.58326 0.917969H7.60586L5.40236 13.8341C5.38542 13.8881 5.375 13.9435 5.375 14.0009C5.375 14.4993 6.01025 14.9612 7.0742 15.3261C7.29377 13.4868 8.98646 3.88312 9.58326 0.917969Z" fill="#FF7D01"/>
<path d="M12.3674 0.917969H11.68C11.1392 3.94436 9.85634 13.9292 9.56055 15.8929C10.0713 15.9679 10.6206 16.0258 11.1907 16.0721C11.4259 13.9839 12.2651 3.88964 12.3674 0.917969Z" fill="#FF7D01"/>
<path d="M21.5515 13.8158L19.3519 0.917969H16.291C16.4226 3.73327 17.0839 13.7402 17.1321 15.9327C19.7715 15.5756 21.5828 14.8453 21.5828 14.0009C21.5821 13.9396 21.5697 13.8764 21.5515 13.8158Z" fill="#FF7D01"/>
<path d="M19.3585 0.921825C19.3585 1.3551 16.7308 1.70627 13.4875 1.70627C10.2455 1.70627 7.61719 1.3551 7.61719 0.921825C7.61719 0.488552 10.2455 0.13672 13.4875 0.13672C16.7302 0.136068 19.3585 0.4879 19.3585 0.921825Z" fill="#FF7D01"/>
<path d="M13.4785 1.83929C13.2342 1.83929 7.47266 1.82887 7.47266 0.919974C7.47266 0.0110778 13.2342 0 13.4785 0C13.7241 0 19.485 0.0110778 19.485 0.919974C19.485 1.82887 13.7241 1.83929 13.4785 1.83929ZM13.4785 0.269738C9.96412 0.269738 7.85641 0.658703 7.74174 0.926486C7.85641 1.17993 9.96412 1.56825 13.4785 1.56825C16.9929 1.56825 19.1012 1.17929 19.2153 0.911504C19.1012 0.658707 16.9922 0.269738 13.4785 0.269738Z" fill="#333333"/>
<path d="M20.6756 8.71484C20.3811 9.25041 20.0378 9.75405 19.6299 10.2082C17.9887 12.041 15.8263 13.2665 13.3615 13.5616C10.0537 13.9591 7.33156 12.0898 6.17052 9.32533L5.40236 13.8333C5.38542 13.8874 5.375 13.9428 5.375 14.0001C5.375 15.1963 9.00144 16.1645 13.4762 16.1645C17.9509 16.1645 21.578 15.1963 21.578 14.0001C21.578 13.9382 21.565 13.8757 21.5467 13.8151L20.6756 8.71484Z" fill="#FF7D01"/>
</svg>
