<svg width="62" height="64" viewBox="0 0 62 64" fill="none" xmlns="http://www.w3.org/2000/svg">
<path d="M7.00032 18.3781C7.23938 17.497 8.33472 17.2982 11.8478 18.0011C10.2418 17.6249 9.75319 17.2262 9.87717 16.44C10.1186 14.9112 12.9752 15.5012 16.5968 16.0243C20.2179 16.5474 25.2877 17.4327 25.7709 17.3924C26.2537 17.3521 26.7364 16.4672 26.817 16.0646C26.8976 15.6624 25.7709 13.8112 25.0467 12.2823C24.3226 10.7534 25.0266 9.30159 25.9321 9.30469C26.6609 9.30702 27.1793 10.8336 27.5416 11.5178C27.9038 12.2021 29.7547 13.7713 31.0422 15.2599C32.3297 16.7484 33.1345 18.8411 33.6172 19.7663C34.1 20.6916 34.8513 21.8318 36.5681 22.3685C38.2849 22.9051 60.4956 29.2903 60.4956 29.2903V43.9357C60.4956 43.9357 53.6284 40.824 49.3366 38.3563C45.0448 35.8883 33.8857 30.4163 32.1689 30.4163C30.4521 30.4163 24.3362 30.4182 21.3853 29.6127C18.4345 28.8068 13.6494 26.6037 12.5332 26.071C11.4936 25.5746 12.1476 24.0337 13.3379 24.3274C13.6111 24.3948 15.4642 24.9067 15.4642 24.9067C15.4642 24.9067 11.3999 23.5219 9.55558 22.8253C8.50403 22.4281 8.27001 21.821 8.32154 21.3231C8.38237 20.7377 8.89149 20.3429 9.85896 20.554C7.36221 20.0073 6.77172 19.2189 7.00032 18.3781Z" fill="#E0855C"/>
<path d="M9.88395 16.4414C9.84676 16.6638 9.85102 16.9091 9.97035 17.1117C10.0866 17.3143 10.2788 17.4612 10.4795 17.5712C10.8878 17.7886 11.3334 17.9153 11.7759 18.0327C12.6643 18.2555 13.5555 18.4569 14.4466 18.6631L19.7969 19.8746C19.9 19.8979 20.0023 19.8332 20.0255 19.7305C20.0488 19.6274 19.9845 19.5251 19.8814 19.5019C19.8795 19.5015 19.876 19.5007 19.8741 19.5003L14.4861 18.4759C13.5892 18.3012 12.6907 18.1303 11.7984 17.9397C11.3551 17.8386 10.9095 17.7285 10.5019 17.5294C10.3012 17.4282 10.1106 17.2926 9.99089 17.1001C9.86807 16.9075 9.85412 16.6657 9.88395 16.4414Z" fill="#C96E44"/>
<path d="M7.01189 18.3789C6.93518 18.6521 6.94487 18.9624 7.09636 19.2131C7.23856 19.4665 7.46638 19.659 7.70777 19.8129C8.19596 20.1221 8.74846 20.3057 9.29865 20.465C10.4099 20.7521 11.5218 21.007 12.6331 21.2798L19.3023 22.8908C19.405 22.9156 19.5084 22.8524 19.5332 22.7498C19.558 22.6471 19.4949 22.5436 19.3922 22.5188C19.3906 22.5185 19.3883 22.5181 19.3872 22.5177L12.6757 21.0911C11.5591 20.8497 10.4347 20.6234 9.32422 20.37C8.7752 20.2278 8.22308 20.0616 7.73411 19.7714C7.49234 19.6265 7.26413 19.4444 7.11806 19.2007C6.96231 18.9601 6.94254 18.6544 7.01189 18.3789Z" fill="#C96E44"/>
<path d="M19.2286 25.9949L13.4044 24.0627L10.4911 23.096L9.7627 22.8542C9.51705 22.7787 9.28264 22.6841 9.06296 22.5559C8.84792 22.4253 8.64373 22.263 8.50812 22.0476C8.36864 21.836 8.30432 21.5753 8.3295 21.3203C8.29657 21.5741 8.35276 21.8399 8.48798 22.0603C8.61933 22.2843 8.82274 22.4567 9.03816 22.5966C9.25668 22.7337 9.49652 22.8387 9.73751 22.9213L10.4578 23.1855L13.3393 24.2425L19.105 26.3568C19.2042 26.3932 19.3138 26.3421 19.3502 26.2429C19.3867 26.1437 19.3355 26.0341 19.2367 25.9976C19.2352 25.9973 19.2336 25.9965 19.2321 25.9961L19.2286 25.9949Z" fill="#C96E44"/>
<path d="M12.0514 25.0469C11.9898 25.3177 12.0626 25.6087 12.2451 25.7985C12.5194 26.1038 17.1875 27.8582 17.5699 28.0028C21.0643 29.3251 22.2879 29.5041 23.8726 29.6955C27.283 30.0977 30.7278 29.8161 32.1079 29.9431C33.4877 30.0706 35.9495 31.2752 36.9453 31.6971C46.7176 35.7379 48.2113 37.2927 60.4986 42.9631V44.9395C47.6921 38.815 46.028 36.8956 36.6074 32.4631C35.8585 32.1136 33.4694 30.9776 32.1075 30.7459C30.667 30.5007 26.2702 30.6828 23.7881 30.3999C22.1539 30.2016 20.964 29.9958 17.3835 28.4658C16.8578 28.2399 12.5287 26.2984 12.1789 25.8547C11.9952 25.6242 11.9623 25.3072 12.0514 25.0469Z" fill="#C96E44"/>
<path d="M61.5357 28.1853V46.5052L47.3867 39.3811L48.8048 24.9531L61.5357 28.1853Z" fill="#FF7D01"/>
<path d="M47.3867 39.3811L48.8048 24.9531L52.431 25.8737L54.9188 39.3811H52.4011L61.5357 43.986V46.5052L47.3867 39.3811Z" fill="#333333"/>
<path d="M53.2299 38.8364L47.3867 39.3811L48.8048 24.9531L51.8184 25.7183L53.2299 38.8364Z" fill="#333333"/>
<path d="M16.1225 8.44072C16.9819 8.13309 17.8397 8.91109 19.2725 12.1948C18.6627 10.6624 18.7099 10.0332 19.4259 9.68562C20.8181 9.00912 21.968 11.6899 23.6105 14.9596C25.2529 18.2294 27.4265 22.8943 27.7357 23.2674C28.0449 23.6405 29.0472 23.5301 29.423 23.3662C29.7992 23.2019 30.673 21.2193 31.513 19.7505C32.353 18.2817 34.062 18.4436 34.4103 19.0837C34.7587 19.7238 33.921 20.6715 33.5668 21.3596C33.2127 22.0477 32.9845 24.4639 32.4998 26.3713C32.0151 28.2791 30.759 30.1358 30.2762 31.0614C29.7934 31.9867 29.2878 33.2548 29.8295 34.9701C30.3711 36.6853 38.1884 58.4296 38.1884 58.4296L24.0188 54.588C23.5884 49.6561 21.6945 37.3727 20.7123 35.9643C19.7305 34.5563 16.2306 29.5403 15.2039 26.6592C14.1771 23.7781 13.2472 18.5924 13.0461 17.3723C12.8586 16.2359 14.4964 15.8907 14.9365 17.0352C15.0377 17.2979 15.6773 19.1108 15.6773 19.1108C15.6773 19.1108 14.4886 14.9848 14.0051 13.0735C13.7296 11.984 14.0632 11.3792 14.5316 11.2021C15.0229 11.0165 15.6553 11.1114 16.0419 12.0231C14.9094 9.35202 15.3019 8.73441 16.1225 8.44072Z" fill="#E48D61"/>
<path d="M19.4217 9.68359C19.2179 9.78007 19.0192 9.92381 18.9211 10.1377C18.8216 10.3489 18.8107 10.5902 18.8355 10.8184C18.8909 11.278 19.042 11.7158 19.1986 12.1459C19.524 13.0021 19.8685 13.8483 20.209 14.6972L22.2757 19.7791C22.3156 19.8771 22.4272 19.924 22.5248 19.8841C22.6229 19.8442 22.6697 19.7326 22.6298 19.6349C22.6291 19.633 22.6275 19.6299 22.6267 19.628L20.3853 14.6225C20.0157 13.7867 19.6418 12.9518 19.2881 12.1106C19.1176 11.6894 18.9529 11.2609 18.8832 10.8126C18.8514 10.5898 18.8537 10.3562 18.9428 10.1478C19.0304 9.93738 19.221 9.78743 19.4217 9.68359Z" fill="#C96E44"/>
<path d="M16.1207 8.44141C15.8568 8.52936 15.591 8.67853 15.4539 8.93619C15.3167 9.19036 15.3024 9.48908 15.3253 9.7696C15.3772 10.3372 15.5539 10.8808 15.7425 11.4128C16.1529 12.4647 16.5147 13.5322 16.9034 14.5911L19.1963 20.9542C19.2319 21.0538 19.3416 21.1049 19.4412 21.0693C19.5407 21.0337 19.5919 20.924 19.5562 20.8244C19.5559 20.8229 19.5547 20.8209 19.5543 20.8194L17.0824 14.5206C16.6643 13.4737 16.2722 12.4151 15.8332 11.3787C15.631 10.856 15.4407 10.3217 15.3737 9.76495C15.3435 9.48947 15.3493 9.1981 15.4756 8.94742C15.6011 8.69325 15.8592 8.53672 16.1207 8.44141Z" fill="#C96E44"/>
<path d="M19.4238 9.68501C19.7745 9.50755 20.1902 9.60403 20.4835 9.83224C20.7888 10.0519 21.0225 10.3569 21.2359 10.6657C21.6618 11.2898 22.0016 11.9694 22.3456 12.6444L24.3348 16.746L26.3116 20.8553C26.6433 21.5399 26.9668 22.2273 27.3442 22.8945C27.4449 23.0603 27.517 23.2284 27.6863 23.4009C27.8742 23.5582 28.09 23.5872 28.2876 23.6027C28.4879 23.614 28.684 23.5923 28.8742 23.5523C29.0637 23.5132 29.2528 23.4601 29.4205 23.3648C29.0524 23.4594 28.6669 23.4594 28.3101 23.4055C28.1373 23.3706 27.9579 23.3164 27.8622 23.2129C27.7766 23.1048 27.6894 22.9185 27.6057 22.7546L26.5991 20.7146L24.589 16.6208C23.9098 15.2585 23.2104 13.9113 22.508 12.5599C22.1515 11.8877 21.773 11.2216 21.3154 10.6071C21.0852 10.3034 20.8349 10.0035 20.511 9.79078C20.3518 9.68307 20.1705 9.60635 19.9791 9.58001C19.8849 9.56335 19.7873 9.58775 19.6927 9.58969C19.6017 9.61643 19.5133 9.65401 19.4238 9.68501Z" fill="#C96E44"/>
<path d="M16.928 22.8128L14.002 13.0703L16.5603 22.9182C16.587 23.0205 16.6913 23.0817 16.7936 23.0554C16.8959 23.0286 16.9571 22.9244 16.9307 22.8221C16.9303 22.8202 16.9296 22.8179 16.9292 22.8159L16.928 22.8128Z" fill="#C96E44"/>
<path d="M29.3987 35.4689C28.1372 31.666 31.3166 30.0678 32.3879 26.1212C32.8083 24.6147 33.0803 22.3094 33.3372 21.3253L33.6069 21.3086C33.2574 22.1455 33.0792 24.3559 32.7045 26.1975C31.8862 30.4068 29.4437 32.0639 30.4735 35.1291C31.5034 38.1942 34.8603 48.1378 38.1831 58.4297L36.4647 57.9636C36.4647 57.9636 31.0129 40.3353 29.3987 35.4689Z" fill="#C96E44"/>
<path d="M20.6247 11.4184L20.3253 11.54L20.0257 11.6617C19.9076 11.7097 19.7813 11.7047 19.672 11.6578C19.5627 11.6109 19.4713 11.5226 19.4229 11.4032L19.2985 11.0968L19.1741 10.7899C19.092 10.5873 19.0986 10.3707 19.1765 10.1843C19.2539 9.99795 19.4023 9.8422 19.603 9.76044C19.8037 9.67908 20.0188 9.68721 20.2044 9.76664C20.39 9.84607 20.5457 9.99679 20.6282 10.1994L20.7526 10.5059L20.877 10.8128C20.9254 10.9321 20.9215 11.0596 20.8758 11.1688C20.8301 11.2789 20.7425 11.3703 20.6247 11.4184Z" fill="#FDCD95"/>
<path d="M17.1716 10.3012L16.8721 10.4228L16.5726 10.5445C16.4544 10.5925 16.3281 10.5875 16.2189 10.5406C16.1096 10.4937 16.0182 10.4054 15.9697 10.2861L15.8454 9.97959L15.721 9.67271C15.6389 9.47008 15.6454 9.25349 15.7233 9.06713C15.8008 8.88076 15.9492 8.72501 16.1499 8.64326C16.3506 8.56189 16.5656 8.57002 16.7512 8.64945C16.9368 8.72888 17.0926 8.8796 17.1751 9.08224L17.2995 9.38872L17.4239 9.69519C17.4723 9.81453 17.4684 9.942 17.4227 10.0513C17.377 10.1613 17.2898 10.2531 17.1716 10.3012Z" fill="#FDCD95"/>
<path d="M15.3969 12.913L15.1148 12.9832L14.8328 13.0533C14.7216 13.0808 14.6092 13.0603 14.5182 13.0049C14.4267 12.9491 14.3566 12.8588 14.3287 12.746L14.257 12.457L14.1853 12.168C14.1381 11.9769 14.1718 11.7848 14.2648 11.6286C14.3578 11.4725 14.51 11.3528 14.6991 11.3059C14.8882 11.259 15.0788 11.2939 15.2338 11.3884C15.3888 11.4829 15.5085 11.6368 15.5558 11.8282L15.6274 12.1172L15.6991 12.4062C15.727 12.5186 15.7073 12.6317 15.6522 12.7236C15.5976 12.8146 15.5081 12.8855 15.3969 12.913Z" fill="#FDCD95"/>
<path d="M14.3823 18.1072L14.1362 18.1611L13.8902 18.2149C13.793 18.2363 13.6965 18.2157 13.619 18.1654C13.5411 18.115 13.4826 18.0348 13.4609 17.9368L13.4055 17.6845L13.3505 17.4323C13.3141 17.2657 13.3478 17.0999 13.4322 16.967C13.5163 16.8341 13.6511 16.7337 13.8162 16.6977C13.9813 16.6617 14.1455 16.6965 14.2777 16.7818C14.4098 16.8674 14.5097 17.0034 14.5462 17.1704L14.6016 17.4226L14.6566 17.6748C14.6783 17.7729 14.6581 17.8701 14.6085 17.9484C14.5586 18.027 14.4791 18.0859 14.3823 18.1072Z" fill="#FDCD95"/>
<path d="M33.5442 21.3544C33.5531 21.3524 33.5617 21.349 33.5698 21.3443C33.5779 21.3397 33.5857 21.3338 33.5927 21.3273C33.5992 21.3214 33.6054 21.3145 33.6113 21.3075C33.6171 21.3005 33.6225 21.2932 33.6272 21.2854C33.674 21.2133 33.769 21.0661 33.884 20.8856C33.9991 20.705 34.1336 20.4907 34.2599 20.2842C34.3164 20.192 34.3924 20.032 34.4272 19.8565C34.4621 19.681 34.4551 19.4903 34.3455 19.3365C34.1529 19.0661 33.8833 19.0529 33.6 19.1947C33.3168 19.3365 33.02 19.6333 32.7736 19.9832C32.7224 20.056 32.6841 20.1362 32.6624 20.218C32.6407 20.2997 32.636 20.3826 32.6523 20.4605C32.71 20.7364 32.8708 20.9731 33.0483 21.1347C33.2257 21.2959 33.4199 21.3815 33.5442 21.3544Z" fill="#FDCD95"/>
<path d="M24.3977 64.0019H42.3554L36.6618 49.219L22.1641 49.207L24.3977 64.0019Z" fill="#FF7D01"/>
<path d="M36.6618 49.219L22.1641 49.207L22.7228 52.9065L35.9187 56.7147L36.167 54.2091L39.8486 64.0019H42.3554L36.6618 49.219Z" fill="#333333"/>
<path d="M35.5432 54.9801L36.6618 49.219L22.1641 49.207L22.6282 52.2819L35.5432 54.9801Z" fill="#333333"/>
<path d="M22.9019 6.85185L24.284 0.0799396C24.2914 0.0439064 24.2681 0.008647 24.2321 0.00128538C24.1968 -0.00568878 24.1623 0.0164043 24.1542 0.0508877L22.5288 6.76855C22.504 6.87123 22.5672 6.97468 22.6699 6.99948C22.7725 7.02427 22.876 6.96111 22.9008 6.85844C22.9012 6.8565 22.9016 6.85379 22.9019 6.85185Z" fill="#333333"/>
<path d="M12.5961 7.03718L8.99625 1.13743C8.97727 1.10604 8.9362 1.09597 8.90482 1.11534C8.87421 1.13394 8.86414 1.17384 8.88157 1.20484L12.2664 7.23051C12.3183 7.32273 12.4349 7.35527 12.5267 7.30374C12.6189 7.25182 12.6515 7.13559 12.6 7.04337C12.5984 7.04144 12.5969 7.03873 12.5961 7.03718Z" fill="#333333"/>
<path d="M6.64896 14.4177L0.0874336 12.2456C0.0525628 12.234 0.0149875 12.253 0.00336391 12.2878C-0.00787224 12.3219 0.00994939 12.3587 0.0432704 12.3711L6.52187 14.7784C6.62106 14.8152 6.7311 14.7648 6.76791 14.6656C6.80472 14.5668 6.75435 14.4564 6.65517 14.4196C6.65362 14.4192 6.6509 14.4184 6.64896 14.4177Z" fill="#333333"/>
<path d="M17.8861 5.97943L16.9457 2.26918C16.9368 2.23354 16.9004 2.21184 16.8647 2.22075C16.8306 2.22927 16.8093 2.26337 16.8155 2.29747L17.5125 6.06119C17.5319 6.16502 17.6315 6.2336 17.7357 6.21462C17.8396 6.19524 17.9081 6.09567 17.8892 5.99145C17.888 5.98757 17.8868 5.98331 17.8861 5.97943Z" fill="#333333"/>
<path d="M27.2696 8.45322L29.4738 5.32376C29.4951 5.29354 29.4878 5.25207 29.4575 5.23076C29.4289 5.21061 29.3893 5.21643 29.3673 5.24356L26.9643 8.22307C26.898 8.30521 26.9108 8.42571 26.9929 8.49197C27.0751 8.55822 27.1956 8.54543 27.2618 8.46329C27.2645 8.46019 27.2673 8.45632 27.2696 8.45322Z" fill="#333333"/>
<path d="M9.82912 10.8482L6.85657 8.43673C6.8279 8.41348 6.78606 8.41813 6.76281 8.44641C6.74072 8.47392 6.74382 8.51344 6.7694 8.53746L9.57882 11.1373C9.65631 11.209 9.77759 11.2043 9.84927 11.1268C9.92094 11.0493 9.91629 10.9281 9.8388 10.8564C9.83531 10.8537 9.83222 10.851 9.82912 10.8482Z" fill="#333333"/>
<path d="M5.2443 18.1111L1.41664 18.0781C1.37984 18.0777 1.34961 18.1076 1.34961 18.1444C1.34923 18.1796 1.37673 18.2087 1.41122 18.2114L5.2288 18.4935C5.33418 18.5012 5.42602 18.4222 5.43377 18.3168C5.44152 18.2114 5.36247 18.1196 5.25708 18.1118C5.25282 18.1111 5.24817 18.1111 5.2443 18.1111Z" fill="#333333"/>
</svg>
