<svg width="32" height="32" viewBox="0 0 32 32" fill="none" xmlns="http://www.w3.org/2000/svg">
<path d="M15.9994 17.0027C16.5524 17.0027 17.0007 16.5544 17.0007 16.0013C17.0007 15.4483 16.5524 15 15.9994 15C15.4464 15 14.998 15.4483 14.998 16.0013C14.998 16.5544 15.4464 17.0027 15.9994 17.0027Z" fill="#333333"/>
<path d="M27.9827 28.6387C27.9 28.28 27.5373 28.0587 27.1827 28.1387C27.1653 28.1427 26.5693 28.2787 25.56 28.4574C25.9067 26.744 26.6653 22.4174 26.6653 17.332C26.6653 10.8227 25.472 5.95336 25.4213 5.74936C25.368 5.53336 25.2107 5.36003 25.0027 5.2827C24.928 5.25603 23.196 4.63336 20.6653 4.19336V2.66536C20.6653 2.41336 20.5227 2.1827 20.2973 2.06936C20.2373 2.04003 18.7907 1.33203 15.9987 1.33203C11.2093 1.33203 7.14666 2.92136 6.97599 2.98936C6.76799 3.07203 6.61466 3.25603 6.56799 3.47603C6.55599 3.53603 5.33065 9.62003 5.33065 16.6654C5.33065 22.284 6.11732 26.7307 6.47599 28.464C5.44399 28.2827 4.83199 28.1427 4.81332 28.1387C4.45332 28.0574 4.09732 28.28 4.01332 28.6387C3.93066 28.9974 4.15332 29.356 4.51332 29.4387C4.73066 29.4894 9.90132 30.6654 15.996 30.6654C22.0907 30.6654 27.2627 29.4894 27.4787 29.4387C27.8387 29.356 28.0613 28.9974 27.9787 28.6387H27.9827ZM24.2093 6.4227C24.4787 7.65203 25.3333 11.9694 25.3333 17.332C25.3333 22.86 24.3867 27.5894 24.1493 28.6894C23.1613 28.8387 21.976 28.992 20.6667 29.1107V5.54803C22.3347 5.85203 23.6267 6.23603 24.2093 6.4227ZM7.89199 28.6947C7.65066 27.6094 6.66666 22.8027 6.66666 16.6654C6.66666 10.7334 7.55066 5.50003 7.80799 4.10536C8.86132 3.73603 12.2373 2.66536 16 2.66536C17.6827 2.66536 18.7987 2.94536 19.3333 3.12136V29.216C18.272 29.2867 17.1507 29.332 16 29.332C12.8787 29.332 9.96399 29.0054 7.89199 28.6947Z" fill="#333333"/>
</svg>
