<svg width="24" height="32" viewBox="0 0 24 32" fill="none" xmlns="http://www.w3.org/2000/svg">
<path d="M18 0H6C2.692 0 0 2.69067 0 6V26C0 29.308 2.692 32 6 32H8.66667C9.03467 32 9.33333 31.7013 9.33333 31.3333V22.6493H14.6667V31.3333C14.6667 31.7013 14.9653 32 15.3333 32H18C21.308 32 24 29.308 24 26V6C24 2.69067 21.308 0 18 0ZM22.6667 26C22.6667 28.5733 20.5733 30.6667 18 30.6667H16V22.6493H17.9147C18.2827 22.6493 18.5813 22.3507 18.5813 21.9827C18.5813 21.6147 18.2827 21.316 17.9147 21.316H5.91467C5.54667 21.316 5.248 21.6147 5.248 21.9827C5.248 22.3507 5.54667 22.6493 5.91467 22.6493H8V30.6667H6C3.42667 30.6667 1.33333 28.5733 1.33333 26V6C1.33333 3.42667 3.42667 1.33333 6 1.33333H18C20.5733 1.33333 22.6667 3.42667 22.6667 6V26ZM7.91467 16.6493C7.91467 17.0173 7.616 17.316 7.248 17.316H5.91467C5.54667 17.316 5.248 17.0173 5.248 16.6493C5.248 16.2813 5.54667 15.9827 5.91467 15.9827H7.248C7.616 15.9827 7.91467 16.2813 7.91467 16.6493ZM18.5813 16.6493C18.5813 17.0173 18.2827 17.316 17.9147 17.316H16.5813C16.2133 17.316 15.9147 17.0173 15.9147 16.6493C15.9147 16.2813 16.2133 15.9827 16.5813 15.9827H17.9147C18.2827 15.9827 18.5813 16.2813 18.5813 16.6493ZM7.91467 5.98267C7.91467 6.35067 7.616 6.64933 7.248 6.64933H5.91467C5.54667 6.64933 5.248 6.35067 5.248 5.98267C5.248 5.61467 5.54667 5.316 5.91467 5.316H7.248C7.616 5.316 7.91467 5.61467 7.91467 5.98267ZM18.5813 5.98267C18.5813 6.35067 18.2827 6.64933 17.9147 6.64933H16.5813C16.2133 6.64933 15.9147 6.35067 15.9147 5.98267C15.9147 5.61467 16.2133 5.316 16.5813 5.316H17.9147C18.2827 5.316 18.5813 5.61467 18.5813 5.98267ZM7.91467 11.316C7.91467 11.684 7.616 11.9827 7.248 11.9827H5.91467C5.54667 11.9827 5.248 11.684 5.248 11.316C5.248 10.948 5.54667 10.6493 5.91467 10.6493H7.248C7.616 10.6493 7.91467 10.948 7.91467 11.316ZM18.5813 11.316C18.5813 11.684 18.2827 11.9827 17.9147 11.9827H16.5813C16.2133 11.9827 15.9147 11.684 15.9147 11.316C15.9147 10.948 16.2133 10.6493 16.5813 10.6493H17.9147C18.2827 10.6493 18.5813 10.948 18.5813 11.316ZM13.248 16.6493C13.248 17.0173 12.9493 17.316 12.5813 17.316H11.248C10.88 17.316 10.5813 17.0173 10.5813 16.6493C10.5813 16.2813 10.88 15.9827 11.248 15.9827H12.5813C12.9493 15.9827 13.248 16.2813 13.248 16.6493ZM13.248 5.98267C13.248 6.35067 12.9493 6.64933 12.5813 6.64933H11.248C10.88 6.64933 10.5813 6.35067 10.5813 5.98267C10.5813 5.61467 10.88 5.316 11.248 5.316H12.5813C12.9493 5.316 13.248 5.61467 13.248 5.98267ZM13.248 11.316C13.248 11.684 12.9493 11.9827 12.5813 11.9827H11.248C10.88 11.9827 10.5813 11.684 10.5813 11.316C10.5813 10.948 10.88 10.6493 11.248 10.6493H12.5813C12.9493 10.6493 13.248 10.948 13.248 11.316Z" fill="#333333"/>
</svg>
