<svg width="32" height="27" viewBox="0 0 32 27" fill="none" xmlns="http://www.w3.org/2000/svg">
<path d="M16.3 0.00141798C11.9893 -0.054582 7.88 1.54942 4.792 4.58142C4.072 5.28942 0 9.33208 0 15.9988V21.3321C0 24.2734 2.392 26.6654 5.33333 26.6654H26.6667C29.608 26.6654 32 24.2734 32 21.3321V16.5081C32 7.56542 24.9573 0.160085 16.3 0.00141798ZM28.1107 7.98942C28.108 7.98942 28.108 7.98942 28.1107 7.98942V7.98942ZM5.72533 5.53342C8.49067 2.81875 12.1293 1.33342 15.9987 1.33342C20.6667 1.33342 24.4907 3.47608 27.1307 6.66675H4.68533C5.01067 6.27475 5.35733 5.89608 5.72533 5.53342ZM6.66667 25.3334H5.33333C3.128 25.3334 1.33333 23.5388 1.33333 21.3334V16.0001C1.33333 13.1121 2.16 10.3574 3.70133 8.00009H8.43467C7.30533 10.1214 6.66667 13.2268 6.66667 16.6961V25.3334ZM18.6667 25.3334H13.3333V18.6668C13.3333 17.1961 14.5293 16.0001 16 16.0001C17.4707 16.0001 18.6667 17.1961 18.6667 18.6668V25.3334ZM24 25.3334H20V18.6668C20 16.4614 18.2053 14.6668 16 14.6668C13.7947 14.6668 12 16.4614 12 18.6668V25.3334H8V16.6961C8 13.0588 8.72133 9.89209 9.97867 8.00542C9.98 8.00275 9.98133 8.00142 9.98267 7.99875H22.016C22.016 7.99875 22.0187 8.00275 22.02 8.00542C23.2773 9.89209 23.9987 13.0588 23.9987 16.6961L24 25.3334ZM30.6667 21.3334C30.6667 23.5388 28.872 25.3334 26.6667 25.3334H25.3333V16.6961C25.3333 13.2268 24.6947 10.1201 23.5653 8.00009H28.1173C29.724 10.4348 30.6667 13.3681 30.6667 16.5094V21.3334Z" fill="#333333"/>
</svg>
