<svg width="242" height="94" viewBox="0 0 242 94" fill="none" xmlns="http://www.w3.org/2000/svg">
<path d="M96.9766 85.9039L235.638 52.17L239.515 41.5996C239.515 41.5996 239.693 34.641 236.576 28.1478C233.46 21.6543 221.798 23.4943 216.459 28.9691C211.12 34.4435 207.014 38.8233 207.014 38.8233L143.674 50.6644C143.674 50.6644 135.298 40.1919 125.444 40.1919C115.589 40.1919 107.651 53.3307 104.093 64.0059C100.535 74.681 96.9766 85.9039 96.9766 85.9039Z" fill="#263238" stroke="#263238" stroke-width="0.375371" stroke-miterlimit="10" stroke-linecap="round" stroke-linejoin="round"/>
<path d="M216.459 28.9727C209.765 28.9727 203.75 38.777 203.75 51.5914C203.75 64.4058 209.176 74.7938 215.87 74.7938L228.836 75.3775V28.9727H216.459Z" fill="#263238" stroke="#263238" stroke-width="0.375371" stroke-miterlimit="10" stroke-linecap="round" stroke-linejoin="round"/>
<path d="M228.838 75.3775C235.532 75.3775 240.958 64.9894 240.958 52.1751C240.958 39.3607 235.532 28.9727 228.838 28.9727C222.145 28.9727 216.719 39.3607 216.719 52.1751C216.719 64.9894 222.145 75.3775 228.838 75.3775Z" fill="#5E5E5E" stroke="#263238" stroke-width="0.375371" stroke-miterlimit="10" stroke-linecap="round" stroke-linejoin="round"/>
<path d="M229.677 73.208C235.28 73.208 239.822 64.0725 239.822 52.8032C239.822 41.534 235.28 32.3984 229.677 32.3984C224.074 32.3984 219.531 41.534 219.531 52.8032C219.531 64.0725 224.074 73.208 229.677 73.208Z" fill="#263238" stroke="#263238" stroke-width="0.375371" stroke-miterlimit="10" stroke-linecap="round" stroke-linejoin="round"/>
<path d="M227.439 32.8983C227.041 33.0785 226.651 33.3033 226.272 33.5743L227.972 36.1648C227.972 36.1648 231.409 38.8629 231.266 40.2586C231.123 41.6542 230.12 43.236 229.691 43.7942C229.261 44.3524 226.898 46.2134 226.898 46.2134L226.254 48.8189C226.254 48.8189 229.261 47.3302 229.834 46.0276C230.407 44.7251 233.271 37.1884 233.127 35.8859C232.984 34.5833 232.626 34.0251 232.626 34.0251L231.591 32.7647C231.48 32.7219 231.369 32.6798 231.257 32.6445L227.439 32.8983ZM232.197 37.5604L228.953 34.1697C228.451 34.3412 228.044 34.4898 228.044 34.4898L228.904 34.1175L228.953 34.1693C229.644 33.9328 230.516 33.652 230.765 33.652C231.195 33.652 231.911 34.3033 232.197 35.5127C232.484 36.7229 232.197 37.5604 232.197 37.5604Z" fill="#999999" stroke="#263238" stroke-width="0.375371" stroke-miterlimit="10" stroke-linecap="round" stroke-linejoin="round"/>
<path d="M225.258 70.0367C225.258 70.0367 227.907 69.0131 228.265 68.7342C228.623 68.4549 228.337 70.1298 227.835 70.8742C227.334 71.6186 226.905 71.8978 226.905 71.8978L225.258 70.0367Z" fill="white" stroke="#263238" stroke-width="0.375371" stroke-miterlimit="10" stroke-linecap="round" stroke-linejoin="round"/>
<path d="M236.767 38.2158L236.71 38.4028C236.71 38.4028 235.35 37.7515 235.35 38.3097C235.35 38.8678 234.419 40.2635 234.204 40.4497C233.989 40.6358 231.913 43.6133 231.913 43.6133L228.619 48.8238L236.854 41.1009C236.854 41.1009 236.782 39.7984 237.498 43.2409C238.214 46.6835 238.071 48.6376 238.071 48.9165C238.071 49.1958 234.205 50.7772 234.634 51.1496C235.064 51.5216 234.992 52.266 235.637 52.1732C236.281 52.0802 239.145 51.4289 239.145 51.4289L237.856 55.0576V58.9656C237.856 58.9656 233.918 55.7089 231.699 55.1507C229.479 54.5925 227.188 55.0576 227.188 55.0576L227.904 59.5238C227.904 59.5238 225.97 56.5463 225.612 56.1743C225.254 55.8023 224.681 56.2674 224.681 56.2674L223.75 57.3838C223.75 57.3838 223.392 61.1987 222.82 61.8499C222.527 62.1829 222.029 62.4663 221.612 62.6649C221.246 61.452 220.671 58.9656 220.671 58.9656C220.385 57.57 220.528 56.8256 220.528 56.8256L222.891 57.4769C222.891 57.4769 224.61 55.1507 224.681 54.8714C224.753 54.5921 224.753 52.9176 224.538 52.0802C224.324 51.2427 223.679 50.7776 223.679 50.7776L224.753 48.0794L224.252 47.8002L223.035 51.1496L223.106 54.5921L220.314 53.5685C220.242 48.1718 221.316 44.5431 221.316 44.5431L223.249 44.2638C223.249 44.2638 223.965 44.1707 224.18 44.3569C224.395 44.5431 225.612 48.2649 225.612 48.2649L225.899 47.3343C225.899 47.3343 225.039 44.0776 224.324 41.8445C223.608 39.6115 222.533 40.3558 222.533 40.3558C223.178 38.402 224.61 36.4478 224.61 36.4478L225.899 38.4947L227.832 37.378L227.474 35.8893L226.275 33.5781C222.345 36.3912 219.531 43.935 219.531 52.8039C219.531 56.5077 220.026 59.9753 220.884 62.9697L220.882 62.973C220.894 63.014 220.907 63.0537 220.918 63.0943C220.93 63.1329 220.939 63.1735 220.951 63.2122H220.953C222.722 69.1952 225.964 73.209 229.676 73.209C235.28 73.209 239.822 64.0733 239.822 52.8042C239.822 47.0862 238.651 41.9204 236.767 38.2158ZM224.109 68.4561C223.822 68.0841 222.533 65.4787 222.533 65.4787C222.533 65.4787 224.18 63.6176 224.61 62.9663C225.039 62.315 225.183 57.942 225.183 57.942C225.183 57.942 227.689 62.4081 228.119 63.8968C228.548 65.3856 228.262 65.9437 227.832 66.595C227.402 67.2466 224.395 68.8285 224.109 68.4561ZM238.07 62.5943C238.07 62.5943 236.71 60.0819 235.923 60.5474C235.135 61.0125 234.92 61.6638 234.204 62.3154C233.488 62.9667 231.626 62.4085 231.626 62.4085C231.626 62.4085 233.56 67.991 233.846 68.8285C234.132 69.6659 233.417 70.7823 232.987 71.1546C232.557 71.527 231.985 71.2477 231.483 71.2477C230.982 71.2477 229.908 71.527 229.908 71.527L228.261 72.0852C228.261 72.0852 229.479 69.4801 229.622 68.6426C229.765 67.8052 229.765 64.8278 229.765 64.8278L231.769 69.5732L233.13 68.9219C233.13 68.9219 229.335 59.4314 229.12 59.1521C228.905 58.8729 228.547 57.2914 228.547 56.826C228.547 56.3609 228.189 55.6165 228.189 55.6165C228.189 55.6165 230.839 55.7096 232.7 57.1052C234.561 58.5009 237.712 60.1758 237.927 60.5478C238.142 60.9194 238.07 62.5943 238.07 62.5943Z" fill="#999999" stroke="#263238" stroke-width="0.375371" stroke-miterlimit="10" stroke-linecap="round" stroke-linejoin="round"/>
<path d="M232.988 52.1719L229.122 50.125L227.547 50.8694C227.547 50.8694 229.408 51.9861 230.697 52.4512C231.986 52.9163 232.988 52.1719 232.988 52.1719Z" fill="#999999" stroke="#263238" stroke-width="0.375371" stroke-miterlimit="10" stroke-linecap="round" stroke-linejoin="round"/>
<path d="M108.813 45.5195C99.8771 45.5195 92.6328 56.1913 92.6328 69.356C92.6328 82.5202 99.8767 93.1924 108.813 93.1924H125.337V45.5195H108.813Z" fill="#263238" stroke="#263238" stroke-width="0.375371" stroke-miterlimit="10" stroke-linecap="round" stroke-linejoin="round"/>
<path d="M125.336 93.1924C134.272 93.1924 141.516 82.5205 141.516 69.356C141.516 56.1915 134.272 45.5195 125.336 45.5195C116.4 45.5195 109.156 56.1915 109.156 69.356C109.156 82.5205 116.4 93.1924 125.336 93.1924Z" fill="#5E5E5E" stroke="#263238" stroke-width="0.375371" stroke-miterlimit="10" stroke-linecap="round" stroke-linejoin="round"/>
<path d="M126.47 90.9635C133.95 90.9635 140.014 81.5784 140.014 70.0013C140.014 58.4242 133.95 49.0391 126.47 49.0391C118.99 49.0391 112.926 58.4242 112.926 70.0013C112.926 81.5784 118.99 90.9635 126.47 90.9635Z" fill="#263238" stroke="#263238" stroke-width="0.375371" stroke-miterlimit="10" stroke-linecap="round" stroke-linejoin="round"/>
<path d="M123.483 49.5542C122.952 49.7393 122.432 49.9701 121.926 50.2487L124.196 52.9097C124.196 52.9097 128.784 55.6818 128.593 57.1153C128.402 58.5492 127.064 60.1742 126.49 60.7478C125.917 61.3214 122.763 63.2331 122.763 63.2331L121.902 65.9095C121.902 65.9095 125.917 64.3803 126.682 63.0421C127.446 61.7039 131.27 53.9615 131.079 52.6233C130.888 51.2851 130.409 50.7115 130.409 50.7115L129.028 49.4165C128.88 49.3726 128.731 49.3294 128.582 49.293L123.483 49.5542ZM129.835 54.3436L125.505 50.8601C124.835 51.0366 124.292 51.1893 124.292 51.1893L125.439 50.8068L125.505 50.8601C126.427 50.6173 127.591 50.329 127.924 50.329C128.497 50.329 129.453 50.9983 129.835 52.2408C130.218 53.4832 129.835 54.3436 129.835 54.3436Z" fill="#999999"/>
<path d="M125.505 50.8601L129.835 54.3436C129.835 54.3436 130.218 53.4832 129.835 52.2408C129.453 50.9983 128.497 50.329 127.924 50.329C127.591 50.329 126.427 50.6173 125.505 50.8601ZM125.505 50.8601C124.835 51.0366 124.292 51.1893 124.292 51.1893L125.439 50.8068L125.505 50.8601ZM123.483 49.5542C122.952 49.7393 122.432 49.9701 121.926 50.2487L124.196 52.9097C124.196 52.9097 128.784 55.6818 128.593 57.1153C128.402 58.5492 127.064 60.1742 126.49 60.7478C125.917 61.3214 122.763 63.2331 122.763 63.2331L121.902 65.9095C121.902 65.9095 125.917 64.3803 126.682 63.0421C127.446 61.7039 131.27 53.9615 131.079 52.6233C130.888 51.2851 130.409 50.7115 130.409 50.7115L129.028 49.4165C128.88 49.3726 128.731 49.3294 128.582 49.293L123.483 49.5542Z" stroke="#263238" stroke-width="0.375371" stroke-miterlimit="10" stroke-linecap="round" stroke-linejoin="round"/>
<path d="M120.562 87.706C120.562 87.706 124.099 86.6546 124.577 86.3678C125.055 86.0811 124.673 87.8018 124.004 88.5664C123.334 89.331 122.761 89.6178 122.761 89.6178L120.562 87.706Z" fill="white" stroke="#263238" stroke-width="0.375371" stroke-miterlimit="10" stroke-linecap="round" stroke-linejoin="round"/>
<path d="M135.935 55.0127L135.859 55.2049C135.859 55.2049 134.043 54.5356 134.043 55.1092C134.043 55.6827 132.801 57.1167 132.514 57.3077C132.227 57.4988 129.455 60.5577 129.455 60.5577L125.058 65.9105L136.05 57.9766C136.05 57.9766 135.954 56.6384 136.91 60.1752C137.866 63.7119 137.675 65.719 137.675 66.0058C137.675 66.2926 132.513 67.9176 133.087 68.3001C133.661 68.6822 133.565 69.4472 134.425 69.3515C135.285 69.2558 139.109 68.5869 139.109 68.5869L137.388 72.3147V76.3293C137.388 76.3293 132.131 72.9836 129.168 72.4104C126.205 71.8368 123.146 72.3147 123.146 72.3147L124.102 76.9028C124.102 76.9028 121.521 73.8439 121.043 73.4618C120.565 73.0793 119.8 73.5575 119.8 73.5575L118.558 74.7047C118.558 74.7047 118.08 78.6235 117.315 79.2928C116.925 79.6348 116.26 79.9261 115.703 80.1299C115.214 78.8837 114.448 76.3297 114.448 76.3297C114.065 74.8957 114.257 74.1311 114.257 74.1311L117.411 74.8C117.411 74.8 119.705 72.4104 119.801 72.1236C119.896 71.8368 119.896 70.1161 119.61 69.2562C119.323 68.3958 118.463 67.918 118.463 67.918L119.896 65.1458L119.227 64.8591L117.602 68.3001L117.698 71.8368L113.97 70.7854C113.874 65.2412 115.308 61.5134 115.308 61.5134L117.889 61.2266C117.889 61.2266 118.845 61.1309 119.131 61.3223C119.418 61.5134 121.043 65.3369 121.043 65.3369L121.426 64.3812C121.426 64.3812 120.279 61.0355 119.323 58.7416C118.367 56.4474 116.933 57.2124 116.933 57.2124C117.794 55.2049 119.705 53.1978 119.705 53.1978L121.426 55.3006L124.007 54.1535L123.529 52.6242L121.928 50.25C116.682 53.14 112.926 60.8899 112.926 70.0009C112.926 73.806 113.587 77.3683 114.732 80.4445L114.729 80.4479C114.745 80.4899 114.762 80.5308 114.777 80.5725C114.792 80.6123 114.805 80.6539 114.821 80.6933H114.824C117.185 86.8397 121.515 90.9631 126.47 90.9631C133.95 90.9631 140.014 81.5781 140.014 70.0009C140.014 64.126 138.45 58.8186 135.935 55.0127ZM119.036 86.0792C118.654 85.6967 116.933 83.0203 116.933 83.0203C116.933 83.0203 119.131 81.1085 119.705 80.4392C120.279 79.7703 120.47 75.2775 120.47 75.2775C120.47 75.2775 123.815 79.8656 124.388 81.3949C124.962 82.9242 124.58 83.4977 124.006 84.167C123.433 84.8367 119.418 86.4617 119.036 86.0792ZM137.675 80.0575C137.675 80.0575 135.859 77.4768 134.808 77.9546C133.756 78.4325 133.469 79.1018 132.513 79.7707C131.558 80.4396 129.072 79.8664 129.072 79.8664C129.072 79.8664 131.653 85.6017 132.036 86.462C132.418 87.3224 131.462 88.4695 130.888 88.8517C130.315 89.2342 129.55 88.9474 128.881 88.9474C128.212 88.9474 126.778 89.2341 126.778 89.2341L124.58 89.8077C124.58 89.8077 126.205 87.1313 126.396 86.271C126.587 85.4106 126.587 82.3521 126.587 82.3521L129.263 87.227L131.079 86.5578C131.079 86.5578 126.013 76.8079 125.726 76.5211C125.44 76.2343 124.962 74.6093 124.962 74.1315C124.962 73.6536 124.484 72.889 124.484 72.889C124.484 72.889 128.021 72.9847 130.506 74.4183C132.991 75.8522 137.197 77.5725 137.484 77.955C137.771 78.3368 137.675 80.0575 137.675 80.0575Z" fill="#999999" stroke="#263238" stroke-width="0.375371" stroke-miterlimit="10" stroke-linecap="round" stroke-linejoin="round"/>
<path d="M130.886 69.3489L125.724 67.2461L123.621 68.0107C123.621 68.0107 126.106 69.1579 127.827 69.6357C129.547 70.1139 130.886 69.3489 130.886 69.3489Z" fill="#999999" stroke="#263238" stroke-width="0.375371" stroke-miterlimit="10" stroke-linecap="round" stroke-linejoin="round"/>
<path d="M99.9068 3.20641C97.8855 3.57202 95.9264 4.21691 94.0751 5.10691C92.7887 5.72552 90.848 6.59413 87.9655 7.76153C80.9311 10.611 60.5406 24.1453 58.7598 24.8574C56.979 25.5699 54.3969 26.0151 54.0406 26.104C53.6844 26.193 42.5543 26.5492 36.7664 27.6179C30.9786 28.6862 24.5676 32.1591 21.273 34.0289C17.9784 35.8986 13.1702 39.8167 12.5468 40.2619C11.9236 40.7071 8.18382 41.5085 7.29344 43.2893C6.40306 45.07 6.3141 47.8305 6.49202 48.9878C6.66995 50.1454 6.49202 52.1041 6.49202 52.1041C6.49202 52.1041 2.03975 74.0975 1.77286 75.2551C1.50559 76.4128 -0.364129 80.5084 0.348325 81.3988C1.06078 82.2892 3.28673 84.1589 6.04721 84.6041C8.80731 85.0493 17.1773 84.4262 17.1773 84.4262L44.0678 87.8098C44.0678 87.8098 51.9926 92.0837 55.5541 92.262C59.1156 92.44 83.5133 93.3303 85.205 92.9745C86.8968 92.6183 107.376 89.9471 107.376 89.9471C107.376 89.9471 105.773 77.0362 107.109 69.8239C108.445 62.6115 112.719 52.0155 116.815 48.1867C120.911 44.3579 125.541 41.6868 131.863 43.9128C138.185 46.1387 141.836 53.2621 141.746 62.8787C141.657 72.4954 138.007 85.7625 138.007 85.7625L154.925 82.2899L201.76 71.694C201.76 71.694 218.322 69.9132 218.322 69.6459C218.322 69.3787 216.096 59.8514 215.74 52.8169C215.384 45.7825 220.37 35.9879 223.932 31.714C227.493 27.44 232.391 28.4193 235.329 30.8236C238.267 33.2278 239.514 41.5978 239.514 41.5978L240.493 43.2007C240.493 43.2007 240.226 35.6321 238.891 30.8239C237.555 26.0158 236.397 21.8308 233.37 18.7145C230.343 15.5981 226.692 14.8857 224.11 14.7967C221.527 14.7078 216.007 13.5501 215.294 13.2829C214.582 13.0156 178.164 3.7552 178.164 3.7552C178.164 3.7552 160.712 0.0153776 139.163 0.193679C118.956 0.359968 116.446 0.213949 99.9068 3.20641Z" fill="#FF7D01"/>
<path d="M89.2677 90.7717C89.9186 89.7958 93.1723 79.3834 93.1723 79.3834L86.1765 80.3593L15.2445 76.9431L2.38847 72.293C2.05739 73.9074 1.82729 75.0174 1.77286 75.2543C1.50559 76.4119 -0.364129 80.5076 0.348325 81.3983C1.06078 82.2887 3.28673 84.1584 6.04683 84.6036C8.80693 85.0488 17.177 84.4257 17.177 84.4257L44.0674 87.8093C44.0674 87.8093 51.9922 92.0833 55.5538 92.2616C59.015 92.4346 82.1537 93.2803 85.0065 93.0011C87.056 92.1182 88.9787 91.2049 89.2677 90.7717Z" fill="#5E5E5E" stroke="#263238" stroke-width="0.375371" stroke-miterlimit="10" stroke-linecap="round" stroke-linejoin="round"/>
<path d="M10.7981 75.3389L3.58234 73.9883L2.12403 76.54L1.27344 79.9424C1.27344 79.9424 1.27344 79.9424 2.48851 80.5498C3.70359 81.1575 4.18969 82.4942 5.28315 83.2232C6.37661 83.9521 8.56389 84.4382 11.1157 84.0737C13.6674 83.7093 17.0698 83.466 17.0698 83.466L43.3169 86.7468L45.747 86.2606L49.0278 82.4938L20.8239 77.215L15.2425 76.9462L10.7981 75.3389Z" fill="#263238" stroke="#263238" stroke-width="0.375371" stroke-miterlimit="10" stroke-linecap="round" stroke-linejoin="round"/>
<path d="M167.581 2.0176C160.469 1.06791 150.372 0.100961 139.167 0.193678C118.958 0.360718 116.449 0.214323 99.9091 3.20716C97.8878 3.57277 95.9287 4.21766 94.0774 5.10766C92.791 5.72627 90.8503 6.59488 87.9678 7.76228C81.766 10.2746 65.1839 21.091 60.1254 24.1041C59.7869 24.3634 57.9911 25.7118 56.6251 26.1937C55.1112 26.7279 54.3992 27.1731 55.0223 27.4404C55.6454 27.7076 106.667 30.9129 108.536 30.9129C110.406 30.9129 132.132 30.6456 132.132 30.6456C132.132 30.6456 133.735 30.7346 135.427 29.399C137.119 28.0635 145.934 13.9056 149.763 9.36474C153.592 4.8235 160.893 2.77548 166.236 2.15236C166.711 2.09718 167.153 2.05476 167.581 2.0176Z" fill="#263238" stroke="#263238" stroke-width="0.375371" stroke-miterlimit="10" stroke-linecap="round" stroke-linejoin="round"/>
<path d="M95.5321 4.82678C95.5321 4.82678 102.655 2.86772 122.423 3.66914C142.19 4.47056 152.073 5.4499 152.162 5.80613C152.251 6.16236 144.149 15.4228 139.964 20.854C135.779 26.2856 134.354 28.6899 133.196 29.313C132.039 29.9361 112.004 29.9361 109.511 29.9361C107.018 29.9361 61.1616 27.3539 60.4492 27.0867C59.7367 26.8194 59.2026 26.2852 59.8261 25.4838C60.4492 24.6824 83.3329 10.5249 87.9631 8.29896C92.5941 6.07339 95.5321 4.82678 95.5321 4.82678Z" fill="#263238" stroke="#696969" stroke-width="0.375371" stroke-miterlimit="10" stroke-linecap="round" stroke-linejoin="round"/>
<path d="M215.291 13.2835C214.959 13.1589 206.848 11.0749 198.291 8.88795C195.454 8.88908 190.798 8.70777 187.065 7.674C181.277 6.07116 169.88 3.57795 161.866 5.89324C153.852 8.20853 147.619 18.27 147.619 18.27L140.051 30.7357C140.051 30.7357 148.154 32.3385 160.62 30.3794C173.086 28.4204 197.305 21.7425 201.579 19.4272C205.853 17.1123 206.209 14.5298 206.209 14.5298C206.209 14.5298 217.97 14.4419 218.918 14.0917C217.16 13.7629 215.642 13.4153 215.291 13.2835Z" fill="#5E5E5E" stroke="#263238" stroke-width="0.375371" stroke-miterlimit="10" stroke-linecap="round" stroke-linejoin="round"/>
<path d="M198.731 16.5808C198.731 16.5808 199.533 16.6697 198.909 15.5125C198.286 14.3548 191.964 9.72462 180.923 8.12217C169.882 6.51933 164.628 6.51934 160.532 8.3001C156.436 10.0809 149.313 18.6288 149.313 18.6288L142.012 30.1151C142.012 30.1151 151.895 30.5603 161.779 29.1358C171.663 27.7113 193.122 20.9441 195.793 19.3413C198.464 17.7384 198.731 16.5808 198.731 16.5808Z" fill="#263238" stroke="#263238" stroke-width="0.375371" stroke-miterlimit="10" stroke-linecap="round" stroke-linejoin="round"/>
<path d="M145.768 24.2031L142.012 30.1122C142.012 30.1122 144.138 30.2076 147.401 30.1685L145.768 24.2031Z" fill="#5E5E5E" stroke="#263238" stroke-width="0.375371" stroke-miterlimit="10" stroke-linecap="round" stroke-linejoin="round"/>
<path d="M189.562 9.54688C189.562 9.54688 198.556 11.4166 205.59 14.5333" stroke="#263238" stroke-width="0.375371" stroke-miterlimit="10" stroke-linecap="round" stroke-linejoin="round"/>
<path d="M236.458 23.4169C235.675 21.6685 234.705 20.0885 233.372 18.7162C233.193 18.5326 233.013 18.3588 232.83 18.1914C231.53 18.7098 229.543 19.6227 229.543 19.8734C229.543 20.2297 231.146 20.5859 233.461 21.6542C234.638 22.1977 235.698 22.8783 236.458 23.4169Z" fill="#263238" stroke="#263238" stroke-width="0.375371" stroke-miterlimit="10" stroke-linecap="round" stroke-linejoin="round"/>
<path d="M153.426 35.1741C153.426 35.1741 151.91 35.7942 151.91 36.5521C151.91 37.31 151.91 37.5168 152.668 37.6545C153.426 37.7923 158.387 37.5855 159.352 37.379C160.316 37.1722 161.074 36.4834 160.867 35.8633C160.66 35.2432 160.73 34.9676 160.109 34.6921C159.489 34.4166 157.836 34.6921 156.32 34.8299C154.804 34.9673 153.426 35.1741 153.426 35.1741Z" fill="#263238" stroke="#263238" stroke-width="0.375371" stroke-miterlimit="10" stroke-linecap="round" stroke-linejoin="round"/>
<path d="M39.7713 38.5679C39.7713 38.5679 34.1073 40.0491 30.0991 43.8832C26.0909 47.7172 25.0451 51.2025 27.2237 51.7254C29.402 52.2483 40.0329 53.7295 43.4311 51.9867C46.8294 50.2438 54.9332 44.8415 58.5927 43.5344C62.2526 42.2274 63.908 41.0074 63.298 40.5716C62.688 40.1366 44.3894 37.9579 39.7713 38.5679Z" fill="#263238"/>
<path d="M7.29166 43.2898C6.40128 45.0706 6.31232 47.8311 6.49025 48.9883C6.66817 50.146 6.49025 52.1047 6.49025 52.1047C6.49025 52.1047 2.89532 69.8635 1.97266 74.3034C2.76694 76.4129 5.75489 78.8206 6.74512 79.4298C7.87799 80.1269 33.0605 85.0067 48.9192 84.7451C64.7778 84.4838 89.9604 83.6122 90.4832 83.5251C91.0061 83.438 91.0932 83.438 92.0515 82.5668C93.0099 81.6955 100.417 61.567 103.292 55.4672C106.167 49.3678 107.823 47.015 105.296 44.9238C102.769 42.8326 92.1386 46.1438 89.6116 46.9279C87.0846 47.7121 63.645 55.2931 60.8563 55.5543C58.0681 55.8156 44.6489 55.8156 44.6489 55.8156L16.0682 53.8115C16.0682 53.8115 11.1884 50.4132 10.3172 47.0146C9.44592 43.6164 12.5446 40.2617 12.5446 40.2617C11.9219 40.7077 8.18204 41.5091 7.29166 43.2898Z" fill="#A6A6A6" stroke="#263238" stroke-width="0.375371" stroke-miterlimit="10" stroke-linecap="round" stroke-linejoin="round"/>
<path d="M105.296 44.9273C102.769 42.8362 92.1381 46.1473 89.6111 46.9315C87.0841 47.7156 63.6444 55.2966 60.8558 55.5579C58.0676 55.8191 43.942 56.2095 43.942 56.2095L16.0677 53.8154C16.0677 53.8154 11.1879 50.4172 10.3166 47.0185C9.44539 43.6203 12.5441 40.2656 12.5441 40.2656C11.921 40.7108 8.18114 41.5122 7.29076 43.293C6.40038 45.0738 6.31142 47.8342 6.48934 48.9915C6.5494 49.3826 6.56854 49.865 6.56817 50.3327L6.65751 50.4168C6.65751 50.4168 9.44576 56.4291 14.064 57.3007C18.6821 58.1719 48.8316 61.6576 56.5867 60.8731C64.3419 60.089 97.9766 53.4667 97.9766 53.4667C97.9766 53.4667 98.6737 52.5954 99.7195 52.3338C100.645 52.1022 103.889 51.734 105.347 51.1686C106.764 48.0808 107.118 46.4356 105.296 44.9273Z" fill="#D9D9D9" stroke="#263238" stroke-width="0.375371" stroke-miterlimit="10" stroke-linecap="round" stroke-linejoin="round"/>
<path d="M11.7729 56.4036C12.4748 56.8229 13.2394 57.1442 14.0634 57.2996C18.5476 58.1457 47.102 61.4561 55.8542 60.9294C56.4852 59.9677 58.103 57.7343 60.767 55.5639C57.8076 55.818 43.9418 56.208 43.9418 56.208L20.04 54.0924C16.5934 53.8507 13.3825 52.1232 11.4182 49.2809C11.2612 49.0538 11.1145 48.8233 10.9805 48.5898C11.3296 49.9389 12.0368 52.9051 11.9493 54.4805C11.9099 55.1919 11.8434 55.8465 11.7729 56.4036Z" fill="#263238" stroke="#263238" stroke-width="0.375371" stroke-miterlimit="10" stroke-linecap="round" stroke-linejoin="round"/>
<path d="M57.8684 58.3365C57.3207 58.392 56.6094 58.4288 55.6826 58.4288C51.8591 58.4288 16.1147 55.4056 14.6921 54.9611C13.51 54.5918 12.2698 53.4273 11.8828 53.043C11.9455 53.5786 11.9755 54.0745 11.9534 54.4784C11.9534 54.4784 12.736 55.4056 13.9808 55.8504C15.1114 56.2543 50.412 59.0042 56.8879 59.5061C57.1698 59.1476 57.4945 58.755 57.8684 58.3365Z" fill="#BABABA" stroke="#263238" stroke-width="0.375371" stroke-miterlimit="10" stroke-linecap="round" stroke-linejoin="round"/>
<path d="M105.206 51.1641L99.5783 52.3292L97.8354 53.4621C97.8354 53.4621 98.0862 55.3889 96.2356 56.661C94.3854 57.9331 95.3054 58.5247 86.6321 60.0281C77.9584 61.5314 54.8292 69.2798 54.8292 69.2798C54.8292 69.2798 47.312 77.9535 45.9243 78.7628C44.5365 79.5725 44.1897 79.6881 43.6112 79.6881C43.0332 79.6881 13.0804 75.9873 11.4615 75.7561C9.8425 75.5249 10.1893 76.4498 9.8425 75.5249C9.49566 74.5996 8.57037 59.7968 8.22352 57.9466C7.99792 56.744 7.10792 54.375 6.43075 52.6201C6.21229 54.5353 2.87824 70.6477 2.16016 74.4648C2.95444 76.5744 5.61319 78.8191 6.60342 79.4287C7.73629 80.1258 32.9188 85.0056 48.7775 84.744C64.6361 84.4827 89.8186 83.6111 90.3415 83.524C90.8644 83.4369 90.9515 83.437 91.9098 82.5657C92.8682 81.6945 100.275 61.566 103.15 55.4662C103.952 53.7658 104.659 52.3574 105.206 51.1641Z" fill="#FF7D01"/>
<path d="M104.196 51.4023L99.7169 52.3295L97.974 53.4624C97.974 53.4624 98.0187 54.7754 97.0029 55.9361C95.6753 57.4537 95.3472 58.1312 89.1431 59.5554C88.1983 63.1312 85.9896 71.9922 87.0019 73.0965C88.2741 74.4843 91.8592 77.8382 91.8592 77.8382L104.196 51.4023Z" fill="#263238" stroke="#263238" stroke-width="0.375371" stroke-miterlimit="10" stroke-linecap="round" stroke-linejoin="round"/>
<path d="M99.4304 61.2383L87.75 64.9391L98.2739 62.9732L99.4304 61.2383Z" fill="#999999" stroke="#263238" stroke-width="0.375371" stroke-miterlimit="10" stroke-linecap="round" stroke-linejoin="round"/>
<path d="M96.7719 67.25L87.3906 69.9009L95.731 68.9846L96.7719 67.25Z" fill="#999999" stroke="#263238" stroke-width="0.375371" stroke-miterlimit="10" stroke-linecap="round" stroke-linejoin="round"/>
<path d="M103.871 51.4727L99.7178 52.3323L99.5729 52.3724C99.0324 52.5222 98.5467 52.8244 98.1732 53.2429L97.975 53.4651C97.975 53.4651 97.9228 54.7782 97.0039 55.9388C95.7524 57.5199 95.3482 58.134 89.144 59.5581C89.0104 60.0634 88.8512 60.6767 88.6797 61.3565C90.218 61.0176 97.5538 59.3104 99.7238 57.1404C101.404 55.4598 103.029 52.8946 103.871 51.4727Z" fill="#BABABA" stroke="#263238" stroke-width="0.375371" stroke-miterlimit="10" stroke-linecap="round" stroke-linejoin="round"/>
<path d="M6.51611 54.9453C6.51611 54.9453 7.78824 57.7208 7.90385 59.8026C8.01947 61.8844 8.2507 67.551 8.2507 67.551L3.625 70.3265L6.51611 54.9453Z" fill="#263238" stroke="#263238" stroke-width="0.375371" stroke-miterlimit="10" stroke-linecap="round" stroke-linejoin="round"/>
<path d="M11.3761 57.7188L10.5664 73.5624" stroke="white" stroke-width="0.375371" stroke-miterlimit="10" stroke-linecap="round" stroke-linejoin="round"/>
<path d="M53.2378 62.2266L44.6797 78.5327" stroke="white" stroke-width="0.375371" stroke-miterlimit="10" stroke-linecap="round" stroke-linejoin="round"/>
<path opacity="0.49" d="M46.8667 66.4577C34.0298 66.2265 12.7286 63.6875 12.7286 63.6875L12.7617 64.6548L12.2992 70.0902L12.1836 71.4779C12.1836 71.4779 34.4378 74.8709 43.6896 74.5237L44.3334 73.0969L46.2992 67.5459L46.8667 66.4577Z" fill="white"/>
<path opacity="0.3" d="M240.492 43.2019C240.492 43.2019 240.306 37.9291 239.467 33.3897C238.311 31.3496 236.513 29.1825 233.761 27.8811C227.4 24.8744 220.346 32.5068 218.149 35.3983C215.951 38.2894 214.217 38.1738 214.217 32.854C214.217 27.5343 220.577 22.793 220.577 22.793C220.577 22.793 148.645 45.3441 147.836 45.4597C147.026 45.5754 146.679 50.0854 143.672 50.6639C140.666 51.2423 140.666 43.8408 129.448 41.0653C118.23 38.2898 108.747 54.1334 106.781 57.1402C104.815 60.1469 104.005 58.9904 104.005 58.9904L102.733 57.1402C102.733 57.1402 90.706 85.936 88.9714 88.9427C88.203 90.2745 85.4613 91.7869 82.6445 93.0598C83.9974 93.0609 84.92 93.0361 85.2031 92.9768C86.8948 92.6206 107.374 89.9495 107.374 89.9495C107.374 89.9495 105.771 77.0382 107.107 69.8262C108.443 62.6142 112.717 52.0178 116.813 48.1891C120.909 44.3603 125.539 41.6891 131.861 43.9151C138.183 46.141 141.834 53.2645 141.744 62.8811C141.655 72.4977 138.005 85.7648 138.005 85.7648L154.923 82.2923L201.758 71.6963C201.758 71.6963 218.32 69.9155 218.32 69.6483C218.32 69.381 216.094 59.8537 215.738 52.8193C215.382 45.7848 220.368 35.9903 223.93 31.7163C227.491 27.4423 232.389 28.4217 235.327 30.8259C238.265 33.2302 239.512 41.5998 239.512 41.5998L240.492 43.2019Z" fill="black"/>
<path opacity="0.35" d="M206.935 33.6641C206.935 33.6641 197.221 60.4941 196.295 61.1878C195.37 61.8818 179.18 66.0451 179.18 66.0451C179.18 66.0451 193.982 61.8818 195.486 59.5688C196.99 57.2561 206.935 33.6641 206.935 33.6641Z" fill="white"/>
<path d="M201.762 71.6959C201.762 71.6959 218.324 69.9152 218.324 69.6479C218.324 69.3806 216.098 59.8534 215.741 52.8189C215.738 52.7472 215.738 52.6736 215.735 52.6016C213.577 53.052 209.871 53.9094 208.668 54.7115C206.933 55.868 203.464 59.2216 194.212 62.4599C184.96 65.6979 148.763 73.6775 148.763 73.6775L145.756 70.7864L140.962 71.6509C139.865 79.0123 138.008 85.7645 138.008 85.7645L154.926 82.2919L201.762 71.6959Z" fill="#5E5E5E" stroke="#263238" stroke-width="0.375371" stroke-miterlimit="10" stroke-linecap="round" stroke-linejoin="round"/>
<path d="M152.11 80.9629C153.036 81.3097 154.192 80.9629 154.192 80.9629C154.192 80.9629 194.784 71.7111 196.981 70.5546C199.179 69.3981 206.927 55.9831 208.662 54.7109C206.927 55.8675 203.458 59.221 194.206 62.4593C184.954 65.6973 148.757 73.6769 148.757 73.6769L145.75 70.7858C145.75 70.7858 151.185 80.616 152.11 80.9629Z" fill="#263238" stroke="#263238" stroke-width="0.375371" stroke-miterlimit="10" stroke-linecap="round" stroke-linejoin="round"/>
<path d="M106.588 78.5508L92.8081 80.5192C90.9932 84.696 89.5014 88.024 88.9714 88.9425C88.203 90.2744 85.4613 91.7867 82.6445 93.0596C82.8089 93.0596 82.9662 93.0596 83.1175 93.0589C83.125 93.0589 83.1325 93.0589 83.1396 93.0589C83.4411 93.0574 83.7151 93.0544 83.9595 93.0499C83.9726 93.0495 83.9846 93.0495 83.9974 93.0491C84.1006 93.0469 84.1978 93.0446 84.2898 93.042C84.3082 93.0416 84.3269 93.0409 84.345 93.0405C84.5439 93.0341 84.7136 93.0262 84.8528 93.0164C84.8705 93.0153 84.8859 93.0138 84.9024 93.0127C84.9519 93.0089 84.9966 93.0048 85.0372 93.0003C85.0518 92.9988 85.0672 92.9973 85.0803 92.9954C85.1284 92.9894 85.1712 92.9834 85.2031 92.9767C86.8949 92.6204 107.374 89.9493 107.374 89.9493C107.374 89.9493 106.687 84.4032 106.588 78.5508Z" fill="#263238" stroke="#263238" stroke-width="0.375371" stroke-miterlimit="10" stroke-linecap="round" stroke-linejoin="round"/>
<path d="M146.19 64.7188C146.029 66.8497 145.875 68.1249 145.875 68.1249" stroke="#263238" stroke-width="0.375371" stroke-miterlimit="10" stroke-linecap="round" stroke-linejoin="round"/>
<path d="M141.594 32.1602C141.594 32.1602 145.641 37.4799 146.335 48.0038C146.691 53.3986 146.561 58.5506 146.349 62.2908" stroke="#263238" stroke-width="0.375371" stroke-miterlimit="10" stroke-linecap="round" stroke-linejoin="round"/>
<path d="M198.863 25.7188C199.79 27.3569 200.57 29.599 200.57 32.507C200.57 39.6769 192.822 58.8745 190.625 61.65" stroke="#263238" stroke-width="0.375371" stroke-miterlimit="10" stroke-linecap="round" stroke-linejoin="round"/>
<path d="M195.832 22.2148C195.832 22.2148 196.775 22.8353 197.819 24.1585" stroke="#263238" stroke-width="0.375371" stroke-miterlimit="10" stroke-linecap="round" stroke-linejoin="round"/>
<path d="M120.609 32.4423C122.44 32.0669 124.373 31.7253 126.415 31.4258" stroke="#263238" stroke-width="0.375371" stroke-miterlimit="10" stroke-linecap="round" stroke-linejoin="round"/>
<path d="M91.6797 46.2079C91.6797 46.2079 98.1458 37.7347 117.76 33.0703" stroke="#263238" stroke-width="0.375371" stroke-miterlimit="10" stroke-linecap="round" stroke-linejoin="round"/>
<path opacity="0.3" d="M38.4236 27.3549C37.4199 27.6765 36.531 28.0703 35.8343 28.5557C31.0971 31.8574 20.6182 43.7717 19.0391 46.6425C19.0391 46.6425 30.6666 36.4508 37.1259 33.0057C43.5857 29.5605 54.0371 26.1094 54.0371 26.1094C53.7128 26.1905 44.446 26.4934 38.4236 27.3549Z" fill="black"/>
<path opacity="0.61" d="M63.9688 51.2324C63.9688 51.2324 89.5203 33.8632 113.78 32.1406C113.78 32.1406 100.143 32.5712 84.3525 37.8827C68.5622 43.1938 63.9688 51.2324 63.9688 51.2324Z" fill="white"/>
<path opacity="0.3" d="M89.1507 59.5592C88.8121 59.7311 87.9653 59.8268 86.7784 60.0325C78.1051 61.5359 54.9755 69.2843 54.9755 69.2843C54.9755 69.2843 47.4583 77.958 46.0705 78.7673C44.6828 79.5769 44.3359 79.6926 43.7575 79.6926C43.1794 79.6926 13.2267 75.9918 11.6077 75.7605C9.98876 75.5293 10.3356 76.4542 9.98876 75.5293C9.64192 74.604 8.71663 59.8013 8.36978 57.9511C8.14418 56.7484 7.13744 54.0326 6.4599 52.2773C6.3593 52.7736 6.04211 54.3411 5.61719 56.4365L8.2872 78.75L43.4711 83.4981L86.5153 71.5125L89.1507 59.5592Z" fill="black"/>
<path opacity="0.24" d="M122.422 3.66914C102.655 2.86772 95.5316 4.82678 95.5316 4.82678C95.5316 4.82678 92.5932 6.07339 87.963 8.29934C83.3328 10.5253 60.4491 24.6832 59.826 25.4842C59.2025 26.2856 59.737 26.8198 60.4491 27.087C60.5959 27.1422 62.657 27.295 65.8559 27.5037C88.5171 21.6115 126.942 11.6214 150.591 5.47767C147.09 5.01559 137.717 4.28925 122.422 3.66914Z" fill="white" stroke="#263238" stroke-width="0.375371" stroke-miterlimit="10" stroke-linecap="round" stroke-linejoin="round"/>
<path d="M75.0307 85.1653L58.2617 91.97L81.8354 92.3345C81.8354 92.3345 87.0605 90.1472 88.0328 89.0537C89.005 87.9603 90.22 84.8008 90.22 84.8008L75.0307 85.1653Z" fill="#263238" stroke="#263238" stroke-width="0.375371" stroke-miterlimit="10" stroke-linecap="round" stroke-linejoin="round"/>
<path opacity="0.24" d="M39.7712 38.568C39.7712 38.568 34.1073 40.0492 30.0991 43.8832C27.2639 46.5949 25.9189 49.1268 26.1408 50.5648L59.2203 39.8833C53.4021 39.1243 43.0786 38.131 39.7712 38.568Z" fill="white" stroke="#263238" stroke-width="0.375371" stroke-miterlimit="10" stroke-linecap="round" stroke-linejoin="round"/>
<path d="M100.565 51.2835C100.565 51.2835 102.379 48.222 99.5441 47.4281C96.7093 46.6341 66.7734 55.1389 66.7734 55.1389L88.7717 47.9952C88.7717 47.9952 101.925 44.3665 104.08 45.1604C106.234 45.9544 106.121 47.7685 104.646 50.7167L100.565 51.2835Z" fill="white"/>
<path d="M98.1806 47.9929C98.1806 47.9929 92.0575 48.9002 91.4903 49.467C90.9235 50.0338 90.6964 52.8686 91.4903 53.0957C92.2842 53.3225 95.5725 53.3225 96.9332 52.7556C98.2939 52.1888 98.7474 51.1682 98.7474 50.3743C98.7474 49.5808 98.7474 47.6529 98.1806 47.9929Z" fill="white"/>
<path d="M7.92235 44.0249L9.28307 52.3026L6.49219 48.9892C6.49219 48.9892 7.91371 51.7613 9.0875 53.1956C10.2609 54.6299 11.4347 55.8036 11.4347 55.8036C11.4347 55.8036 11.2391 53.3911 11.1089 51.696C10.9786 50.0008 9.28307 46.3495 9.54395 44.6544C9.80484 42.9592 10.7827 41.5898 10.7827 41.5898C10.7827 41.5898 7.73542 42.2869 7.92235 44.0249Z" fill="white"/>
<path d="M89.1476 59.5586C89.1476 59.5586 83.3842 60.6918 78.9961 61.8146" stroke="#263238" stroke-width="0.375371" stroke-miterlimit="10" stroke-linecap="round" stroke-linejoin="round"/>
<path d="M73.8919 63.2422L54.9713 69.2826C54.9713 69.2826 46.0311 79.7754 44.5 79.6733" stroke="#263238" stroke-width="0.375371" stroke-miterlimit="10" stroke-linecap="round" stroke-linejoin="round"/>
<path d="M12.6602 75.6914L40.9297 79.2631" stroke="#263238" stroke-width="0.375371" stroke-miterlimit="10" stroke-linecap="round" stroke-linejoin="round"/>
<path d="M6.94141 53.4297C6.94141 53.4297 8.10618 56.733 8.36894 57.9503C8.6317 59.1676 9.75894 73.6659 9.75894 73.6659" stroke="#263238" stroke-width="0.375371" stroke-miterlimit="10" stroke-linecap="round" stroke-linejoin="round"/>
<path d="M99.9068 3.20641C97.8854 3.57202 95.9264 4.21691 94.0751 5.10691C92.7887 5.72552 90.848 6.59413 87.9655 7.76153C80.9311 10.611 60.5406 24.1453 58.7598 24.8574C56.979 25.5699 54.3969 26.0151 54.0406 26.104C53.6844 26.193 42.5543 26.5492 36.7664 27.6179C30.9786 28.6862 24.5676 32.1591 21.273 34.0289C17.9784 35.8986 13.1702 39.8167 12.5468 40.2619C11.9236 40.7071 8.18382 41.5085 7.29344 43.2893C6.40306 45.07 6.3141 47.8305 6.49202 48.9878C6.66995 50.1454 6.49202 52.1041 6.49202 52.1041C6.49202 52.1041 2.03975 74.0975 1.77286 75.2551C1.50559 76.4127 -0.364129 80.5084 0.348325 81.3988C1.06078 82.2892 3.28673 84.1589 6.04721 84.6041C8.80731 85.0493 17.1773 84.4262 17.1773 84.4262L44.0678 87.8098C44.0678 87.8098 51.9926 92.0837 55.5541 92.262C59.1156 92.44 83.5133 93.3303 85.205 92.9745C86.8968 92.6183 107.376 89.9471 107.376 89.9471C107.376 89.9471 105.773 77.0362 107.109 69.8239C108.445 62.6115 112.719 52.0155 116.815 48.1867C120.911 44.3579 125.541 41.6868 131.863 43.9128C138.185 46.1387 141.836 53.2621 141.746 62.8787C141.657 72.4954 138.007 85.7625 138.007 85.7625L154.925 82.2899L201.76 71.694C201.76 71.694 218.322 69.9132 218.322 69.6459C218.322 69.3787 216.096 59.8514 215.74 52.8169C215.384 45.7825 220.37 35.9879 223.932 31.714C227.493 27.44 232.391 28.4193 235.329 30.8236C238.267 33.2278 239.514 41.5978 239.514 41.5978L240.493 43.2007C240.493 43.2007 240.226 35.6321 238.891 30.8239C237.555 26.0158 236.397 21.8308 233.37 18.7145C230.343 15.5981 226.692 14.8857 224.11 14.7967C221.527 14.7078 216.007 13.5501 215.294 13.2829C214.582 13.0156 178.164 3.7552 178.164 3.7552C178.164 3.7552 160.712 0.0153776 139.163 0.193679C118.956 0.359968 116.446 0.213949 99.9068 3.20641Z" stroke="#263238" stroke-width="0.375371" stroke-miterlimit="10" stroke-linecap="round" stroke-linejoin="round"/>
</svg>
