<svg width="208" height="400" viewBox="0 0 208 400" fill="none" xmlns="http://www.w3.org/2000/svg">
<path d="M200.532 396.766H6.67122C4.77329 396.766 3.23438 395.227 3.23438 393.329V6.67122C3.23438 4.77329 4.77329 3.23438 6.67122 3.23438H200.531C202.429 3.23438 203.968 4.77329 203.968 6.67122V393.329C203.969 395.227 202.43 396.766 200.532 396.766Z" fill="#FF7D01" fill-opacity="0.1"/>
<path d="M200.53 400H6.67122C2.99244 400 0 397.008 0 393.329V6.67122C0 2.99244 2.99309 0 6.67122 0H200.531C204.21 0 207.202 2.99244 207.202 6.67122V393.329C207.202 397.008 204.209 400 200.53 400ZM6.67122 6.46874C6.55931 6.46874 6.46874 6.55996 6.46874 6.67122V393.329C6.46874 393.44 6.55996 393.531 6.67122 393.531H200.531C200.643 393.531 200.734 393.44 200.734 393.329V6.67122C200.734 6.55996 200.642 6.46874 200.531 6.46874H6.67122Z" fill="#333333"/>
<path d="M103.599 30.3517C98.8694 30.3517 95.0212 26.5035 95.0212 21.7735C95.0212 17.0436 98.8694 13.1953 103.599 13.1953C108.33 13.1953 112.178 17.0436 112.178 21.7735C112.178 26.5035 108.329 30.3517 103.599 30.3517ZM103.599 16.429C100.653 16.429 98.2556 18.8264 98.2556 21.7729C98.2556 24.7194 100.653 27.1167 103.599 27.1167C106.547 27.1167 108.944 24.7194 108.944 21.7729C108.944 18.8264 106.546 16.429 103.599 16.429Z" fill="#333333"/>
<path d="M103.015 134.479C109.644 134.479 115.018 129.105 115.018 122.476C115.018 115.847 109.644 110.473 103.015 110.473C96.3856 110.473 91.0115 115.847 91.0115 122.476C91.0115 129.105 96.3856 134.479 103.015 134.479Z" fill="#FF7D01"/>
<path d="M127.541 142.733V162.265C127.541 164.323 125.872 165.992 123.813 165.992H82.2261C80.1673 165.992 78.4986 164.323 78.4986 162.265V142.733C78.4986 137.476 82.76 133.215 88.0167 133.215H90.4902C93.5135 136.747 98.0049 138.978 103.02 138.978C108.034 138.978 112.526 136.747 115.549 133.215H118.023C123.279 133.215 127.541 137.476 127.541 142.733Z" fill="#333333"/>
<circle cx="103.499" cy="138.473" r="50" fill="#FF7D01" fill-opacity="0.1"/>
<circle cx="103.499" cy="138.473" r="40" fill="#FF7D01" fill-opacity="0.2"/>
<path d="M169.485 311.53H37.3671C28.327 311.53 20.9986 304.202 20.9986 295.162V223.841C20.9986 214.801 28.327 207.473 37.3671 207.473H169.485C178.525 207.473 185.854 214.801 185.854 223.841V295.162C185.855 304.202 178.526 311.53 169.485 311.53Z" fill="#333333"/>
<path d="M166.44 253.918H40.5571C20.9986 253.918 20.9986 253.918 20.9986 253.918V224.922C20.9986 224.922 29.7546 224.918 40.5571 224.918H166.44C177.243 224.918 185.999 224.918 185.999 224.918V253.756C185.999 253.756 177.239 253.918 166.44 253.918Z" fill="#FF7D01"/>
<path d="M59.0791 270.349H36.02C34.5852 270.349 33.4215 269.186 33.4215 267.751C33.4215 266.316 34.5846 265.152 36.02 265.152H59.0791C60.5139 265.152 61.6776 266.315 61.6776 267.751C61.6776 269.186 60.5139 270.349 59.0791 270.349Z" fill="white" fill-opacity="0.8"/>
<path d="M103.8 282.72H36.02C34.5852 282.72 33.4215 281.557 33.4215 280.122C33.4215 278.687 34.5846 277.523 36.02 277.523H103.8C105.234 277.523 106.398 278.686 106.398 280.122C106.397 281.557 105.234 282.72 103.8 282.72Z" fill="white" fill-opacity="0.8"/>
<path d="M77.9944 293.731H35.6649C34.4261 293.731 33.4215 292.727 33.4215 291.488V290.778C33.4215 289.54 34.4261 288.535 35.6649 288.535H77.9944C79.2332 288.535 80.2378 289.54 80.2378 290.778V291.488C80.2378 292.727 79.2338 293.731 77.9944 293.731Z" fill="white" fill-opacity="0.8"/>
<path d="M96.3308 270.349H73.2717C71.8369 270.349 70.6732 269.186 70.6732 267.751C70.6732 266.316 71.8363 265.152 73.2717 265.152H96.3308C97.7656 265.152 98.9293 266.315 98.9293 267.751C98.9293 269.186 97.7656 270.349 96.3308 270.349Z" fill="white" fill-opacity="0.8"/>
<path d="M133.584 270.349H110.525C109.09 270.349 107.926 269.186 107.926 267.751C107.926 266.316 109.089 265.152 110.525 265.152H133.584C135.019 265.152 136.182 266.315 136.182 267.751C136.182 269.186 135.019 270.349 133.584 270.349Z" fill="white" fill-opacity="0.8"/>
<path d="M170.832 270.349H147.772C146.338 270.349 145.174 269.186 145.174 267.751C145.174 266.316 146.337 265.152 147.772 265.152H170.832C172.266 265.152 173.43 266.315 173.43 267.751C173.43 269.186 172.266 270.349 170.832 270.349Z" fill="white" fill-opacity="0.8"/>
</svg>
