<svg width="83" height="54" viewBox="0 0 83 54" fill="none" xmlns="http://www.w3.org/2000/svg">
<mask id="mask0_12894_559" style="mask-type:luminance" maskUnits="userSpaceOnUse" x="0" y="0" width="83" height="54">
<path d="M82.3055 0H0V53.8861H82.3055V0Z" fill="white"/>
</mask>
<g mask="url(#mask0_12894_559)">
<path d="M65.7872 49.2261C67.779 49.2261 69.6571 48.2969 70.8645 46.7128C74.402 42.0716 76.5636 35.8684 76.5636 29.0528C76.5638 14.7249 67.0483 3.11195 55.2225 3.01236C50.8909 2.97582 46.854 4.49205 43.4676 7.12863C38.5084 10.9897 32.6048 12.7781 26.771 11.7519C25.7551 11.5733 24.7163 11.4806 23.6596 11.4806C11.8959 11.4795 2.24491 23.0875 2.16458 37.3394C2.14746 40.3672 2.55718 43.2764 3.32476 45.9839C3.87061 47.909 5.64511 49.2262 7.64596 49.2262L65.7872 49.2261Z" fill="#FF7D01" fill-opacity="0.1"/>
<path d="M19.624 30.1089C19.624 30.1089 7.38374 25.9233 6.9332 21.9981C6.48266 18.073 12.7265 22.3051 12.7265 22.3051C12.7265 22.3051 3.87077 15.3753 6.17023 13.3429C8.46968 11.3104 11.1644 15.0725 11.1644 15.0725C11.1644 15.0725 6.48842 8.96572 9.39742 7.0773C12.3064 5.18872 14.5914 12.9536 14.5914 12.9536C14.5914 12.9536 13.4666 6.66627 16.7616 8.07715C20.0566 9.48803 19.2881 19.4312 19.2881 19.4312C19.2881 19.4312 19.4812 13.3348 23.2277 15.0672C26.9743 16.7994 19.624 30.1089 19.624 30.1089Z" fill="#333333"/>
<path d="M20.4823 31.7192C20.4823 31.7192 11.7023 39.4192 8.42688 38.0071C5.15162 36.5949 11.272 33.61 11.272 33.61C11.272 33.61 1.86549 37.4267 1.30845 34.7128C0.751238 31.9988 4.90783 31.5809 4.90783 31.5809C4.90783 31.5809 -1.97505 32.4955 -2.14542 29.3692C-2.31579 26.2429 4.79013 27.9453 4.79013 27.9453C4.79013 27.9453 -0.637585 25.9989 1.94845 24.0539C4.53449 22.1088 11.9724 27.1812 11.9724 27.1812C11.9724 27.1812 7.28695 24.2889 10.3275 22.135C13.3682 19.9811 20.4823 31.7192 20.4823 31.7192Z" fill="#333333"/>
<path d="M19.5234 31.964C19.5234 31.964 20.2871 20.3107 23.6017 18.9933C26.9163 17.6759 24.699 24.1143 24.699 24.1143C24.699 24.1143 28.6516 14.7643 30.9646 16.2892C33.2775 17.8144 30.634 21.049 30.634 21.049C30.634 21.049 34.8543 15.5353 37.1854 17.6254C39.5164 19.7154 33.288 23.5364 33.288 23.5364C33.288 23.5364 38.5023 21.0748 38.0491 24.2788C37.5959 27.4828 28.7497 29.1556 28.7497 29.1556C28.7497 29.1556 34.108 27.8874 33.481 31.5605C32.8541 35.2338 19.5234 31.964 19.5234 31.964Z" fill="#333333"/>
<path d="M18.5171 25.9556C18.0866 25.1711 17.6311 24.4082 17.2703 23.5888C16.8894 22.7244 16.6413 21.8334 16.5009 20.9124C16.4905 20.8449 16.5722 20.7917 16.6225 20.8342C17.3514 21.4476 17.9513 22.2378 18.3016 23.2263C18.5725 23.9908 18.6762 24.8418 18.6767 25.7207C19.1113 24.8051 19.4935 23.8654 19.8201 22.9034C18.5832 21.9615 17.7773 20.5868 17.2082 19.0813C17.1862 19.0225 17.2285 18.9339 17.2961 18.9603C17.5997 19.0786 17.8752 19.3018 18.1329 19.5122C18.4204 19.7463 18.6784 20.0136 18.9101 20.3244C19.35 20.9116 19.8125 21.6769 19.9434 22.5284C20.2218 21.6665 20.4565 20.7876 20.6471 19.8938C19.4606 18.9692 18.6478 17.5323 18.1139 16.0317C18.0915 15.9677 18.1485 15.8807 18.2104 15.9168C18.8626 16.3002 19.5052 16.7731 20.0027 17.4383C20.3903 17.9565 20.6261 18.6125 20.7661 19.3086C20.7976 19.143 20.8262 18.9766 20.8545 18.8098C20.9882 18.0264 21.0884 17.2325 21.1526 16.4291C19.9883 15.061 18.9083 13.4063 18.4797 11.511C18.4632 11.4377 18.532 11.3951 18.5827 11.4226C19.4079 11.8703 20.0911 12.6631 20.6183 13.595C20.926 14.137 21.135 14.7178 21.2173 15.3406C21.242 14.7123 21.245 14.0786 21.2247 13.4399C20.7665 12.5979 20.5095 11.6718 20.4669 10.679C20.4386 10.0212 20.5149 9.40873 20.5811 8.7758C20.5888 8.70123 20.6702 8.69448 20.7126 8.75884C21.6326 10.1312 21.9169 12.0683 21.3787 13.4377C21.3785 13.4387 21.3785 13.4399 21.3783 13.4409C21.3996 14.1163 21.3948 14.7861 21.3665 15.45C21.581 14.8735 21.8718 14.3171 22.1433 13.8292C22.5374 13.1255 22.9932 12.4708 23.6014 12.1404C23.6518 12.1131 23.7184 12.2066 23.7069 12.2835C23.4238 14.1918 22.5046 15.6539 21.3131 16.4643C21.3103 16.4663 21.3075 16.4672 21.3047 16.4687C21.2325 17.369 21.1153 18.2571 20.9563 19.1318C21.6847 17.8847 22.7171 16.7899 23.7171 16.0016C23.7759 15.9555 23.8409 16.0631 23.8185 16.1472C23.3383 18.0065 22.218 19.6184 20.8121 19.8698C20.6228 20.7669 20.3885 21.649 20.111 22.5144C21.1747 21.1437 22.5229 20.1371 23.9094 19.5305C23.9701 19.504 24.0307 19.6044 23.9899 19.6893C23.0689 21.6097 21.5191 22.783 19.9623 22.9608C19.6501 23.8782 19.2892 24.7766 18.8789 25.6524C20.3416 24.3332 21.9671 23.2244 23.6639 23.0272C23.7403 23.0188 23.7328 23.1592 23.6852 23.2217C22.287 25.0616 20.4086 25.9459 18.6706 26.0853" fill="#FF7D01"/>
<path d="M66.3946 37.1684C66.3946 37.1684 62.8137 24.7377 65.7729 22.1199C68.7323 19.5021 68.8399 27.0444 68.8399 27.0444C68.8399 27.0444 69.4472 15.8161 72.4303 16.5366C75.4133 17.2571 73.8734 21.6209 73.8734 21.6209C73.8734 21.6209 76.2005 14.2901 79.4147 15.5925C82.6291 16.8951 77.5734 23.2162 77.5734 23.2162C77.5734 23.2162 82.0826 18.6925 82.8136 22.2017C83.5446 25.7109 74.9542 30.7764 74.9542 30.7764C74.9542 30.7764 80.0618 27.4424 80.7881 31.5057C81.5145 35.5691 66.3946 37.1684 66.3946 37.1684Z" fill="#FF7D01"/>
<path d="M65.5666 38.7972C65.5666 38.7972 54.2256 36.0114 53.5069 32.5176C52.7882 29.0239 58.7409 32.331 58.7409 32.331C58.7409 32.331 50.2242 26.8071 52.1294 24.7957C54.0348 22.7845 56.7584 25.952 56.7584 25.952C56.7584 25.952 52.066 20.8342 54.5309 18.9037C56.9958 16.9731 59.6709 23.7729 59.6709 23.7729C59.6709 23.7729 58.1571 18.209 61.2329 19.2146C64.3087 20.2202 64.4117 29.2225 64.4117 29.2225C64.4117 29.2225 64.0983 23.7251 67.6056 24.9836C71.1127 26.2419 65.5666 38.7972 65.5666 38.7972Z" fill="#FF7D01"/>
<path d="M64.8203 38.1508C64.8203 38.1508 74.8096 32.1013 77.7882 34.0635C80.7668 36.0257 74.2193 37.8965 74.2193 37.8965C74.2193 37.8965 84.1475 35.7802 84.2224 38.5496C84.2973 41.319 80.1316 41.0051 80.1316 41.0051C80.1316 41.0051 87.0685 41.3059 86.6907 44.4139C86.3129 47.5219 79.6131 44.6053 79.6131 44.6053C79.6131 44.6053 84.6177 47.4692 81.7318 48.9331C78.846 50.397 72.4074 44.1043 72.4074 44.1043C72.4074 44.1043 76.5163 47.7698 73.1463 49.3601C69.7764 50.9504 64.8203 38.1508 64.8203 38.1508Z" fill="#FF7D01"/>
<path d="M64.625 43.6525C64.6754 42.7592 64.693 41.8708 64.8211 40.9847C64.9557 40.0498 65.2173 39.1626 65.586 38.3071C65.613 38.2444 65.7103 38.2424 65.7307 38.3051C66.024 39.2115 66.1144 40.1996 65.8877 41.2235C65.7126 42.0154 65.3498 42.7922 64.8848 43.5379C65.7383 42.9916 66.5602 42.3968 67.3468 41.7537C66.7967 40.2997 66.8412 38.7068 67.1557 37.1283C67.1682 37.0667 67.251 37.0141 67.2943 37.0723C67.4891 37.3334 67.6046 37.6687 67.7118 37.9836C67.8318 38.3346 67.909 38.6977 67.9411 39.0842C68.0033 39.8153 67.9901 40.7093 67.6502 41.501C68.3427 40.9173 69.0074 40.2963 69.6425 39.639C69.126 38.2263 69.1974 36.5769 69.5393 35.0213C69.5541 34.9551 69.6486 34.9117 69.6818 34.9749C70.0321 35.6455 70.3266 36.3869 70.3961 37.2147C70.4504 37.8597 70.3029 38.5408 70.0532 39.2055C70.1676 39.0818 70.28 38.9557 70.3925 38.8294C70.9207 38.2357 71.4262 37.6154 71.9062 36.968C71.6434 35.1908 71.6035 33.2153 72.2439 31.3806C72.2687 31.3098 72.3497 31.3101 72.378 31.3602C72.8407 32.177 73.0004 33.2114 72.954 34.2809C72.928 34.9036 72.7976 35.5069 72.5375 36.0789C72.8913 35.5589 73.2295 35.0229 73.5505 34.4707C73.6078 33.5138 73.8803 32.592 74.37 31.7274C74.6944 31.1544 75.0836 30.6754 75.4748 30.1737C75.5209 30.1144 75.5934 30.1519 75.5953 30.229C75.6488 31.8803 74.8638 33.6741 73.6821 34.5505C73.6814 34.5513 73.6807 34.5523 73.6801 34.553C73.3403 35.1372 72.9815 35.7028 72.606 36.2508C73.0932 35.8755 73.6347 35.5576 74.1234 35.2873C74.8302 34.8991 75.5637 34.5852 76.2546 34.6272C76.3117 34.6307 76.3188 34.7452 76.2684 34.8045C75.0176 36.2732 73.4635 37.0266 72.0236 37.0829C72.0202 37.083 72.0174 37.0824 72.0142 37.0822C71.4761 37.8075 70.9062 38.4987 70.308 39.1565C71.5862 38.4845 73.0421 38.1026 74.3078 37.9637C74.382 37.9558 74.3802 38.0816 74.3166 38.141C72.9245 39.4638 71.1207 40.2376 69.7949 39.7061C69.1592 40.3669 68.4934 40.9911 67.7995 41.5781C69.4277 40.9787 71.1044 40.8391 72.6019 41.0589C72.6674 41.0686 72.6658 41.1858 72.5861 41.2362C70.7877 42.3773 68.8517 42.5516 67.4372 41.878C66.6864 42.4907 65.9045 43.0617 65.0925 43.5872C67.0319 43.243 68.9981 43.1634 70.5416 43.8948C70.6109 43.9282 70.5301 44.0433 70.4567 44.0711C68.2962 44.891 66.2346 44.6464 64.6866 43.8441" fill="#E8DBCF"/>
</g>
<path d="M18.9565 49.2351H14.9688C14.6139 49.2351 14.2646 49.1744 13.939 49.0554C12.9744 48.7026 11.1492 47.7676 10.9996 45.7108C10.7953 42.9043 11.5935 39.8581 13.791 38.1797H18.9565" fill="#1B212D"/>
<path d="M18.9521 49.235C21.398 49.235 23.3808 46.7602 23.3808 43.7073C23.3808 40.6545 21.398 38.1797 18.9521 38.1797C16.5062 38.1797 14.5234 40.6545 14.5234 43.7073C14.5234 46.7602 16.5062 49.235 18.9521 49.235Z" fill="#263649"/>
<path d="M18.9535 46.1543C20.0367 46.1543 20.9149 45.0582 20.9149 43.7061C20.9149 42.3539 20.0367 41.2578 18.9535 41.2578C17.8703 41.2578 16.9922 42.3539 16.9922 43.7061C16.9922 45.0582 17.8703 46.1543 18.9535 46.1543Z" fill="#333333"/>
<path d="M50.5034 49.2351H46.5157C46.1608 49.2351 45.8115 49.1744 45.4859 49.0554C44.5213 48.7026 42.6961 47.7676 42.5464 45.7108C42.3422 42.9043 43.1404 39.8581 45.3379 38.1797H50.5034" fill="#1B212D"/>
<path d="M50.499 49.235C52.9449 49.235 54.9277 46.7602 54.9277 43.7073C54.9277 40.6545 52.9449 38.1797 50.499 38.1797C48.0531 38.1797 46.0703 40.6545 46.0703 43.7073C46.0703 46.7602 48.0531 49.235 50.499 49.235Z" fill="#263649"/>
<path d="M50.5004 46.1543C51.5836 46.1543 52.4617 45.0582 52.4617 43.7061C52.4617 42.3539 51.5836 41.2578 50.5004 41.2578C49.4172 41.2578 48.5391 42.3539 48.5391 43.7061C48.5391 45.0582 49.4172 46.1543 50.5004 46.1543Z" fill="#333333"/>
<path d="M11.822 33.501H18.937V30.5153C18.937 29.7626 18.3268 29.1523 17.574 29.1523H9.46875V31.1479C9.46875 32.4474 10.5224 33.501 11.822 33.501Z" fill="#FF7D01"/>
<path d="M62.8393 49.2351H58.8516C58.4967 49.2351 58.1474 49.1744 57.8218 49.0554C56.8572 48.7026 55.032 47.7676 54.8824 45.7108C54.6781 42.9043 55.4763 39.8581 57.6739 38.1797H62.8393" fill="#1B212D"/>
<path d="M38.4097 49.2351H34.422C34.0671 49.2351 33.7177 49.1744 33.3921 49.0554C32.4275 48.7026 30.6023 47.7676 30.4527 45.7108C30.2484 42.9043 31.0466 39.8581 33.2442 38.1797H38.4097" fill="#1B212D"/>
<path d="M9.6365 37.081C10.1451 36.9345 10.5646 36.5761 10.7866 36.0956C12.4449 32.5069 20.4728 17.1803 37.2543 15.6024C46.6924 14.7149 57.9139 14.6845 62.0455 14.8893C65.5565 15.0633 68.4257 17.7535 68.8076 21.248C69.4193 26.8453 69.9133 35.4536 68.2625 41.9159C67.6209 44.428 65.3646 46.1899 62.7718 46.1953L29.4003 46.2659L10.9081 46.3051C10.6248 46.3058 10.3453 46.2404 10.0916 46.1142L8.81031 45.4769C8.19154 45.1691 7.7996 44.5382 7.79812 43.847L7.78907 39.589C7.78824 39.2122 7.90413 38.8443 8.12076 38.536L8.64834 37.7852C8.88785 37.4448 9.23649 37.1962 9.6365 37.081Z" fill="#FF7D01"/>
<path d="M34.0284 46.2627H28.4297V38.7105C28.4297 38.1153 28.9122 37.6328 29.5074 37.6328H32.806C33.4813 37.6328 34.0286 38.1801 34.0286 38.8554L34.0284 46.2627Z" fill="#333333"/>
<path d="M23.7342 40.9567H11.4779C11.3477 40.9567 11.2422 40.8512 11.2422 40.721V40.5131C11.2422 40.3829 11.3477 40.2773 11.4779 40.2773H23.7342C23.8644 40.2773 23.9699 40.3829 23.9699 40.5131V40.721C23.9701 40.8512 23.8644 40.9567 23.7342 40.9567Z" fill="#263649"/>
<path d="M23.7342 42.4997H11.4779C11.3477 42.4997 11.2422 42.3941 11.2422 42.2639V42.056C11.2422 41.9258 11.3477 41.8203 11.4779 41.8203H23.7342C23.8644 41.8203 23.9699 41.9258 23.9699 42.056V42.2639C23.9701 42.3941 23.8644 42.4997 23.7342 42.4997Z" fill="#263649"/>
<path d="M23.7342 44.0387H11.4779C11.3477 44.0387 11.2422 43.9332 11.2422 43.803V43.5951C11.2422 43.4649 11.3477 43.3594 11.4779 43.3594H23.7342C23.8644 43.3594 23.9699 43.4649 23.9699 43.5951V43.803C23.9701 43.9332 23.8644 44.0387 23.7342 44.0387Z" fill="#263649"/>
<path d="M26.8137 44.6724H26.1615C25.7531 44.6724 25.4219 44.3414 25.4219 43.9328V40.1693C25.4219 39.7609 25.7529 39.4297 26.1615 39.4297H26.8137C27.2221 39.4297 27.5533 39.7607 27.5533 40.1693V43.9328C27.5531 44.3412 27.2221 44.6724 26.8137 44.6724Z" fill="#333333"/>
<path d="M9.16522 44.6724H8.51303C8.10463 44.6724 7.77344 44.3414 7.77344 43.9328V40.1693C7.77344 39.7609 8.10447 39.4297 8.51303 39.4297H9.16522C9.57362 39.4297 9.90482 39.7607 9.90482 40.1693V43.9328C9.90482 44.3412 9.57379 44.6724 9.16522 44.6724Z" fill="#333333"/>
<path d="M27.9237 36.7799H24.9219V35.744C24.9219 34.4464 25.9737 33.3945 27.2714 33.3945H30.2732V34.4304C30.2732 35.7279 29.2214 36.7799 27.9237 36.7799Z" fill="#E8DBCF"/>
<mask id="mask1_12894_559" style="mask-type:luminance" maskUnits="userSpaceOnUse" x="7" y="14" width="63" height="33">
<path d="M9.64176 37.0606C10.1507 36.9153 10.5708 36.5577 10.7939 36.0776C12.4597 32.4925 20.5201 17.1827 37.3048 15.6403C46.7447 14.7728 57.9664 14.7662 62.0975 14.9797C65.6082 15.1611 68.4716 17.8574 68.8461 21.3528C69.4459 26.9512 69.9216 35.5607 68.2573 42.0195C67.6102 44.5304 65.3502 46.2874 62.7574 46.2874H29.386H10.8938C10.6105 46.2874 10.3312 46.2214 10.0778 46.0948L8.7978 45.4548C8.17968 45.1457 7.78906 44.5139 7.78906 43.8227V39.5649C7.78906 39.1881 7.90577 38.8205 8.12306 38.5125L8.65228 37.7629C8.89245 37.4228 9.24159 37.175 9.64176 37.0606Z" fill="white"/>
</mask>
<g mask="url(#mask1_12894_559)">
<path d="M30.9141 36.8193C30.9141 36.8193 38.6807 27.4708 44.2183 21.5083C46.4581 19.0964 49.698 17.7148 53.1031 17.7148H70.2103V47.5063H34.2441" fill="#333333"/>
</g>
<mask id="mask2_12894_559" style="mask-type:luminance" maskUnits="userSpaceOnUse" x="7" y="14" width="63" height="33">
<path d="M9.64176 37.0606C10.1507 36.9153 10.5708 36.5577 10.7939 36.0776C12.4597 32.4925 20.5201 17.1827 37.3048 15.6403C46.7447 14.7728 57.9664 14.7662 62.0975 14.9797C65.6082 15.1611 68.4716 17.8574 68.8461 21.3528C69.4459 26.9512 69.9216 35.5607 68.2573 42.0195C67.6102 44.5304 65.3502 46.2874 62.7574 46.2874H29.386H10.8938C10.6105 46.2874 10.3312 46.2214 10.0778 46.0948L8.7978 45.4548C8.17968 45.1457 7.78906 44.5139 7.78906 43.8227V39.5649C7.78906 39.1881 7.90577 38.8205 8.12306 38.5125L8.65228 37.7629C8.89245 37.4228 9.24159 37.175 9.64176 37.0606Z" fill="white"/>
</mask>
<g mask="url(#mask2_12894_559)">
<path d="M10.9354 36.819H13.9373V35.7831C13.9373 34.4855 12.8854 33.4336 11.5878 33.4336H8.58594V34.4695C8.58594 35.767 9.6378 36.819 10.9354 36.819Z" fill="#E8DBCF"/>
</g>
<mask id="mask3_12894_559" style="mask-type:luminance" maskUnits="userSpaceOnUse" x="7" y="14" width="63" height="33">
<path d="M9.64176 37.0606C10.1507 36.9153 10.5708 36.5577 10.7939 36.0776C12.4597 32.4925 20.5201 17.1827 37.3048 15.6403C46.7447 14.7728 57.9664 14.7662 62.0975 14.9797C65.6082 15.1611 68.4716 17.8574 68.8461 21.3528C69.4459 26.9512 69.9216 35.5607 68.2573 42.0195C67.6102 44.5304 65.3502 46.2874 62.7574 46.2874H29.386H10.8938C10.6105 46.2874 10.3312 46.2214 10.0778 46.0948L8.7978 45.4548C8.17968 45.1457 7.78906 44.5139 7.78906 43.8227V39.5649C7.78906 39.1881 7.90577 38.8205 8.12306 38.5125L8.65228 37.7629C8.89245 37.4228 9.24159 37.175 9.64176 37.0606Z" fill="white"/>
</mask>
<g mask="url(#mask3_12894_559)">
<path d="M35.2657 36.8203H6V37.9125H35.2657V36.8203Z" fill="#333333"/>
</g>
<mask id="mask4_12894_559" style="mask-type:luminance" maskUnits="userSpaceOnUse" x="7" y="14" width="63" height="33">
<path d="M9.64176 37.0606C10.1507 36.9153 10.5708 36.5577 10.7939 36.0776C12.4597 32.4925 20.5201 17.1827 37.3048 15.6403C46.7447 14.7728 57.9664 14.7662 62.0975 14.9797C65.6082 15.1611 68.4716 17.8574 68.8461 21.3528C69.4459 26.9512 69.9216 35.5607 68.2573 42.0195C67.6102 44.5304 65.3502 46.2874 62.7574 46.2874H29.386H10.8938C10.6105 46.2874 10.3312 46.2214 10.0778 46.0948L8.7978 45.4548C8.17968 45.1457 7.78906 44.5139 7.78906 43.8227V39.5649C7.78906 39.1881 7.90577 38.8205 8.12306 38.5125L8.65228 37.7629C8.89245 37.4228 9.24159 37.175 9.64176 37.0606Z" fill="white"/>
</mask>
<g mask="url(#mask4_12894_559)">
<path d="M35.0016 45.5938H33.7031V46.3185H35.0016V45.5938Z" fill="#1B212D"/>
</g>
<mask id="mask5_12894_559" style="mask-type:luminance" maskUnits="userSpaceOnUse" x="7" y="14" width="63" height="33">
<path d="M9.64176 37.0606C10.1507 36.9153 10.5708 36.5577 10.7939 36.0776C12.4597 32.4925 20.5201 17.1827 37.3048 15.6403C46.7447 14.7728 57.9664 14.7662 62.0975 14.9797C65.6082 15.1611 68.4716 17.8574 68.8461 21.3528C69.4459 26.9512 69.9216 35.5607 68.2573 42.0195C67.6102 44.5304 65.3502 46.2874 62.7574 46.2874H29.386H10.8938C10.6105 46.2874 10.3312 46.2214 10.0778 46.0948L8.7978 45.4548C8.17968 45.1457 7.78906 44.5139 7.78906 43.8227V39.5649C7.78906 39.1881 7.90577 38.8205 8.12306 38.5125L8.65228 37.7629C8.89245 37.4228 9.24159 37.175 9.64176 37.0606Z" fill="white"/>
</mask>
<g mask="url(#mask5_12894_559)">
<path d="M33.0078 46.3463H33.3026C33.886 46.3463 34.311 45.792 34.1579 45.2291C34.0697 44.9043 34.0001 44.5775 34.0001 44.3555L33.0078 46.3463Z" fill="#333333"/>
</g>
<mask id="mask6_12894_559" style="mask-type:luminance" maskUnits="userSpaceOnUse" x="7" y="14" width="63" height="33">
<path d="M9.64176 37.0606C10.1507 36.9153 10.5708 36.5577 10.7939 36.0776C12.4597 32.4925 20.5201 17.1827 37.3048 15.6403C46.7447 14.7728 57.9664 14.7662 62.0975 14.9797C65.6082 15.1611 68.4716 17.8574 68.8461 21.3528C69.4459 26.9512 69.9216 35.5607 68.2573 42.0195C67.6102 44.5304 65.3502 46.2874 62.7574 46.2874H29.386H10.8938C10.6105 46.2874 10.3312 46.2214 10.0778 46.0948L8.7978 45.4548C8.17968 45.1457 7.78906 44.5139 7.78906 43.8227V39.5649C7.78906 39.1881 7.90577 38.8205 8.12306 38.5125L8.65228 37.7629C8.89245 37.4228 9.24159 37.175 9.64176 37.0606Z" fill="white"/>
</mask>
<g mask="url(#mask6_12894_559)">
<path d="M58.9283 45.7969H57.5469V46.561H58.9283V45.7969Z" fill="#1B212D"/>
</g>
<mask id="mask7_12894_559" style="mask-type:luminance" maskUnits="userSpaceOnUse" x="7" y="14" width="63" height="33">
<path d="M9.64176 37.0606C10.1507 36.9153 10.5708 36.5578 10.7939 36.0776C12.4597 32.4925 20.5201 17.1827 37.3048 15.6403C46.7448 14.7728 57.9664 14.7662 62.0975 14.9797C65.6082 15.1611 68.4716 17.8574 68.8461 21.3528C69.4459 26.9512 69.9217 35.5607 68.2573 42.0195C67.6102 44.5304 65.3502 46.2874 62.7575 46.2874H29.386H10.8938C10.6105 46.2874 10.3312 46.2214 10.0778 46.0948L8.7978 45.4548C8.17968 45.1457 7.78906 44.5139 7.78906 43.8227V39.5649C7.78906 39.1881 7.90577 38.8205 8.12306 38.5125L8.65228 37.7629C8.89245 37.4228 9.24159 37.175 9.64176 37.0606Z" fill="white"/>
</mask>
<g mask="url(#mask7_12894_559)">
<path d="M57.0156 46.2875L58.349 46.2783C58.6334 46.2827 58.8402 46.0096 58.7585 45.7372L58.4117 44.8906L57.0156 46.2875Z" fill="#333333"/>
</g>
<path d="M38.4053 49.235C40.8512 49.235 42.834 46.7602 42.834 43.7073C42.834 40.6545 40.8512 38.1797 38.4053 38.1797C35.9594 38.1797 33.9766 40.6545 33.9766 43.7073C33.9766 46.7602 35.9594 49.235 38.4053 49.235Z" fill="#263649"/>
<path d="M38.4067 47.1706C39.9386 47.1706 41.1805 45.6205 41.1805 43.7084C41.1805 41.7962 39.9386 40.2461 38.4067 40.2461C36.8747 40.2461 35.6328 41.7962 35.6328 43.7084C35.6328 45.6205 36.8747 47.1706 38.4067 47.1706Z" fill="#FF7D01"/>
<path d="M38.4067 46.1543C39.4899 46.1543 40.368 45.0582 40.368 43.7061C40.368 42.3539 39.4899 41.2578 38.4067 41.2578C37.3234 41.2578 36.4453 42.3539 36.4453 43.7061C36.4453 45.0582 37.3234 46.1543 38.4067 46.1543Z" fill="#333333"/>
<path d="M62.8349 49.235C65.2808 49.235 67.2636 46.7602 67.2636 43.7073C67.2636 40.6545 65.2808 38.1797 62.8349 38.1797C60.389 38.1797 58.4062 40.6545 58.4062 43.7073C58.4062 46.7602 60.389 49.235 62.8349 49.235Z" fill="#263649"/>
<path d="M62.8364 47.1706C64.3683 47.1706 65.6102 45.6205 65.6102 43.7084C65.6102 41.7962 64.3683 40.2461 62.8364 40.2461C61.3044 40.2461 60.0625 41.7962 60.0625 43.7084C60.0625 45.6205 61.3044 47.1706 62.8364 47.1706Z" fill="#FF7D01"/>
<path d="M62.8363 46.1543C63.9196 46.1543 64.7977 45.0582 64.7977 43.7061C64.7977 42.3539 63.9196 41.2578 62.8363 41.2578C61.7531 41.2578 60.875 42.3539 60.875 43.7061C60.875 45.0582 61.7531 46.1543 62.8363 46.1543Z" fill="#333333"/>
<path d="M25.4224 35.957H13.2578V36.8194H25.4224V35.957Z" fill="#E8DBCF"/>
<path d="M13.7828 30.8101C13.6763 30.9796 13.5637 31.1452 13.4531 31.3276H29.7587C30.6273 31.3276 31.4588 30.9892 32.0945 30.3906C31.5908 30.6563 31.0263 30.8012 30.4458 30.8012L13.7881 30.8022" fill="#333333"/>
<path d="M41.8975 19.0273H26.217C26.217 19.0273 22.5251 20.9179 19.3695 24.0758C16.6514 26.7958 15.6697 28.0933 13.7812 30.802L30.5186 30.801C31.0991 30.801 31.6636 30.6561 32.1673 30.3904C32.496 30.2171 32.7996 29.9934 33.0628 29.7208L42.3525 20.0986C42.7399 19.6973 42.4555 19.0273 41.8975 19.0273Z" fill="#E8DBCF"/>
<path d="M49.2594 20.3047C48.8021 20.3047 48.3682 20.4965 48.0734 20.829L38.7656 31.3259H54.6129C55.7561 31.3259 56.683 30.3991 56.683 29.2557V22.1562C56.683 21.1337 55.8541 20.3047 54.8315 20.3047H49.2594Z" fill="#E8DBCF"/>
<path d="M67.2109 29.3318L66.8495 22.895C66.7679 21.4415 65.5656 20.3047 64.1098 20.3047H59.3826C58.5844 20.3047 57.9375 20.9518 57.9375 21.7498V29.7822C57.9375 30.6347 58.6287 31.3259 59.4812 31.3259H65.3254C66.4099 31.3259 67.2716 30.4146 67.2109 29.3318Z" fill="#F1B780"/>
<path d="M55.3124 33.4041H51.532C51.2813 33.4041 51.0781 33.201 51.0781 32.9503V32.903C51.0781 32.6523 51.2813 32.4492 51.532 32.4492H55.3124C55.5631 32.4492 55.7662 32.6523 55.7662 32.903V32.9503C55.7662 33.2008 55.5631 33.4041 55.3124 33.4041Z" fill="#FF7D01"/>
<path d="M65.828 33.4041H62.0476C61.7969 33.4041 61.5938 33.201 61.5938 32.9503V32.903C61.5938 32.6523 61.7969 32.4492 62.0476 32.4492H65.828C66.0787 32.4492 66.2819 32.6523 66.2819 32.903V32.9503C66.2819 33.2008 66.0786 33.4041 65.828 33.4041Z" fill="#FF7D01"/>
<path d="M56.8274 44.9644H44.7107C44.3613 44.9644 44.0781 44.6811 44.0781 44.3318C44.0781 43.9823 44.3614 43.6992 44.7107 43.6992H56.8274C57.1769 43.6992 57.46 43.9825 57.46 44.3318C57.46 44.6813 57.1769 44.9644 56.8274 44.9644Z" fill="#FF7D01"/>
<path opacity="0.38" d="M43.2638 26.2539L38.7656 31.3267H54.6129C55.7561 31.3267 56.683 30.4 56.683 29.2566V26.3028" fill="#FF7D01"/>
<path d="M40.0994 34.0674H32.9844V31.0817C32.9844 30.329 33.5946 29.7188 34.3474 29.7188H42.4526V31.7143C42.4526 33.0139 41.3991 34.0674 40.0994 34.0674Z" fill="#FF7D01"/>
</svg>
