<svg width="79" height="58" viewBox="0 0 79 58" fill="none" xmlns="http://www.w3.org/2000/svg">
<path d="M56.5955 32.2841L67.5979 37.3609C69.1909 38.096 69.8867 39.9832 69.1515 41.5764L64.0749 52.5784C63.3399 54.1713 61.4527 54.867 59.8594 54.1319L48.857 49.0551C47.264 48.32 46.5682 46.4328 47.3034 44.8396L52.38 33.8376C53.115 32.2446 55.0022 31.549 56.5955 32.2841Z" fill="#FF7D01"/>
<path opacity="0.7" d="M56.5955 32.2841L67.5979 37.3609C69.1909 38.096 69.8867 39.9832 69.1515 41.5764L64.0749 52.5784C63.3399 54.1713 61.4527 54.867 59.8594 54.1319L48.857 49.0551C47.264 48.32 46.5682 46.4328 47.3034 44.8396L52.38 33.8376C53.115 32.2446 55.0022 31.549 56.5955 32.2841Z" fill="white"/>
<path d="M50.5115 41.4664L51.8967 38.4644L43.5184 36.4188L50.5115 41.4664Z" fill="#FF7D01"/>
<path opacity="0.7" d="M50.5115 41.4664L51.8967 38.4644L43.5184 36.4188L50.5115 41.4664Z" fill="white"/>
<path d="M64.487 36.292L65.443 37.8071C65.51 37.9132 65.6502 37.945 65.7563 37.8781L66.2881 37.5427C66.3942 37.4757 66.426 37.3355 66.3591 37.2294L65.403 35.7143C65.3361 35.6082 65.1958 35.5764 65.0897 35.6433L64.558 35.9787C64.4518 36.0459 64.4203 36.186 64.487 36.292Z" fill="#FF7D01"/>
<path opacity="0.2" d="M64.4844 36.2932L65.4401 37.8082C65.5065 37.9134 65.6482 37.9456 65.7534 37.8792L66.2843 37.5444C66.3894 37.478 66.4216 37.3362 66.3551 37.2307L66.3001 37.1438C66.2937 37.1542 66.2802 37.1629 66.2712 37.1685L65.7403 37.5033C65.6351 37.5697 65.4969 37.5385 65.427 37.4323L64.5258 36.0044C64.4433 36.076 64.4236 36.1971 64.4844 36.2932Z" fill="#333333"/>
<path d="M56.9942 31.3274C56.5101 31.2179 56.0289 31.5216 55.9192 32.0055L52.6895 46.2769C52.6025 46.6609 52.8434 47.0426 53.2274 47.1296L62.6288 49.2573C63.0128 49.3443 63.3945 49.1034 63.4816 48.7194L65.7177 38.8385C65.7817 38.5558 65.7306 38.2594 65.5761 38.0143L64.3842 36.125C64.2297 35.8799 63.984 35.7063 63.7013 35.6423L64.0773 33.9807C64.2022 33.4286 63.856 32.8799 63.3042 32.7551L58.1021 31.5778L56.9942 31.3274ZM62.6499 35.4049L59.7399 34.7464C59.3027 34.6476 58.9518 34.3229 58.8192 33.8948L58.4996 32.8625C58.439 32.6672 58.6128 32.4795 58.8121 32.5246L63.1576 33.5081C63.3097 33.5425 63.4048 33.6935 63.3704 33.8456L63.0787 35.1346C63.035 35.3273 62.8431 35.4484 62.6499 35.4049Z" fill="#333333"/>
<path opacity="0.2" d="M56.9942 31.3274C56.5101 31.2179 56.0289 31.5216 55.9192 32.0055L52.6895 46.2769C52.6025 46.6609 52.8434 47.0426 53.2274 47.1296L62.6288 49.2573C63.0128 49.3443 63.3945 49.1034 63.4816 48.7194L65.7177 38.8385C65.7817 38.5558 65.7306 38.2594 65.5761 38.0143L64.3842 36.125C64.2297 35.8799 63.984 35.7063 63.7013 35.6423L64.0773 33.9807C64.2022 33.4286 63.856 32.8799 63.3042 32.7551L58.1021 31.5778L56.9942 31.3274ZM62.6499 35.4049L59.7399 34.7464C59.3027 34.6476 58.9518 34.3229 58.8192 33.8948L58.4996 32.8625C58.439 32.6672 58.6128 32.4795 58.8121 32.5246L63.1576 33.5081C63.3097 33.5425 63.4048 33.6935 63.3704 33.8456L63.0787 35.1346C63.035 35.3273 62.8431 35.4484 62.6499 35.4049Z" fill="white"/>
<path opacity="0.2" d="M62.7542 48.4973L64.9787 38.668C64.9978 38.5834 64.9826 38.495 64.9364 38.4216L63.7446 36.5321C63.6981 36.4585 63.6245 36.4063 63.5398 36.3874L62.7935 36.2185L62.8032 36.1755C62.7001 36.1816 62.5947 36.1737 62.489 36.1496L59.5787 35.491C58.8751 35.3318 58.31 34.8089 58.0963 34.1198L57.7762 33.087C57.7274 32.929 57.7182 32.764 57.7457 32.6057C57.7772 32.4246 57.6417 32.2553 57.4625 32.2147L56.8331 32.0724C56.7615 32.0562 56.6895 32.1015 56.6734 32.1731L53.4554 46.393L62.7542 48.4973Z" fill="white"/>
<path opacity="0.2" d="M54.4418 45.0824C54.3549 45.1374 54.3279 45.2567 54.3828 45.3436C54.4118 45.3895 54.4561 45.4191 54.5044 45.43C54.5492 45.4402 54.602 45.4324 54.6478 45.4037L57.2338 43.7722L60.4771 44.5063L62.1086 47.0923C62.1339 47.1371 62.178 47.167 62.2268 47.1777C62.2754 47.1888 62.3243 47.1801 62.3701 47.1514C62.4608 47.0975 62.488 46.9779 62.4291 46.8902L60.7975 44.3043L61.5316 41.061L64.1176 39.4296C64.2083 39.3754 64.2354 39.2561 64.1776 39.1646C64.1227 39.0777 64.0033 39.0507 63.9162 39.1055L61.3302 40.737L58.0869 40.0029L56.4553 37.4169C56.3969 37.329 56.281 37.3029 56.1903 37.3568C56.1024 37.4155 56.0756 37.535 56.1303 37.6218L57.7619 40.2077L57.0278 43.4509L54.4418 45.0824ZM57.6916 43.4834L57.4266 43.4233L57.4856 43.1621L58.0508 40.6653L58.1109 40.4003L58.3758 40.4604L60.8728 41.0256L61.134 41.0846L61.0739 41.3496L60.5088 43.8464L60.4498 44.1076L60.1885 44.0486L57.6916 43.4834Z" fill="#333333"/>
<path d="M61.4764 24.1885H73.455C75.1893 24.1885 76.5954 22.7824 76.5954 21.0482V9.07003C76.5954 7.33578 75.1896 5.92969 73.455 5.92969H61.4764C59.7421 5.92969 58.3359 7.33578 58.3359 9.07003V21.0482C58.3359 22.7824 59.7421 24.1885 61.4764 24.1885Z" fill="#FF7D01"/>
<path opacity="0.7" d="M61.4764 24.1885H73.455C75.1893 24.1885 76.5954 22.7824 76.5954 21.0482V9.07003C76.5954 7.33578 75.1896 5.92969 73.455 5.92969H61.4764C59.7421 5.92969 58.3359 7.33578 58.3359 9.07003V21.0482C58.3359 22.7824 59.7421 24.1885 61.4764 24.1885Z" fill="white"/>
<path d="M65.5892 20.7773L67.9004 23.0884L60.8281 27.8496L65.5892 20.7773Z" fill="#FF7D01"/>
<path opacity="0.7" d="M65.5892 20.7773L67.9004 23.0884L60.8281 27.8496L65.5892 20.7773Z" fill="white"/>
<path d="M76.2031 12.7067L78.1779 11.8125L78.2177 12.2698C78.2443 12.5749 78.1066 12.8712 77.8565 13.0477L77.4488 13.3355L76.2031 12.7067Z" fill="#FF7D01"/>
<path opacity="0.2" d="M76.2031 12.7067L78.1779 11.8125L78.2177 12.2698C78.2443 12.5749 78.1066 12.8712 77.8565 13.0477L77.4488 13.3355L76.2031 12.7067Z" fill="#333333"/>
<path opacity="0.2" d="M77.6445 12.6509C77.6255 12.7482 77.5314 12.8116 77.4343 12.7929C77.337 12.7739 77.2736 12.6798 77.2923 12.5828C77.3113 12.4855 77.4054 12.4221 77.5024 12.4408C77.6 12.4595 77.6634 12.5536 77.6445 12.6509Z" fill="white"/>
<path d="M71.379 12.2653L64.6406 10.5352L64.0793 12.7213L70.8177 14.4514L71.379 12.2653Z" fill="#FF7D01"/>
<path opacity="0.2" d="M71.379 12.2653L64.6406 10.5352L64.0793 12.7213L70.8177 14.4514L71.379 12.2653Z" fill="#333333"/>
<path d="M63.8322 12.0017L64.4105 11.2466C64.4588 11.1838 64.4848 11.1067 64.4848 11.0272V9.45043C64.4848 9.25114 64.6464 9.08984 64.8454 9.08984H66.0291C66.2284 9.08984 66.3897 9.25144 66.3897 9.45043V11.6975C66.3897 11.8281 66.3193 11.9482 66.2053 12.0122L64.7045 12.8535C64.5783 12.9242 64.4216 12.9128 64.3074 12.824L63.8971 12.5063C63.7408 12.3845 63.7116 12.1592 63.8322 12.0017Z" fill="#333333"/>
<path opacity="0.2" d="M63.8322 12.0017L64.4105 11.2466C64.4588 11.1838 64.4848 11.1067 64.4848 11.0272V9.45043C64.4848 9.25114 64.6464 9.08984 64.8454 9.08984H66.0291C66.2284 9.08984 66.3897 9.25144 66.3897 9.45043V11.6975C66.3897 11.8281 66.3193 11.9482 66.2053 12.0122L64.7045 12.8535C64.5783 12.9242 64.4216 12.9128 64.3074 12.824L63.8971 12.5063C63.7408 12.3845 63.7116 12.1592 63.8322 12.0017Z" fill="#333333"/>
<path d="M70.6576 15.0452L63.726 13.2651C63.4428 13.1923 63.2721 12.9036 63.3449 12.6205C63.4177 12.3373 63.7064 12.1667 63.9895 12.2394L70.9212 14.0196L70.6576 15.0452Z" fill="#333333"/>
<path opacity="0.2" d="M64.0642 12.8032C64.0329 12.9247 63.9093 12.9978 63.7878 12.9665C63.6662 12.9353 63.5931 12.8117 63.6244 12.6901C63.6557 12.5685 63.7793 12.4955 63.9008 12.5268C64.0224 12.558 64.0955 12.6816 64.0642 12.8032Z" fill="white"/>
<path opacity="0.2" d="M65.6245 11.5011C65.5772 11.6858 65.389 11.7968 65.2046 11.7495C65.0199 11.7022 64.9089 11.514 64.9562 11.3296C65.0036 11.1449 65.1918 11.0339 65.3761 11.0812C65.5605 11.1286 65.6719 11.3165 65.6245 11.5011Z" fill="white"/>
<path d="M66.7358 9.16694H64.19L63.9375 8.47266H66.9882L66.7358 9.16694Z" fill="#333333"/>
<path d="M67.0717 8.47266H63.8359V8.8198H67.0717V8.47266Z" fill="#333333"/>
<path d="M63.2394 14.9894L71.6547 12.0195C71.7385 11.9899 71.828 11.9812 71.9159 11.994L78.0905 12.8999C78.3587 12.9393 78.5577 13.1696 78.5577 13.4408V16.0893C78.5577 16.3912 78.3131 16.636 78.0113 16.636H63.4217C63.1199 16.636 62.875 16.3912 62.875 16.0893V15.5046C62.8747 15.2732 63.0208 15.0666 63.2394 14.9894Z" fill="#FF7D01"/>
<path opacity="0.2" d="M77.6258 13.5014L75.9736 13.2586C75.9736 13.2586 75.9657 13.4623 75.8123 13.5765C75.6516 13.6963 73.0032 13.213 73.0032 13.213C72.8758 13.5704 72.5339 13.8263 72.133 13.8263C71.6198 13.8263 71.2058 13.4126 71.2058 12.9027V12.8828L64.0312 15.4148L64.1113 15.4373C64.3968 15.5171 64.6361 15.712 64.772 15.9755H72.6335C72.7498 15.9755 72.8442 15.8811 72.8442 15.7648V15.6892C72.8442 15.5016 72.9965 15.3493 73.1841 15.3493H75.7465C75.9341 15.3493 76.0864 15.5016 76.0864 15.6892V15.7648C76.0864 15.8811 76.1808 15.9755 76.2971 15.9755H77.6573C77.79 15.9755 77.8978 15.868 77.8978 15.735V13.817C77.8981 13.6586 77.7821 13.5245 77.6258 13.5014Z" fill="#333333"/>
<path d="M64.5481 16.692C64.5481 17.3611 64.0057 17.9034 63.3365 17.9034C62.6674 17.9034 62.125 17.3611 62.125 16.692C62.125 16.0228 62.6676 15.4805 63.3365 15.4805C64.0054 15.4802 64.5481 16.0225 64.5481 16.692Z" fill="#333333"/>
<path opacity="0.6" d="M63.345 17.229C63.6434 17.229 63.8853 16.9871 63.8853 16.6887C63.8853 16.3903 63.6434 16.1484 63.345 16.1484C63.0466 16.1484 62.8047 16.3903 62.8047 16.6887C62.8047 16.9871 63.0466 17.229 63.345 17.229Z" fill="white"/>
<path opacity="0.2" d="M75.5947 16.1548H73.2844C73.1532 16.1548 73.0469 16.0485 73.0469 15.9173C73.0469 15.7861 73.1532 15.6797 73.2844 15.6797H75.5947C75.7259 15.6797 75.8323 15.7861 75.8323 15.9173C75.832 16.0487 75.7256 16.1548 75.5947 16.1548Z" fill="white"/>
<path d="M75.1516 17.1812C75.1516 16.7832 74.829 16.4609 74.4313 16.4609C74.0333 16.4609 73.7109 16.7835 73.7109 17.1812C73.7109 17.5792 74.0335 17.9015 74.4313 17.9015C74.829 17.9015 75.1516 17.5789 75.1516 17.1812Z" fill="#333333"/>
<path d="M74.4337 17.6057C74.2072 17.6057 74.0234 17.4222 74.0234 17.1954V16.1484H74.8437V17.1954C74.8437 17.4222 74.6602 17.6057 74.4337 17.6057Z" fill="#333333"/>
<path opacity="0.6" d="M74.4337 17.6057C74.2072 17.6057 74.0234 17.4222 74.0234 17.1954V16.1484H74.8437V17.1954C74.8437 17.4222 74.6602 17.6057 74.4337 17.6057Z" fill="white"/>
<path d="M72.5613 12.2819V9.88521C72.5613 9.6681 72.3854 9.49219 72.1683 9.49219C71.9512 9.49219 71.7752 9.6681 71.7752 9.88521V12.2819C71.6461 12.3929 71.5625 12.5557 71.5625 12.7395C71.5625 13.0741 71.8337 13.3452 72.1683 13.3452C72.5029 13.3452 72.774 13.0741 72.774 12.7395C72.7743 12.5557 72.6905 12.3929 72.5613 12.2819Z" fill="#333333"/>
<path d="M73.2002 12.1875L73.1385 12.5493C73.1014 12.7667 73.2498 12.9721 73.4681 13.0048L75.2863 13.2792C75.5206 13.3145 75.7389 13.1524 75.7725 12.918L75.8225 12.572L73.2002 12.1875Z" fill="#333333"/>
<path opacity="0.6" d="M72.5613 12.2819V9.88521C72.5613 9.6681 72.3854 9.49219 72.1683 9.49219C71.9512 9.49219 71.7752 9.6681 71.7752 9.88521V12.2819C71.6461 12.3929 71.5625 12.5557 71.5625 12.7395C71.5625 13.0741 71.8337 13.3452 72.1683 13.3452C72.5029 13.3452 72.774 13.0741 72.774 12.7395C72.7743 12.5557 72.6905 12.3929 72.5613 12.2819Z" fill="white"/>
<path opacity="0.2" d="M72.1594 12.9632C72.2689 12.9632 72.3578 12.8744 72.3578 12.7648C72.3578 12.6552 72.2689 12.5664 72.1594 12.5664C72.0498 12.5664 71.9609 12.6552 71.9609 12.7648C71.9609 12.8744 72.0498 12.9632 72.1594 12.9632Z" fill="white"/>
<path opacity="0.2" d="M77.4816 15.7952C77.6008 15.7952 77.6975 15.6985 77.6975 15.5792C77.6975 15.46 77.6008 15.3633 77.4816 15.3633C77.3623 15.3633 77.2656 15.46 77.2656 15.5792C77.2656 15.6985 77.3623 15.7952 77.4816 15.7952Z" fill="white"/>
<path d="M78.394 19.4297H61.9688V20.5214H78.394V19.4297Z" fill="#FF7D01"/>
<path opacity="0.2" d="M78.394 19.4297H61.9688V20.5214H78.394V19.4297Z" fill="#333333"/>
<path opacity="0.2" d="M78.394 19.9766H61.9688V20.5224H78.394V19.9766Z" fill="#333333"/>
<path d="M78.4961 20.6096H73.6573C73.5489 20.6096 73.4609 20.5216 73.4609 20.4132V19.5401C73.4609 19.4317 73.5489 19.3438 73.6573 19.3438H78.4961C78.6045 19.3438 78.6925 19.4317 78.6925 19.5401V20.4132C78.6928 20.5216 78.6045 20.6096 78.4961 20.6096Z" fill="#333333"/>
<path d="M31.0625 14.9402V3.10331C31.0625 1.38952 32.4518 0 34.1659 0H46.0032C47.7171 0 49.1066 1.38952 49.1066 3.10331V14.9402C49.1066 16.654 47.7174 18.0435 46.0032 18.0435H34.1659C32.4518 18.0432 31.0625 16.654 31.0625 14.9402Z" fill="#FF7D01"/>
<path opacity="0.7" d="M31.0625 14.9402V3.10331C31.0625 1.38952 32.4518 0 34.1659 0H46.0032C47.7171 0 49.1066 1.38952 49.1066 3.10331V14.9402C49.1066 16.654 47.7174 18.0435 46.0032 18.0435H34.1659C32.4518 18.0432 31.0625 16.654 31.0625 14.9402Z" fill="white"/>
<path d="M41.7065 16.582H38.4766L40.0917 24.8507L41.7065 16.582Z" fill="#FF7D01"/>
<path opacity="0.7" d="M41.7065 16.582H38.4766L40.0917 24.8507L41.7065 16.582Z" fill="white"/>
<path d="M48.0502 12.1418L34.6227 15.7464C33.966 15.9226 33.2909 15.5333 33.1147 14.8767L30.8236 6.34236C30.6475 5.68571 31.0367 5.01059 31.6934 4.83445L45.1209 1.22986C45.7776 1.05372 46.4528 1.44296 46.6289 2.0996L48.92 10.6339C49.0962 11.2903 48.7069 11.9654 48.0502 12.1418Z" fill="#333333"/>
<path opacity="0.2" d="M48.0502 12.1418L34.6227 15.7464C33.966 15.9226 33.2909 15.5333 33.1147 14.8767L30.8236 6.34236C30.6475 5.68571 31.0367 5.01059 31.6934 4.83445L45.1209 1.22986C45.7776 1.05372 46.4528 1.44296 46.6289 2.0996L48.92 10.6339C49.0962 11.2903 48.7069 11.9654 48.0502 12.1418Z" fill="white"/>
<path d="M45.4257 2.20244L31.9062 5.83203L34.3091 14.7814L47.8285 11.1518L45.4257 2.20244Z" fill="#333333"/>
<path d="M45.1529 2.75967L32.4141 6.17969L34.4148 13.6315L47.1536 10.2115L45.1529 2.75967Z" fill="#FF7D01"/>
<path opacity="0.2" d="M45.1596 2.75997L32.4219 6.17969L34.4219 13.629L47.1596 10.2093L45.1596 2.75997Z" fill="white"/>
<path opacity="0.4" d="M46.0503 6.06464L40.1972 7.82001L41.542 11.7324L39.3505 12.3209L38.6447 8.29012L34.0082 9.68194L33.66 10.7784L33.2109 9.10615L33.4189 9.04205L34.6776 5.58905L35.3689 5.40367L34.2976 8.77755L38.5087 7.50787L38.0187 4.69216L39.0305 4.42073L39.4244 5.5674L42.224 4.69707L41.7034 3.70316L42.1695 3.57812L43.0973 4.73288L39.5344 5.8859L39.9445 7.07732L45.8464 5.30491L46.0503 6.06464Z" fill="white"/>
<path d="M46.6366 9.10868C46.7466 9.51872 46.5035 9.94031 46.0934 10.0506C45.6834 10.1606 45.2618 9.9175 45.1515 9.50746C45.0414 9.09742 45.2846 8.67583 45.6946 8.56552C46.1047 8.4555 46.5266 8.69864 46.6366 9.10868Z" fill="white"/>
<path opacity="0.4" d="M41.0829 11.8494L39.7303 7.38281L33.2344 9.34234L33.2846 9.54476L38.8351 8.00076L39.6982 12.2213L41.0829 11.8494Z" fill="white"/>
<path d="M39.8955 5.88281L38.6816 6.20882L38.5874 5.85855L37.8828 6.77767L38.953 7.22034L38.8589 6.87008L40.0729 6.54436C40.1309 6.52876 40.191 6.56341 40.2066 6.62145L40.6515 8.27894L41.3131 8.10135L40.8681 6.44387C40.7549 6.02084 40.3186 5.76903 39.8955 5.88281Z" fill="white"/>
<path d="M39.9508 4.54159L37.8359 5.10938L37.988 5.67579L40.1029 5.10801L39.9508 4.54159Z" fill="#333333"/>
<path d="M40.0718 10.6211L41.1088 11.2416L39.3906 11.7031L40.0718 10.6211Z" fill="#333333"/>
<path d="M17.5559 23.1681H5.50354C3.75856 23.1681 2.34375 21.7534 2.34375 20.0084V7.95655C2.34375 6.21163 3.75856 4.79688 5.50354 4.79688H17.5559C19.3009 4.79688 20.7157 6.21163 20.7157 7.95655V20.0084C20.7154 21.7534 19.3009 23.1681 17.5559 23.1681Z" fill="#FF7D01"/>
<path opacity="0.7" d="M17.5559 23.1681H5.50354C3.75856 23.1681 2.34375 21.7534 2.34375 20.0084V7.95655C2.34375 6.21163 3.75856 4.79688 5.50354 4.79688H17.5559C19.3009 4.79688 20.7157 6.21163 20.7157 7.95655V20.0084C20.7154 21.7534 19.3009 23.1681 17.5559 23.1681Z" fill="white"/>
<path d="M13.4348 19.7344L11.1094 22.0597L18.2255 26.8502L13.4348 19.7344Z" fill="#FF7D01"/>
<path opacity="0.7" d="M13.4348 19.7344L11.1094 22.0597L18.2255 26.8502L13.4348 19.7344Z" fill="white"/>
<path d="M18.4107 8.66016H8.11367C6.00998 8.66016 4.30469 10.8643 4.30469 13.5833C4.30469 16.3022 6.00998 18.5064 8.11367 18.5064H18.4107C20.5144 18.5064 22.2197 16.3022 22.2197 13.5833C22.2197 10.8643 20.5144 8.66016 18.4107 8.66016Z" fill="#333333"/>
<path opacity="0.2" d="M22.2221 13.5818C22.2221 14.0699 22.1662 14.5432 22.0633 14.9872C21.5958 17.0217 20.1375 18.5064 18.4116 18.5064H8.11514C6.00998 18.5064 4.30469 16.3014 4.30469 13.5818C4.30469 12.2235 4.73101 10.9946 5.42195 10.1008C6.10995 9.21289 7.06256 8.66016 8.11514 8.66016H18.4116C20.1404 8.66016 21.5987 10.1449 22.0633 12.1794C22.1662 12.6234 22.2221 13.0935 22.2221 13.5818Z" fill="white"/>
<path opacity="0.2" d="M8.11367 18.5064C10.2173 18.5064 11.9227 16.3023 11.9227 13.5833C11.9227 10.8643 10.2173 8.66016 8.11367 8.66016C6.01003 8.66016 4.30469 10.8643 4.30469 13.5833C4.30469 16.3023 6.01003 18.5064 8.11367 18.5064Z" fill="white"/>
<path d="M7.8772 17.9085C6.10134 17.9085 4.65625 15.964 4.65625 13.5734C4.65625 11.1828 6.10134 9.23828 7.8772 9.23828C9.65306 9.23828 11.0982 11.1831 11.0982 13.5734C11.0982 15.9637 9.65306 17.9085 7.8772 17.9085Z" fill="#333333"/>
<g opacity="0.2">
<path d="M8.55686 15.8931C7.58631 15.8931 6.79688 14.8535 6.79688 13.5755C6.79688 12.2974 7.58631 11.2578 8.55686 11.2578C9.52712 11.2578 10.3166 12.2977 10.3166 13.5755C10.3166 14.8535 9.52712 15.8931 8.55686 15.8931ZM8.55686 11.5515C7.74861 11.5515 7.09089 12.4594 7.09089 13.5752C7.09089 14.6909 7.74861 15.5988 8.55686 15.5988C9.36511 15.5988 10.0225 14.6912 10.0225 13.5752C10.0225 12.4594 9.36482 11.5515 8.55686 11.5515Z" fill="#333333"/>
</g>
<path d="M8.65024 12.4862H5.75653C5.61629 12.4862 5.49574 12.3874 5.4684 12.2498L5.17761 10.7959C5.14586 10.6366 5.24906 10.4819 5.40812 10.4499C5.56777 10.4178 5.72243 10.5213 5.75418 10.6804L5.99763 11.8978H8.52764L10.0542 10.3567C10.1682 10.2414 10.3547 10.2402 10.4699 10.3546C10.5855 10.469 10.586 10.6551 10.472 10.7703L8.85929 12.3988C8.80401 12.455 8.72875 12.4862 8.65024 12.4862Z" fill="#333333"/>
<path d="M10.263 16.8962C10.1875 16.8962 10.1116 16.8671 10.0543 16.8092L8.52773 15.268H5.99772L5.75428 16.4855C5.72252 16.6445 5.56787 16.7474 5.40822 16.716C5.24886 16.6842 5.14566 16.5293 5.17771 16.3699L5.46849 14.9161C5.49583 14.7788 5.61667 14.6797 5.75663 14.6797H8.65034C8.72884 14.6797 8.80411 14.7111 8.85909 14.7667L10.4718 16.3952C10.5861 16.5105 10.5853 16.6966 10.4697 16.8109C10.4127 16.868 10.3377 16.8962 10.263 16.8962Z" fill="#333333"/>
<g opacity="0.4">
<path d="M8.65024 12.4862H5.75653C5.61629 12.4862 5.49574 12.3874 5.4684 12.2498L5.17761 10.7959C5.14586 10.6366 5.24906 10.4819 5.40812 10.4499C5.56777 10.4178 5.72243 10.5213 5.75418 10.6804L5.99763 11.8978H8.52764L10.0542 10.3567C10.1682 10.2414 10.3547 10.2402 10.4699 10.3546C10.5855 10.469 10.586 10.6551 10.472 10.7703L8.85929 12.3988C8.80401 12.455 8.72875 12.4862 8.65024 12.4862Z" fill="white"/>
<path d="M10.263 16.8962C10.1875 16.8962 10.1116 16.8671 10.0543 16.8092L8.52773 15.268H5.99772L5.75428 16.4855C5.72252 16.6445 5.56787 16.7474 5.40822 16.716C5.24886 16.6842 5.14566 16.5293 5.17771 16.3699L5.46849 14.9161C5.49583 14.7788 5.61667 14.6797 5.75663 14.6797H8.65034C8.72884 14.6797 8.80411 14.7111 8.85909 14.7667L10.4718 16.3952C10.5861 16.5105 10.5853 16.6966 10.4697 16.8109C10.4127 16.868 10.3377 16.8962 10.263 16.8962Z" fill="white"/>
</g>
<path opacity="0.2" d="M22.2144 13.5821C22.2144 14.0701 22.1585 14.5435 22.0556 14.9874H13.6085C12.8323 14.9874 12.2031 14.3583 12.2031 13.5821C12.2031 13.194 12.359 12.8441 12.6147 12.5913C12.8705 12.3355 13.2204 12.1797 13.6085 12.1797H22.0556C22.1585 12.6236 22.2144 13.0938 22.2144 13.5821Z" fill="#333333"/>
<g opacity="0.2">
<path d="M14.2344 14.1408L14.3096 13.9341C14.4034 14.0262 14.5525 14.0917 14.6963 14.0917C14.8789 14.0917 14.9556 14.012 14.9556 13.9056C14.9556 13.5966 14.2594 13.7992 14.2594 13.2673C14.2594 13.0362 14.4099 12.8398 14.7313 12.8398C14.8718 12.8398 15.0191 12.8848 15.1211 12.9666L15.0526 13.1732C14.9474 13.0977 14.8318 13.0606 14.7295 13.0606C14.5487 13.0606 14.4752 13.1465 14.4752 13.255C14.4752 13.5599 15.1696 13.3614 15.1696 13.8871C15.1696 14.1161 15.0173 14.3125 14.696 14.3125C14.514 14.3125 14.3314 14.2431 14.2344 14.1408Z" fill="white"/>
<path d="M15.6069 13.0807H15.2188V12.8555H16.2125V13.0807H15.8244V14.2876H15.6069V13.0807Z" fill="white"/>
<path d="M17.2613 14.0647V14.2876H16.3828V12.8555H17.2378V13.0783H16.6004V13.4508H17.1661V13.6699H16.6004V14.0647H17.2613Z" fill="white"/>
<path d="M18.274 14.2876L18.0347 13.8683C18.0197 13.8704 18.0047 13.8704 17.9897 13.8704H17.7254V14.2876H17.5078V12.8555H17.9897C18.2975 12.8555 18.4884 13.0477 18.4884 13.3647C18.4884 13.5817 18.3981 13.741 18.239 13.8169L18.5086 14.2873H18.274V14.2876ZM17.9794 13.0807H17.7251V13.6513H17.9794C18.1702 13.6513 18.2687 13.5449 18.2687 13.365C18.2687 13.1848 18.1702 13.0807 17.9794 13.0807Z" fill="white"/>
<path d="M19.6051 14.0647V14.2876H18.7266V12.8555H19.5816V13.0783H18.9438V13.4508H19.5095V13.6699H18.9438V14.0647H19.6051Z" fill="white"/>
<path d="M19.7656 13.5763C19.7656 13.153 20.0335 12.8398 20.3966 12.8398C20.7597 12.8398 21.0275 13.1509 21.0275 13.5763C21.0275 14.0018 20.7597 14.3128 20.3966 14.3128C20.0335 14.3125 19.7656 13.9994 19.7656 13.5763ZM20.8082 13.5763C20.8082 13.2838 20.6324 13.073 20.3966 13.073C20.1608 13.073 19.985 13.2838 19.985 13.5763C19.985 13.8689 20.1608 14.0797 20.3966 14.0797C20.6324 14.0794 20.8082 13.8686 20.8082 13.5763Z" fill="white"/>
</g>
<path d="M1.95374 19.8013C1.91493 19.8013 1.87671 19.7834 1.8523 19.7496C-0.617435 16.3479 -0.617435 10.813 1.8523 7.41103C1.89288 7.35517 1.97109 7.34252 2.02725 7.38339C2.08311 7.42396 2.09546 7.50246 2.05488 7.55832C-0.355759 10.8788 -0.355759 16.2818 2.05488 19.6026C2.09546 19.6584 2.08311 19.7366 2.02725 19.7775C2.00519 19.7937 1.97932 19.8013 1.95374 19.8013Z" fill="#FF7D01"/>
<path d="M3.00087 18.7731C2.96206 18.7731 2.92384 18.7551 2.89943 18.7213C0.846022 15.8927 0.846022 11.2903 2.89943 8.46168C2.94001 8.40582 3.01822 8.39347 3.07437 8.43405C3.13053 8.47462 3.14288 8.55312 3.10201 8.60898C1.1074 11.3565 1.1074 15.8268 3.10201 18.5743C3.14258 18.6302 3.13024 18.7087 3.07437 18.7492C3.05203 18.7651 3.02616 18.7731 3.00087 18.7731Z" fill="#FF7D01"/>
<path d="M4.05603 17.7293C4.01722 17.7293 3.979 17.7114 3.9546 17.6776C2.31722 15.4222 2.31722 11.7522 3.9546 9.49684C3.99517 9.44098 4.07338 9.42863 4.12954 9.4692C4.1854 9.50977 4.19775 9.58827 4.15717 9.64413C2.5786 11.8183 2.5786 15.3561 4.15717 17.5303C4.19775 17.5861 4.1854 17.6646 4.12954 17.7052C4.10719 17.7214 4.08132 17.7293 4.05603 17.7293Z" fill="#FF7D01"/>
<g opacity="0.4">
<path d="M1.95374 19.8013C1.91493 19.8013 1.87671 19.7834 1.8523 19.7496C-0.617435 16.3479 -0.617435 10.813 1.8523 7.41103C1.89288 7.35517 1.97109 7.34252 2.02725 7.38339C2.08311 7.42396 2.09546 7.50246 2.05488 7.55832C-0.355759 10.8788 -0.355759 16.2818 2.05488 19.6026C2.09546 19.6584 2.08311 19.7366 2.02725 19.7775C2.00519 19.7937 1.97932 19.8013 1.95374 19.8013Z" fill="white"/>
</g>
<g opacity="0.4">
<path d="M3.00087 18.7731C2.96206 18.7731 2.92384 18.7551 2.89943 18.7213C0.846022 15.8927 0.846022 11.2903 2.89943 8.46168C2.94001 8.40582 3.01822 8.39347 3.07437 8.43405C3.13053 8.47462 3.14288 8.55312 3.10201 8.60898C1.1074 11.3565 1.1074 15.8268 3.10201 18.5743C3.14258 18.6302 3.13024 18.7087 3.07437 18.7492C3.05203 18.7651 3.02616 18.7731 3.00087 18.7731Z" fill="white"/>
</g>
<g opacity="0.4">
<path d="M4.05603 17.7293C4.01722 17.7293 3.979 17.7114 3.9546 17.6776C2.31722 15.4222 2.31722 11.7522 3.9546 9.49684C3.99517 9.44098 4.07338 9.42863 4.12954 9.4692C4.1854 9.50977 4.19775 9.58827 4.15717 9.64413C2.5786 11.8183 2.5786 15.3561 4.15717 17.5303C4.19775 17.5861 4.1854 17.6646 4.12954 17.7052C4.10719 17.7214 4.08132 17.7293 4.05603 17.7293Z" fill="white"/>
</g>
<path d="M30.8363 48.2597L20.3296 55.4844C18.8084 56.5304 16.7271 56.1454 15.681 54.624L8.45655 44.1177C7.41056 42.5966 7.79587 40.5152 9.31707 39.4692L19.8237 32.2445C21.3449 31.1985 23.4262 31.5834 24.4724 33.1048L31.6968 43.6111C32.7429 45.1325 32.3575 47.2137 30.8363 48.2597Z" fill="#FF7D01"/>
<path opacity="0.7" d="M30.8363 48.2597L20.3296 55.4844C18.8084 56.5304 16.7271 56.1454 15.681 54.624L8.45655 44.1177C7.41056 42.5966 7.79587 40.5152 9.31707 39.4692L19.8237 32.2445C21.3449 31.1985 23.4262 31.5834 24.4724 33.1048L31.6968 43.6111C32.7429 45.1325 32.3575 47.2137 30.8363 48.2597Z" fill="white"/>
<path d="M25.8125 37.8125L27.7837 40.6792L34.1375 34.1989L25.8125 37.8125Z" fill="#FF7D01"/>
<path opacity="0.7" d="M25.8125 37.8125L27.7837 40.6792L34.1375 34.1989L25.8125 37.8125Z" fill="white"/>
<path d="M21.635 48.4769C21.7032 48.5179 21.7507 48.5875 21.7514 48.672L21.7595 50.3659C21.7602 50.4937 21.6576 50.5971 21.532 50.5978L15.7419 50.6258C15.614 50.6265 15.5107 50.524 15.51 50.3961L15.5019 48.7022C15.5014 48.6176 15.5486 48.5474 15.6163 48.5057C15.546 48.4502 15.5003 48.3662 15.4997 48.2692L15.445 36.9014C15.441 36.0812 15.9899 35.3655 16.7799 35.1496L16.7822 35.1495C16.7842 35.1497 16.7884 35.1476 16.7944 35.1476L17.4901 34.9587C17.6116 34.9273 17.6976 34.8157 17.6968 34.6878L17.6887 33.0004L19.4133 32.9919L19.4215 34.6793C19.4222 34.8072 19.5093 34.9179 19.6329 34.9484L20.3282 35.1283L20.3426 35.1323C21.135 35.3387 21.6905 36.051 21.6946 36.8711L21.7492 48.239C21.7496 48.3361 21.7048 48.4209 21.635 48.4769Z" fill="#FF7D01"/>
<path opacity="0.4" d="M18.7917 39.8832L18.816 44.9551C18.817 45.1507 18.6591 45.3099 18.4639 45.3109L15.4817 45.3253L15.4539 39.5435L18.4338 39.5291C18.6305 39.5279 18.7908 39.6864 18.7917 39.8832Z" fill="white"/>
<path d="M20.3272 35.1265C19.3733 35.1249 17.0034 35.1222 16.7935 35.1458L17.4892 34.9569C17.6107 34.9255 17.6966 34.8139 17.6959 34.6861L17.6878 32.9986L19.4124 32.9901L19.4205 34.6775C19.4213 34.8054 19.5084 34.9161 19.632 34.9466L20.3272 35.1265Z" fill="#FF7D01"/>
<path opacity="0.4" d="M20.3272 35.1265C19.3733 35.1249 17.0034 35.1222 16.7935 35.1458L17.4892 34.9569C17.6107 34.9255 17.6966 34.8139 17.6959 34.6861L17.6878 32.9986L19.4124 32.9901L19.4205 34.6775C19.4213 34.8054 19.5084 34.9161 19.632 34.9466L20.3272 35.1265Z" fill="#333333"/>
<path d="M18.2401 34.0151L15.8375 34.4393L15.8295 32.768L18.2362 33.1689L18.2401 34.0151Z" fill="#FF7D01"/>
<path opacity="0.4" d="M18.2401 34.0151L15.8375 34.4393L15.8295 32.768L18.2362 33.1689L18.2401 34.0151Z" fill="white"/>
<path d="M19.7932 33.59C19.7966 34.2822 19.2382 34.8459 18.5459 34.8493C17.8537 34.8527 17.29 34.2943 17.2866 33.6021C17.2832 32.9098 17.8417 32.3461 18.5339 32.3427C19.2262 32.3393 19.7899 32.8977 19.7932 33.59Z" fill="#FF7D01"/>
<path d="M17.2835 32.0832L17.28 31.3997C17.2795 31.2973 17.3369 31.2039 17.4279 31.1579L19.9117 29.9049C20.2727 29.7227 20.6714 29.6267 21.0757 29.6251L21.6495 29.6223C21.4934 29.8527 21.2334 29.9911 20.9553 29.9924L20.7791 29.9932C20.6 29.994 20.4255 30.0521 20.2813 30.1585L17.5193 32.2015C17.422 32.2737 17.2838 32.2045 17.2835 32.0832Z" fill="#FF7D01"/>
<path d="M18.5251 31.2756L21.5628 32.5729C21.858 32.6991 22.1061 32.915 22.2718 33.1899L22.3457 33.3128L22.3471 33.6009L22.123 33.342C21.9233 33.1113 21.65 32.9565 21.3496 32.9041L19.2805 32.5417L19.2842 33.3277L17.672 33.3356L17.665 31.8508L18.5251 31.2756Z" fill="#FF7D01"/>
<path d="M15.9225 32.667L15.7188 32.668L15.7279 34.5564L15.9317 34.5554L15.9225 32.667Z" fill="#FF7D01"/>
<path opacity="0.2" d="M19.7932 33.59C19.7966 34.2822 19.2382 34.8459 18.5459 34.8493C17.8537 34.8527 17.29 34.2943 17.2866 33.6021C17.2832 32.9098 17.8417 32.3461 18.5339 32.3427C19.2262 32.3393 19.7899 32.8977 19.7932 33.59Z" fill="#333333"/>
<path opacity="0.2" d="M19.1701 33.5919C19.1717 33.938 18.8925 34.2198 18.5464 34.2215C18.2003 34.2232 17.9184 33.944 17.9167 33.5979C17.9151 33.2518 18.1943 32.97 18.5404 32.9682C18.8865 32.9665 19.1684 33.2457 19.1701 33.5919Z" fill="#333333"/>
<path opacity="0.4" d="M17.2835 32.0832L17.28 31.3997C17.2795 31.2973 17.3369 31.2039 17.4279 31.1579L19.9117 29.9049C20.2727 29.7227 20.6714 29.6267 21.0757 29.6251L21.6495 29.6223C21.4934 29.8527 21.2334 29.9911 20.9553 29.9924L20.7791 29.9932C20.6 29.994 20.4255 30.0521 20.2813 30.1585L17.5193 32.2015C17.422 32.2737 17.2838 32.2045 17.2835 32.0832Z" fill="white"/>
<path opacity="0.2" d="M21.7523 50.1724L21.7532 50.3598C21.7539 50.4877 21.6514 50.591 21.5257 50.5917L15.7356 50.6197C15.6078 50.6205 15.5044 50.5179 15.5037 50.39L15.5028 50.2026L15.5088 50.2026C15.5214 50.2665 15.5773 50.3137 15.6454 50.3134L21.6126 50.2844C21.6807 50.284 21.736 50.2365 21.7481 50.1723L21.7523 50.1724Z" fill="#333333"/>
<path opacity="0.2" d="M21.7434 48.2127L21.7436 48.2416C21.7442 48.3385 21.6993 48.423 21.6294 48.479L15.6105 48.5081C15.5402 48.4526 15.4945 48.3685 15.4939 48.2715L15.4937 48.2426L15.4977 48.2425C15.5001 48.3167 15.5623 48.3759 15.6366 48.3758L21.6038 48.3468C21.6779 48.3464 21.7396 48.2862 21.7412 48.2123L21.7434 48.2127Z" fill="#333333"/>
<path opacity="0.4" d="M16.1987 47.6317C16.1126 46.3251 16.053 45.0185 16.0197 43.7118C15.9804 42.4052 15.9656 41.0983 15.9552 39.7915L15.9566 37.8309L15.9617 37.3409L15.9641 37.0957C15.966 37.0034 15.975 36.91 15.9919 36.8183C16.062 36.4508 16.283 36.12 16.5863 35.9121C16.737 35.8074 16.9079 35.7321 17.0856 35.6919C17.2715 35.652 17.4279 35.6494 17.5916 35.6338C17.918 35.6057 18.2523 35.5895 18.5819 35.595C19.2447 35.6065 19.8953 35.7126 20.5379 35.8313L19.5586 35.7814C19.2336 35.7693 18.9089 35.7748 18.5862 35.7973C18.2624 35.8162 17.9442 35.8519 17.6222 35.9023C17.4622 35.9289 17.2901 35.9431 17.1583 35.9804C17.0191 36.0195 16.8888 36.0854 16.7754 36.1724C16.5485 36.3469 16.3933 36.6065 16.3472 36.8832C16.3368 36.9531 16.3322 37.0222 16.3326 37.0937L16.3374 37.3388L16.3471 37.8289L16.3674 39.7892C16.3695 41.0962 16.3671 42.4031 16.3406 43.7101C16.319 45.0171 16.2718 46.3243 16.1987 47.6317Z" fill="white"/>
</svg>
