<svg width="24" height="24" viewBox="0 0 24 24" fill="none" xmlns="http://www.w3.org/2000/svg">
<path d="M2 19.9988H4M4 19.9988H10M4 19.9988V11.4507C4 10.9167 4 10.6498 4.065 10.4008C4.12256 10.1807 4.21725 9.972 4.345 9.78375C4.49 9.57075 4.691 9.39375 5.093 9.04275L9.894 4.84075C10.64 4.18875 11.013 3.86275 11.432 3.73875C11.802 3.62875 12.197 3.62875 12.567 3.73875C12.987 3.86275 13.361 4.18875 14.107 4.84275L18.907 9.04275C19.309 9.39475 19.51 9.57075 19.655 9.78275C19.783 9.97408 19.8763 10.1801 19.935 10.4008C20 10.6498 20 10.9167 20 11.4507V19.9988M10 19.9988H14M10 19.9988V15.9987C10 15.4683 10.2107 14.9596 10.5858 14.5845C10.9609 14.2095 11.4696 13.9987 12 13.9987C12.5304 13.9987 13.0391 14.2095 13.4142 14.5845C13.7893 14.9596 14 15.4683 14 15.9987V19.9988M20 19.9988H14M20 19.9988H22" stroke="#333333" stroke-linecap="round" stroke-linejoin="round"/>
</svg>
