<svg width="80" height="34" viewBox="0 0 80 34" fill="none" xmlns="http://www.w3.org/2000/svg">
<path d="M75.9391 26.1433H3.90074C1.74643 26.1433 0 24.4018 0 22.2536V19.5099C1.0068 18.3667 1.56201 16.8972 1.56201 15.3758V13.3297C1.56201 11.9806 2.65882 10.8869 4.01183 10.8869H7.66863C15.0801 3.92601 24.8699 0.0378918 35.051 0.0115651L39.5116 5.90843e-05C43.6007 -0.0104829 47.5675 1.38996 50.739 3.96389L58.1543 9.98194C58.8841 10.5743 59.7606 10.9594 60.6914 11.0968L71.0676 12.7606C75.6589 13.4968 79.2164 17.159 79.8082 21.7587C80.1074 24.0843 78.2905 26.1433 75.9391 26.1433Z" fill="#FF7D01"/>
<path d="M69.0876 29.2925C71.5905 26.7967 71.5905 22.7502 69.0876 20.2544C66.5848 17.7586 62.5269 17.7586 60.024 20.2544C57.5212 22.7502 57.5212 26.7967 60.024 29.2925C62.5269 31.7883 66.5848 31.7883 69.0876 29.2925Z" fill="#363E44"/>
<path d="M67.768 27.9683C69.5374 26.2038 69.5374 23.343 67.768 21.5786C65.9985 19.8141 63.1296 19.8141 61.3602 21.5786C59.5907 23.343 59.5907 26.2038 61.3602 27.9683C63.1296 29.7328 65.9985 29.7328 67.768 27.9683Z" fill="#FFD8B2"/>
<path d="M20.6736 29.2925C23.1764 26.7967 23.1764 22.7502 20.6736 20.2544C18.1707 17.7586 14.1128 17.7586 11.6099 20.2544C9.10709 22.7502 9.10709 26.7967 11.6099 29.2925C14.1128 31.7883 18.1707 31.7883 20.6736 29.2925Z" fill="#363E44"/>
<path d="M19.3461 27.9683C21.1156 26.2038 21.1156 23.343 19.3461 21.5786C17.5766 19.8141 14.7078 19.8141 12.9383 21.5786C11.1688 23.343 11.1688 26.2038 12.9383 27.9683C14.7077 29.7328 17.5766 29.7328 19.3461 27.9683Z" fill="#FFD8B2"/>
<path d="M15.3895 11.1776H56.4964L45.519 2.89655C44.7803 2.33929 43.8983 2.00229 42.9753 1.92472C32.7052 1.06152 22.4693 3.48944 13.8281 8.76645L15.3895 11.1776Z" fill="#363E44"/>
<path d="M78.3913 18.1433C78.6814 17.3751 76.9913 16.0293 74.6164 15.1375C72.2415 14.2457 70.081 14.1455 69.7909 14.9137C69.5008 15.6819 71.1909 17.0277 73.5658 17.9195C75.9407 18.8113 78.1012 18.9115 78.3913 18.1433Z" fill="#FFD8B2"/>
<path d="M4.78272 16.5657H1.44531L1.58558 13.6562H6.07443L4.78272 16.5657Z" fill="#333333"/>
<path d="M55.7625 24.8389H26.2981C26.2799 24.8389 26.2628 24.8302 26.2522 24.8154L17.245 12.2836C17.2327 12.2666 17.231 12.2443 17.2404 12.2255L19.0723 8.57187C19.0862 8.54397 19.1203 8.5327 19.1482 8.54668C19.1761 8.5606 19.1874 8.59448 19.1735 8.62233L17.3567 12.2455L26.3271 24.7262H55.7236L58.2182 18.277C59.6133 14.6703 58.2168 10.6031 54.8974 8.6061L45.2259 2.95273C45.1989 2.93701 45.1899 2.90245 45.2058 2.87556C45.2215 2.84867 45.2562 2.83964 45.2831 2.85543L54.9553 8.50919C58.3223 10.5349 59.7386 14.6598 58.3237 18.3176L55.8151 24.8028C55.8068 24.8246 55.7858 24.8389 55.7625 24.8389Z" fill="#363E44"/>
<path d="M38.0462 24.8683C38.0184 24.8683 37.9941 24.8479 37.9902 24.8197L36.0084 10.6618C36.0041 10.631 36.0256 10.6025 36.0565 10.5982C36.0873 10.5938 36.1161 10.6154 36.1204 10.6463L38.1022 24.8041C38.1065 24.835 38.085 24.8634 38.0541 24.8677C38.0514 24.8681 38.0488 24.8683 38.0462 24.8683Z" fill="#363E44"/>
<path d="M22.8805 13.8442C24.4541 13.8442 25.7297 13.6605 25.7297 13.4338C25.7297 13.2072 24.4541 13.0234 22.8805 13.0234C21.3069 13.0234 20.0312 13.2072 20.0312 13.4338C20.0312 13.6605 21.3069 13.8442 22.8805 13.8442Z" fill="#333333"/>
<path d="M41.6305 13.8442C43.2041 13.8442 44.4797 13.6605 44.4797 13.4338C44.4797 13.2072 43.2041 13.0234 41.6305 13.0234C40.0569 13.0234 38.7812 13.2072 38.7812 13.4338C38.7812 13.6605 40.0569 13.8442 41.6305 13.8442Z" fill="#333333"/>
<path d="M77.97 23.6117H76.4999C76.1042 23.6117 75.7963 23.2685 75.8401 22.8762L76.0046 21.4015C76.042 21.0662 76.3261 20.8125 76.6644 20.8125H78.1345C78.5302 20.8125 78.8381 21.1556 78.7943 21.548L78.6298 23.0227C78.5924 23.3581 78.3082 23.6117 77.97 23.6117Z" fill="#333333"/>
</svg>
