<svg width="233" height="207" viewBox="0 0 233 207" fill="none" xmlns="http://www.w3.org/2000/svg">
<path d="M190.269 167.799L117.334 167.028L40.6261 166.218C32.8874 166.136 26.679 159.796 26.7612 152.057L27.8126 52.5291C27.8945 44.7905 34.234 38.583 41.9739 38.6642L191.618 40.2441C195.396 40.2843 198.81 41.8158 201.305 44.2741C203.92 46.851 205.525 50.4443 205.483 54.4044L204.432 153.932C204.348 161.673 198.007 167.88 190.269 167.799Z" fill="#333333"/>
<path d="M106.154 62.8203L42.3669 62.1484L42.3068 67.8534L106.094 68.5253L106.154 62.8203Z" fill="white" fill-opacity="0.39"/>
<path d="M182.572 68.8716C182.646 61.8375 177.004 56.0748 169.97 56.0004C167.319 55.9722 158.319 55.8772 155.668 55.8499C148.634 55.7755 142.871 61.4178 142.797 68.4519C142.723 75.4861 148.365 81.2487 155.399 81.3231C158.05 81.3514 167.049 81.4463 169.701 81.4736C176.735 81.548 182.497 75.9058 182.572 68.8716Z" fill="#FF7D01"/>
<path d="M72.0512 99.8012L41.9743 99.4844L41.9088 105.707L71.9857 106.024L72.0512 99.8012Z" fill="white"/>
<path d="M112.155 100.223L82.0778 99.9062L82.0123 106.129L112.089 106.446L112.155 100.223Z" fill="white"/>
<path d="M152.26 100.645L122.183 100.328L122.118 106.551L152.195 106.868L152.26 100.645Z" fill="white"/>
<path d="M192.364 101.067L162.287 100.75L162.221 106.973L192.298 107.29L192.364 101.067Z" fill="white"/>
<path d="M162.021 126.162L41.7067 124.895L41.6655 128.807L161.98 130.074L162.021 126.162Z" fill="white" fill-opacity="0.39"/>
<path d="M121.827 134.275L41.6169 133.43L41.5757 137.342L121.785 138.187L121.827 134.275Z" fill="white" fill-opacity="0.39"/>
</svg>
