<svg width="24" height="24" viewBox="0 0 24 24" fill="none" xmlns="http://www.w3.org/2000/svg">
<path d="M22.968 7.86459L21 6.32259V1.99859H20V5.53959L13.658 0.570594C12.681 -0.195406 11.318 -0.195406 10.341 0.570594L1.032 7.86459C0.386 8.37059 0 9.16259 0 9.98459V23.9986H24V9.98459C24 9.14959 23.623 8.37759 22.968 7.86459ZM23 22.9986H1V9.98459C1 9.46759 1.242 8.96959 1.649 8.65159L10.958 1.35759C11.571 0.878594 12.428 0.876594 13.041 1.35759L22.352 8.65159C22.758 8.96859 23 9.46659 23 9.98459V22.9986ZM14.48 8.99859C13.4 8.99859 12.504 9.47759 11.98 10.2526C11.456 9.47859 10.56 8.99859 9.48 8.99859C7.826 8.99859 6.48 10.4346 6.48 12.1986C6.48 15.2526 11.482 18.7606 11.695 18.9096L11.98 19.1066L12.265 18.9096C12.478 18.7616 17.479 15.2526 17.479 12.1986C17.479 10.4336 16.134 8.99859 14.48 8.99859ZM11.98 17.8836C10.5 16.7936 7.48 14.1636 7.48 12.1986C7.48 10.9856 8.377 9.99859 9.48 9.99859C10.658 9.99859 11.48 10.8026 11.48 11.9526H11.501V12.0236H12.501V11.7206H12.492C12.595 10.6956 13.383 9.99759 14.48 9.99759C15.583 9.99759 16.48 10.9846 16.48 12.1976C16.48 14.1626 13.461 16.7936 11.98 17.8836Z" fill="#333333"/>
</svg>
