<svg width="32" height="24" viewBox="0 0 32 24" fill="none" xmlns="http://www.w3.org/2000/svg">
<path d="M31.4483 9.81818H29.6L25.6234 0.972279C25.4932 0.682208 25.2804 0.435854 25.011 0.263225C24.7416 0.0905964 24.4272 -0.000856573 24.1062 6.04653e-06H7.88965C7.56863 -0.000856573 7.25427 0.0905964 6.98488 0.263225C6.71549 0.435854 6.5027 0.682208 6.37241 0.972279L2.4 9.81818H0.551724C0.405398 9.81818 0.265065 9.87565 0.161596 9.97794C0.0581279 10.0802 0 10.219 0 10.3636C0 10.5083 0.0581279 10.647 0.161596 10.7493C0.265065 10.8516 0.405398 10.9091 0.551724 10.9091H2.2069V22.3636C2.2069 22.7976 2.38128 23.2138 2.69169 23.5207C3.00209 23.8276 3.42309 24 3.86207 24H7.17241C7.61139 24 8.03239 23.8276 8.3428 23.5207C8.6532 23.2138 8.82759 22.7976 8.82759 22.3636V19.6364H23.1724V22.3636C23.1724 22.7976 23.3468 23.2138 23.6572 23.5207C23.9676 23.8276 24.3886 24 24.8276 24H28.1379C28.5769 24 28.9979 23.8276 29.3083 23.5207C29.6187 23.2138 29.7931 22.7976 29.7931 22.3636V10.9091H31.4483C31.5946 10.9091 31.7349 10.8516 31.8384 10.7493C31.9419 10.647 32 10.5083 32 10.3636C32 10.219 31.9419 10.0802 31.8384 9.97794C31.7349 9.87565 31.5946 9.81818 31.4483 9.81818ZM7.38483 1.41546C7.42812 1.31883 7.49888 1.23671 7.58851 1.17909C7.67813 1.12148 7.78275 1.09084 7.88965 1.09091H24.1103C24.2172 1.09084 24.3219 1.12148 24.4115 1.17909C24.5011 1.23671 24.5719 1.31883 24.6152 1.41546L28.3917 9.81818H3.60828L7.38483 1.41546ZM7.72414 22.3636C7.72414 22.5083 7.66601 22.647 7.56254 22.7493C7.45907 22.8516 7.31874 22.9091 7.17241 22.9091H3.86207C3.71574 22.9091 3.57541 22.8516 3.47194 22.7493C3.36847 22.647 3.31034 22.5083 3.31034 22.3636V19.6364H7.72414V22.3636ZM28.1379 22.9091H24.8276C24.6813 22.9091 24.5409 22.8516 24.4375 22.7493C24.334 22.647 24.2759 22.5083 24.2759 22.3636V19.6364H28.6897V22.3636C28.6897 22.5083 28.6315 22.647 28.5281 22.7493C28.4246 22.8516 28.2843 22.9091 28.1379 22.9091ZM28.6897 18.5455H3.31034V10.9091H28.6897V18.5455ZM6.62069 14.7273C6.62069 14.5826 6.67882 14.4439 6.78229 14.3416C6.88575 14.2393 7.02609 14.1818 7.17241 14.1818H9.37931C9.52564 14.1818 9.66597 14.2393 9.76944 14.3416C9.87291 14.4439 9.93103 14.5826 9.93103 14.7273C9.93103 14.8719 9.87291 15.0107 9.76944 15.113C9.66597 15.2153 9.52564 15.2727 9.37931 15.2727H7.17241C7.02609 15.2727 6.88575 15.2153 6.78229 15.113C6.67882 15.0107 6.62069 14.8719 6.62069 14.7273ZM22.069 14.7273C22.069 14.5826 22.1271 14.4439 22.2306 14.3416C22.334 14.2393 22.4744 14.1818 22.6207 14.1818H24.8276C24.9739 14.1818 25.1142 14.2393 25.2177 14.3416C25.3212 14.4439 25.3793 14.5826 25.3793 14.7273C25.3793 14.8719 25.3212 15.0107 25.2177 15.113C25.1142 15.2153 24.9739 15.2727 24.8276 15.2727H22.6207C22.4744 15.2727 22.334 15.2153 22.2306 15.113C22.1271 15.0107 22.069 14.8719 22.069 14.7273Z" fill="#333333"/>
</svg>
