<svg width="24" height="22" viewBox="0 0 24 22" fill="none" xmlns="http://www.w3.org/2000/svg">
<path d="M12 21.3387L10.9893 20.4253C8.81334 18.4378 7.01334 16.7364 5.58934 15.3213C4.16623 13.9053 3.04267 12.6564 2.21867 11.5747C1.39467 10.4929 0.81867 9.51511 0.49067 8.64133C0.16267 7.76756 -0.000885285 6.88711 3.6036e-06 6C3.6036e-06 4.304 0.576004 2.88 1.728 1.728C2.88 0.576 4.304 0 6 0C7.17334 0 8.27334 0.3 9.3 0.9C10.3267 1.5 11.2267 2.37289 12 3.51867C12.7733 2.37289 13.6733 1.5 14.7 0.9C15.7267 0.3 16.8267 0 18 0C19.696 0 21.12 0.576 22.272 1.728C23.424 2.88 24 4.304 24 6C24 6.88533 23.8364 7.76533 23.5093 8.64C23.1813 9.51645 22.6053 10.4951 21.7813 11.576C20.9573 12.6569 19.8378 13.9053 18.4227 15.3213C17.0076 16.7364 15.2031 18.4378 13.0093 20.4253L12 21.3387Z" fill="#FF7D01"/>
</svg>
