<svg width="24" height="23" viewBox="0 0 24 23" fill="none" xmlns="http://www.w3.org/2000/svg">
<path d="M12 22.2664L10.9893 21.3134C8.81334 19.2394 7.01334 17.4641 5.58934 15.9875C4.16623 14.5099 3.04267 13.2067 2.21867 12.0779C1.39467 10.9491 0.81867 9.92881 0.49067 9.01704C0.16267 8.10528 -0.000885285 7.18655 3.6036e-06 6.26087C3.6036e-06 4.49113 0.576004 3.00522 1.728 1.80313C2.88 0.601043 4.304 0 6 0C7.17334 0 8.27334 0.313043 9.3 0.93913C10.3267 1.56522 11.2267 2.47606 12 3.67165C12.7733 2.47606 13.6733 1.56522 14.7 0.93913C15.7267 0.313043 16.8267 0 18 0C19.696 0 21.12 0.601043 22.272 1.80313C23.424 3.00522 24 4.49113 24 6.26087C24 7.1847 23.8364 8.10296 23.5093 9.01565C23.1813 9.9302 22.6053 10.9514 21.7813 12.0793C20.9573 13.2072 19.8378 14.5099 18.4227 15.9875C17.0076 17.4641 15.2031 19.2394 13.0093 21.3134L12 22.2664ZM12 20.3826C14.1333 18.3699 15.8889 16.6465 17.2667 15.2125C18.6444 13.7786 19.7333 12.5333 20.5333 11.4769C21.3333 10.4204 21.8889 9.48591 22.2 8.67339C22.5111 7.85901 22.6667 7.05484 22.6667 6.26087C22.6667 4.86956 22.2222 3.71014 21.3333 2.78261C20.4444 1.85507 19.3333 1.3913 18 1.3913C16.9387 1.3913 15.9591 1.70759 15.0613 2.34017C14.1636 2.97275 13.3609 3.92487 12.6533 5.19652H11.3493C10.6231 3.90725 9.81556 2.95049 8.92667 2.32626C8.03778 1.70296 7.06267 1.3913 6.00134 1.3913C4.68578 1.3913 3.57911 1.85507 2.68134 2.78261C1.78356 3.71014 1.33423 4.86956 1.33334 6.26087C1.33334 7.05484 1.48889 7.85901 1.8 8.67339C2.11111 9.48777 2.66667 10.4223 3.46667 11.4769C4.26667 12.5315 5.35556 13.7721 6.73334 15.1986C8.11111 16.6252 9.86667 18.3532 12 20.3826Z" fill="#333333"/>
</svg>
