<svg width="11" height="13" viewBox="0 0 11 13" fill="none" xmlns="http://www.w3.org/2000/svg">
<path d="M5.87319 12.38C5.76439 12.4581 5.63381 12.5002 5.49985 12.5002C5.3659 12.5002 5.23532 12.4581 5.12652 12.38C1.90719 10.0853 -1.50948 5.36533 1.94452 1.95467C2.89275 1.0219 4.16974 0.499416 5.49985 0.5C6.83319 0.5 8.11252 1.02333 9.05519 1.954C12.5092 5.36467 9.09252 10.084 5.87319 12.38Z" stroke="#333333" stroke-linecap="round" stroke-linejoin="round"/>
<path d="M5.5013 6.4987C5.85492 6.4987 6.19406 6.35822 6.44411 6.10817C6.69416 5.85812 6.83464 5.51899 6.83464 5.16536C6.83464 4.81174 6.69416 4.4726 6.44411 4.22256C6.19406 3.97251 5.85492 3.83203 5.5013 3.83203C5.14768 3.83203 4.80854 3.97251 4.55849 4.22256C4.30844 4.4726 4.16797 4.81174 4.16797 5.16536C4.16797 5.51899 4.30844 5.85812 4.55849 6.10817C4.80854 6.35822 5.14768 6.4987 5.5013 6.4987Z" stroke="#333333" stroke-linecap="round" stroke-linejoin="round"/>
</svg>
