<svg width="21" height="20" viewBox="0 0 21 20" fill="none" xmlns="http://www.w3.org/2000/svg">
<path d="M9.89947 0.346338C10.0491 -0.114317 10.7009 -0.114317 10.8505 0.346338L12.9569 6.82912C13.0238 7.03513 13.2158 7.17461 13.4324 7.17461H20.2488C20.7332 7.17461 20.9346 7.79442 20.5427 8.07912L15.0281 12.0857C14.8529 12.213 14.7796 12.4387 14.8465 12.6447L16.9529 19.1275C17.1026 19.5881 16.5753 19.9712 16.1835 19.6865L10.6689 15.6799C10.4936 15.5526 10.2564 15.5526 10.0811 15.6799L4.56653 19.6865C4.17467 19.9712 3.64743 19.5881 3.79711 19.1275L5.90349 12.6447C5.97043 12.4387 5.8971 12.213 5.72185 12.0857L0.207272 8.07912C-0.184585 7.79442 0.0168021 7.17461 0.501164 7.17461H7.31756C7.53417 7.17461 7.72615 7.03513 7.79309 6.82912L9.89947 0.346338Z" fill="#FF7D01"/>
</svg>
