<svg width="18" height="16" viewBox="0 0 18 16" fill="none" xmlns="http://www.w3.org/2000/svg">
<path d="M15.5 1.51C15.3 0.92 14.91 0.5 14.25 0.5H3.75C3.09 0.5 2.71 0.92 2.5 1.51L0.5 7.25V14.75C0.5 15.3 0.7 15.5 1.25 15.5H1.75C2.3 15.5 2.5 15.3 2.5 14.75V13.5H15.5V14.75C15.5 15.3 15.7 15.5 16.25 15.5H16.75C17.3 15.5 17.5 15.3 17.5 14.75V7.25L15.5 1.51Z" stroke="#333333"/>
<path d="M3.5 10.5C3.23478 10.5 2.98043 10.3946 2.79289 10.2071C2.60536 10.0196 2.5 9.76522 2.5 9.5C2.5 9.23478 2.60536 8.98043 2.79289 8.79289C2.98043 8.60536 3.23478 8.5 3.5 8.5C3.76522 8.5 4.01957 8.60536 4.20711 8.79289C4.39464 8.98043 4.5 9.23478 4.5 9.5C4.5 9.76522 4.39464 10.0196 4.20711 10.2071C4.01957 10.3946 3.76522 10.5 3.5 10.5ZM14.5 10.5C14.2348 10.5 13.9804 10.3946 13.7929 10.2071C13.6054 10.0196 13.5 9.76522 13.5 9.5C13.5 9.23478 13.6054 8.98043 13.7929 8.79289C13.9804 8.60536 14.2348 8.5 14.5 8.5C14.7652 8.5 15.0196 8.60536 15.2071 8.79289C15.3946 8.98043 15.5 9.23478 15.5 9.5C15.5 9.76522 15.3946 10.0196 15.2071 10.2071C15.0196 10.3946 14.7652 10.5 14.5 10.5Z" stroke="#333333"/>
<path d="M2.75 5.5L4 2H14L15.25 5.5H2.75Z" stroke="#333333" stroke-linejoin="round"/>
</svg>
