<svg width="19" height="19" viewBox="0 0 19 19" fill="none" xmlns="http://www.w3.org/2000/svg">
<path d="M9.5 18.5C14.4706 18.5 18.5 14.4706 18.5 9.5C18.5 4.52944 14.4706 0.5 9.5 0.5C4.52944 0.5 0.5 4.52944 0.5 9.5C0.5 14.4706 4.52944 18.5 9.5 18.5Z" stroke="#333333"/>
<path d="M9.5 16C9.77614 16 10 15.7761 10 15.5C10 15.2239 9.77614 15 9.5 15C9.22386 15 9 15.2239 9 15.5C9 15.7761 9.22386 16 9.5 16Z" fill="#333333"/>
<path d="M9.5 13.5V12.643C9.5 11.929 9.857 11.262 10.451 10.866L11.05 10.466C11.4959 10.1683 11.8615 9.76531 12.1144 9.2926C12.3673 8.8199 12.4998 8.29211 12.5 7.756V7.5C12.5 6.70435 12.1839 5.94129 11.6213 5.37868C11.0587 4.81607 10.2956 4.5 9.5 4.5C8.70435 4.5 7.94129 4.81607 7.37868 5.37868C6.81607 5.94129 6.5 6.70435 6.5 7.5" stroke="#333333"/>
</svg>
