<svg width="18" height="18" viewBox="0 0 18 18" fill="none" xmlns="http://www.w3.org/2000/svg">
<path d="M5.25 5.625C5.25 5.52554 5.28951 5.43016 5.35983 5.35984C5.43016 5.28951 5.52554 5.25 5.625 5.25H11.625C11.7245 5.25 11.8198 5.28951 11.8902 5.35984C11.9605 5.43016 12 5.52554 12 5.625C12 5.72446 11.9605 5.81984 11.8902 5.89017C11.8198 5.96049 11.7245 6 11.625 6H5.625C5.52554 6 5.43016 5.96049 5.35983 5.89017C5.28951 5.81984 5.25 5.72446 5.25 5.625ZM5.625 9H11.625C11.7245 9 11.8198 8.96049 11.8902 8.89017C11.9605 8.81984 12 8.72446 12 8.625C12 8.52554 11.9605 8.43016 11.8902 8.35984C11.8198 8.28951 11.7245 8.25 11.625 8.25H5.625C5.52554 8.25 5.43016 8.28951 5.35983 8.35984C5.28951 8.43016 5.25 8.52554 5.25 8.625C5.25 8.72446 5.28951 8.81984 5.35983 8.89017C5.43016 8.96049 5.52554 9 5.625 9ZM8.625 11.25H5.625C5.52554 11.25 5.43016 11.2895 5.35983 11.3598C5.28951 11.4302 5.25 11.5255 5.25 11.625C5.25 11.7245 5.28951 11.8198 5.35983 11.8902C5.43016 11.9605 5.52554 12 5.625 12H8.625C8.72446 12 8.81984 11.9605 8.89017 11.8902C8.96049 11.8198 9 11.7245 9 11.625C9 11.5255 8.96049 11.4302 8.89017 11.3598C8.81984 11.2895 8.72446 11.25 8.625 11.25ZM17.25 1.125V11.3147C17.2504 11.4625 17.2214 11.6088 17.1648 11.7453C17.1081 11.8818 17.0249 12.0056 16.92 12.1097L12.1097 16.9209C12.0055 17.0256 11.8815 17.1085 11.7451 17.165C11.6086 17.2215 11.4624 17.2504 11.3147 17.25H1.125C0.826631 17.25 0.540483 17.1315 0.329505 16.9205C0.118526 16.7095 0 16.4234 0 16.125V1.125C0 0.826631 0.118526 0.540483 0.329505 0.329505C0.540483 0.118526 0.826631 0 1.125 0H16.125C16.4234 0 16.7095 0.118526 16.9205 0.329505C17.1315 0.540483 17.25 0.826631 17.25 1.125ZM1.125 16.5H11.25V11.625C11.25 11.5255 11.2895 11.4302 11.3598 11.3598C11.4302 11.2895 11.5255 11.25 11.625 11.25H16.5V1.125C16.5 1.02554 16.4605 0.930161 16.3902 0.859835C16.3198 0.789509 16.2245 0.75 16.125 0.75H1.125C1.02554 0.75 0.930161 0.789509 0.859835 0.859835C0.789509 0.930161 0.75 1.02554 0.75 1.125V16.125C0.75 16.2245 0.789509 16.3198 0.859835 16.3902C0.930161 16.4605 1.02554 16.5 1.125 16.5ZM15.9703 12H12V15.9703L15.9703 12Z" fill="#333333"/>
</svg>
