<svg width="19" height="19" viewBox="0 0 19 19" fill="none" xmlns="http://www.w3.org/2000/svg">
<path d="M9.5 18.5C11.28 18.5 13.0201 17.9722 14.5001 16.9832C15.9802 15.9943 17.1337 14.5887 17.8149 12.9442C18.4961 11.2996 18.6743 9.49002 18.3271 7.74419C17.9798 5.99836 17.1226 4.39472 15.864 3.13604C14.6053 1.87737 13.0016 1.0202 11.2558 0.672937C9.50998 0.32567 7.70038 0.5039 6.05585 1.18509C4.41131 1.86628 3.00571 3.01983 2.01677 4.49987C1.02784 5.97991 0.5 7.71997 0.5 9.5C0.5 10.988 0.86 12.39 1.5 13.627L0.5 18.5L5.373 17.5C6.609 18.139 8.013 18.5 9.5 18.5Z" stroke="#333333" stroke-linecap="round" stroke-linejoin="round"/>
</svg>
