<svg width="18" height="13" viewBox="0 0 18 13" fill="none" xmlns="http://www.w3.org/2000/svg">
<path d="M0.5 3.398C0.5 2.373 0.5 1.86 0.703 1.47C0.873718 1.14155 1.14155 0.873718 1.47 0.703C1.86 0.5 2.373 0.5 3.398 0.5H14.602C15.627 0.5 16.14 0.5 16.53 0.703C16.8585 0.873718 17.1263 1.14155 17.297 1.47C17.5 1.86 17.5 2.373 17.5 3.398V9.602C17.5 10.627 17.5 11.14 17.297 11.53C17.1263 11.8585 16.8585 12.1263 16.53 12.297C16.14 12.5 15.627 12.5 14.602 12.5H3.398C2.373 12.5 1.86 12.5 1.47 12.297C1.14155 12.1263 0.873718 11.8585 0.703 11.53C0.5 11.14 0.5 10.627 0.5 9.602V3.398Z" stroke="#333333"/>
<path d="M0.5 4.5H17.5" stroke="#333333" stroke-linecap="round"/>
<path d="M3.5 10C3.77614 10 4 9.77614 4 9.5C4 9.22386 3.77614 9 3.5 9C3.22386 9 3 9.22386 3 9.5C3 9.77614 3.22386 10 3.5 10Z" fill="#333333"/>
</svg>
