<svg width="28" height="25" viewBox="0 0 28 25" fill="none" xmlns="http://www.w3.org/2000/svg">
<path d="M7.33464 12.5H20.668M22.0013 5.83333H22.0133M7.06797 20.5C7.06797 20.5 8.13464 23 6.0013 24.5M20.9346 20.5C20.9346 20.5 19.868 23 22.0013 24.5M14.0013 20.5V24.5M19.3346 0.5C22.4533 0.5 24.012 0.5 25.1506 1.21467C25.7446 1.58779 26.2468 2.09002 26.62 2.684C27.3346 3.82267 27.3346 5.38 27.3346 8.5C27.3346 11.62 27.3346 13.1773 26.6186 14.316C26.2461 14.9092 25.7448 15.4109 25.152 15.784C24.0106 16.5 22.452 16.5 19.3346 16.5H8.66797C5.5493 16.5 3.99064 16.5 2.85197 15.784C2.25828 15.4116 1.75607 14.9103 1.38264 14.3173C0.667969 13.176 0.667969 11.6173 0.667969 8.5C0.667969 5.38267 0.667969 3.82267 1.38264 2.684C1.75576 2.09002 2.25799 1.58779 2.85197 1.21467C3.99064 0.5 5.54797 0.5 8.66797 0.5H19.3346Z" stroke="#333333" stroke-linecap="round" stroke-linejoin="round"/>
</svg>
