<svg width="13" height="13" viewBox="0 0 13 13" fill="none" xmlns="http://www.w3.org/2000/svg">
<path d="M9.40309 2.06198L3.56459 12.0612C3.49299 12.1839 3.39182 12.2626 3.26109 12.2974C3.13035 12.3323 3.00355 12.3134 2.88069 12.2409C2.75782 12.1684 2.67909 12.0672 2.6445 11.9374C2.60991 11.8076 2.62875 11.6808 2.70102 11.557L8.53952 1.55775L1.10006 3.51218C0.966927 3.54715 0.842187 3.53337 0.725843 3.47085C0.609835 3.40774 0.532236 3.30067 0.493046 3.14964C0.456062 3.00144 0.468472 2.87243 0.530278 2.76261C0.592324 2.6537 0.698744 2.5792 0.849538 2.5391L9.16576 0.354335C9.28579 0.323289 9.39387 0.315368 9.48998 0.330572C9.58609 0.345776 9.68078 0.380608 9.77405 0.435065C9.86731 0.489522 9.94418 0.554865 10.0047 0.631095C10.0655 0.70675 10.1116 0.804303 10.143 0.923758L12.3281 9.24135C12.3616 9.36901 12.3475 9.49238 12.2857 9.61146C12.2235 9.73112 12.1187 9.81155 11.9711 9.85276C11.8206 9.89229 11.6901 9.87978 11.5796 9.81524C11.4691 9.75069 11.3943 9.64336 11.3554 9.49324L9.40309 2.06198Z" fill="#333333"/>
</svg>
