<svg width="22" height="22" viewBox="0 0 22 22" fill="none" xmlns="http://www.w3.org/2000/svg">
<path d="M11.0026 0.332031C8.89294 0.332031 6.83065 0.95762 5.07653 2.12969C3.3224 3.30176 1.95523 4.96766 1.14789 6.91674C0.340559 8.86582 0.129324 11.0105 0.540899 13.0797C0.952475 15.1488 1.96838 17.0494 3.46014 18.5412C4.9519 20.0329 6.85252 21.0488 8.92165 21.4604C10.9908 21.872 13.1355 21.6607 15.0846 20.8534C17.0336 20.0461 18.6995 18.6789 19.8716 16.9248C21.0437 15.1707 21.6693 13.1084 21.6693 10.9987C21.6693 8.16972 20.5455 5.45661 18.5451 3.45623C16.5447 1.45584 13.8316 0.332031 11.0026 0.332031ZM1.66928 10.9987C1.66991 8.75595 2.48215 6.58921 3.95594 4.8987L17.1026 18.0454C15.7505 19.2129 14.0918 19.9679 12.3234 20.2207C10.5549 20.4735 8.7511 20.2135 7.12607 19.4715C5.50103 18.7295 4.12307 17.5368 3.1558 16.0349C2.18853 14.533 1.6726 12.7851 1.66928 10.9987ZM18.0493 17.0987L4.90261 3.95203C6.69152 2.45732 8.97502 1.68616 11.3039 1.79028C13.6327 1.8944 15.8383 2.86625 17.4867 4.51464C19.1351 6.16302 20.1069 8.3686 20.211 10.6974C20.3151 13.0263 19.544 15.3098 18.0493 17.0987Z" fill="#333333"/>
</svg>
