<svg width="33" height="25" viewBox="0 0 33 25" fill="none" xmlns="http://www.w3.org/2000/svg">
<path d="M31.9483 10.3182H30.1L26.1234 1.47228C25.9932 1.18221 25.7804 0.935854 25.511 0.763225C25.2416 0.590596 24.9272 0.499143 24.6062 0.500006H8.38965C8.06863 0.499143 7.75427 0.590596 7.48488 0.763225C7.21549 0.935854 7.0027 1.18221 6.87241 1.47228L2.9 10.3182H1.05172C0.905398 10.3182 0.765065 10.3757 0.661596 10.4779C0.558128 10.5802 0.5 10.719 0.5 10.8636C0.5 11.0083 0.558128 11.147 0.661596 11.2493C0.765065 11.3516 0.905398 11.4091 1.05172 11.4091H2.7069V22.8636C2.7069 23.2976 2.88128 23.7138 3.19169 24.0207C3.50209 24.3276 3.92309 24.5 4.36207 24.5H7.67241C8.11139 24.5 8.53239 24.3276 8.8428 24.0207C9.1532 23.7138 9.32759 23.2976 9.32759 22.8636V20.1364H23.6724V22.8636C23.6724 23.2976 23.8468 23.7138 24.1572 24.0207C24.4676 24.3276 24.8886 24.5 25.3276 24.5H28.6379C29.0769 24.5 29.4979 24.3276 29.8083 24.0207C30.1187 23.7138 30.2931 23.2976 30.2931 22.8636V11.4091H31.9483C32.0946 11.4091 32.2349 11.3516 32.3384 11.2493C32.4419 11.147 32.5 11.0083 32.5 10.8636C32.5 10.719 32.4419 10.5802 32.3384 10.4779C32.2349 10.3757 32.0946 10.3182 31.9483 10.3182ZM7.88483 1.91546C7.92812 1.81883 7.99888 1.73671 8.08851 1.67909C8.17813 1.62148 8.28275 1.59084 8.38965 1.59091H24.6103C24.7172 1.59084 24.8219 1.62148 24.9115 1.67909C25.0011 1.73671 25.0719 1.81883 25.1152 1.91546L28.8917 10.3182H4.10828L7.88483 1.91546ZM8.22414 22.8636C8.22414 23.0083 8.16601 23.147 8.06254 23.2493C7.95907 23.3516 7.81874 23.4091 7.67241 23.4091H4.36207C4.21574 23.4091 4.07541 23.3516 3.97194 23.2493C3.86847 23.147 3.81034 23.0083 3.81034 22.8636V20.1364H8.22414V22.8636ZM28.6379 23.4091H25.3276C25.1813 23.4091 25.0409 23.3516 24.9375 23.2493C24.834 23.147 24.7759 23.0083 24.7759 22.8636V20.1364H29.1897V22.8636C29.1897 23.0083 29.1315 23.147 29.0281 23.2493C28.9246 23.3516 28.7843 23.4091 28.6379 23.4091ZM29.1897 19.0455H3.81034V11.4091H29.1897V19.0455ZM7.12069 15.2273C7.12069 15.0826 7.17882 14.9439 7.28229 14.8416C7.38575 14.7393 7.52609 14.6818 7.67241 14.6818H9.87931C10.0256 14.6818 10.166 14.7393 10.2694 14.8416C10.3729 14.9439 10.431 15.0826 10.431 15.2273C10.431 15.3719 10.3729 15.5107 10.2694 15.613C10.166 15.7153 10.0256 15.7727 9.87931 15.7727H7.67241C7.52609 15.7727 7.38575 15.7153 7.28229 15.613C7.17882 15.5107 7.12069 15.3719 7.12069 15.2273ZM22.569 15.2273C22.569 15.0826 22.6271 14.9439 22.7306 14.8416C22.834 14.7393 22.9744 14.6818 23.1207 14.6818H25.3276C25.4739 14.6818 25.6142 14.7393 25.7177 14.8416C25.8212 14.9439 25.8793 15.0826 25.8793 15.2273C25.8793 15.3719 25.8212 15.5107 25.7177 15.613C25.6142 15.7153 25.4739 15.7727 25.3276 15.7727H23.1207C22.9744 15.7727 22.834 15.7153 22.7306 15.613C22.6271 15.5107 22.569 15.3719 22.569 15.2273Z" fill="#333333"/>
</svg>
