<svg width="36" height="25" viewBox="0 0 36 25" fill="none" xmlns="http://www.w3.org/2000/svg">
<path d="M35.3491 9.11105L28.4804 1.14508C28.3104 0.942997 28.0978 0.780489 27.8577 0.669027C27.6177 0.557564 27.3559 0.499864 27.0909 0.5H2.31034C1.83021 0.5 1.36974 0.689665 1.03024 1.02727C0.690732 1.36488 0.5 1.82277 0.5 2.30022V19.1023C0.5 19.5797 0.690732 20.0376 1.03024 20.3752C1.36974 20.7128 1.83021 20.9025 2.31034 20.9025H5.37134C5.51708 21.9016 6.01981 22.8151 6.7875 23.4757C7.55519 24.1364 8.53647 24.5 9.55172 24.5C10.567 24.5 11.5483 24.1364 12.316 23.4757C13.0836 22.8151 13.5864 21.9016 13.7321 20.9025H22.2679C22.4136 21.9016 22.9164 22.8151 23.684 23.4757C24.4517 24.1364 25.433 24.5 26.4483 24.5C27.4635 24.5 28.4448 24.1364 29.2125 23.4757C29.9802 22.8151 30.4829 21.9016 30.6287 20.9025H33.6897C34.1698 20.9025 34.6303 20.7128 34.9698 20.3752C35.3093 20.0376 35.5 19.5797 35.5 19.1023V9.50109C35.4983 9.3573 35.4448 9.21889 35.3491 9.11105ZM27.5586 1.92067L33.5841 8.90102H23.431V1.70015H27.0909C27.1805 1.70011 27.2689 1.71988 27.3498 1.75802C27.4307 1.79616 27.502 1.85172 27.5586 1.92067ZM12.569 8.90102V1.70015H22.2241V8.90102H12.569ZM2.31034 1.70015H11.3621V8.90102H1.7069V2.30022C1.7069 2.14107 1.77047 1.98844 1.88364 1.8759C1.99681 1.76337 2.1503 1.70015 2.31034 1.70015ZM9.55172 23.3028C8.95497 23.3028 8.37162 23.1268 7.87543 22.7971C7.37925 22.4674 6.99252 21.9988 6.76416 21.4506C6.53579 20.9024 6.47604 20.2991 6.59246 19.7171C6.70888 19.135 6.99624 18.6004 7.41821 18.1808C7.84018 17.7612 8.3778 17.4755 8.96309 17.3597C9.54838 17.2439 10.155 17.3033 10.7064 17.5304C11.2577 17.7575 11.7289 18.1421 12.0605 18.6355C12.392 19.1289 12.569 19.709 12.569 20.3024C12.569 21.0982 12.2511 21.8613 11.6852 22.424C11.1194 22.9867 10.3519 23.3028 9.55172 23.3028ZM26.4483 23.3028C25.8515 23.3028 25.2682 23.1268 24.772 22.7971C24.2758 22.4674 23.8891 21.9988 23.6607 21.4506C23.4323 20.9024 23.3726 20.2991 23.489 19.7171C23.6054 19.135 23.8928 18.6004 24.3148 18.1808C24.7367 17.7612 25.2744 17.4755 25.8596 17.3597C26.4449 17.2439 27.0516 17.3033 27.6029 17.5304C28.1543 17.7575 28.6255 18.1421 28.957 18.6355C29.2886 19.1289 29.4655 19.709 29.4655 20.3024C29.4655 21.0982 29.1476 21.8613 28.5818 22.424C28.0159 22.9867 27.2485 23.3028 26.4483 23.3028ZM33.6897 19.7023H30.6287C30.4829 18.7032 29.9802 17.7897 29.2125 17.1291C28.4448 16.4684 27.4635 16.1048 26.4483 16.1048C25.433 16.1048 24.4517 16.4684 23.684 17.1291C22.9164 17.7897 22.4136 18.7032 22.2679 19.7023H13.7321C13.5864 18.7032 13.0836 17.7897 12.316 17.1291C11.5483 16.4684 10.567 16.1048 9.55172 16.1048C8.53647 16.1048 7.55519 16.4684 6.7875 17.1291C6.01981 17.7897 5.51708 18.7032 5.37134 19.7023H2.31034C2.1503 19.7023 1.99681 19.6391 1.88364 19.5266C1.77047 19.414 1.7069 19.2614 1.7069 19.1023V10.1012H34.2931V19.1023C34.2931 19.2614 34.2295 19.414 34.1164 19.5266C34.0032 19.6391 33.8497 19.7023 33.6897 19.7023Z" fill="#333333"/>
</svg>
