<svg width="33" height="25" viewBox="0 0 33 25" fill="none" xmlns="http://www.w3.org/2000/svg">
<path d="M31.9483 8.13636H30.1869L28.8076 1.79409C28.7269 1.42943 28.5232 1.10273 28.23 0.867581C27.9367 0.632435 27.5714 0.502818 27.1938 0.5H5.80621C5.4277 0.501583 5.06103 0.630637 4.76666 0.865884C4.4723 1.10113 4.2678 1.42853 4.1869 1.79409L2.8131 8.13636H1.05172C0.905398 8.13636 0.765065 8.19383 0.661596 8.29612C0.558128 8.39842 0.5 8.53716 0.5 8.68182C0.5 8.82648 0.558128 8.96522 0.661596 9.06751C0.765065 9.16981 0.905398 9.22727 1.05172 9.22727H2.7069V22.8636C2.7069 23.2976 2.88128 23.7138 3.19169 24.0207C3.50209 24.3276 3.92309 24.5 4.36207 24.5H7.67241C8.11139 24.5 8.53239 24.3276 8.8428 24.0207C9.1532 23.7138 9.32759 23.2976 9.32759 22.8636V19.0455H23.6724V22.8636C23.6724 23.2976 23.8468 23.7138 24.1572 24.0207C24.4676 24.3276 24.8886 24.5 25.3276 24.5H28.6379C29.0769 24.5 29.4979 24.3276 29.8083 24.0207C30.1187 23.7138 30.2931 23.2976 30.2931 22.8636V9.22727H31.9483C32.0946 9.22727 32.2349 9.16981 32.3384 9.06751C32.4419 8.96522 32.5 8.82648 32.5 8.68182C32.5 8.53716 32.4419 8.39842 32.3384 8.29612C32.2349 8.19383 32.0946 8.13636 31.9483 8.13636ZM5.2669 2.02182C5.2934 1.89985 5.36138 1.79055 5.45952 1.71213C5.55766 1.63372 5.68002 1.59093 5.80621 1.59091H27.1938C27.32 1.59093 27.4423 1.63372 27.5405 1.71213C27.6386 1.79055 27.7066 1.89985 27.7331 2.02182L29.0586 8.13636H3.94828L5.2669 2.02182ZM8.22414 22.8636C8.22414 23.0083 8.16601 23.147 8.06254 23.2493C7.95907 23.3516 7.81874 23.4091 7.67241 23.4091H4.36207C4.21574 23.4091 4.07541 23.3516 3.97194 23.2493C3.86847 23.147 3.81034 23.0083 3.81034 22.8636V19.0455H8.22414V22.8636ZM28.6379 23.4091H25.3276C25.1813 23.4091 25.0409 23.3516 24.9375 23.2493C24.834 23.147 24.7759 23.0083 24.7759 22.8636V19.0455H29.1897V22.8636C29.1897 23.0083 29.1315 23.147 29.0281 23.2493C28.9246 23.3516 28.7843 23.4091 28.6379 23.4091ZM29.1897 17.9545H19.2586V13.0455C19.2586 12.9008 19.2005 12.7621 19.097 12.6598C18.9936 12.5575 18.8532 12.5 18.7069 12.5C18.5606 12.5 18.4202 12.5575 18.3168 12.6598C18.2133 12.7621 18.1552 12.9008 18.1552 13.0455V17.9545H14.8448V13.0455C14.8448 12.9008 14.7867 12.7621 14.6832 12.6598C14.5798 12.5575 14.4394 12.5 14.2931 12.5C14.1468 12.5 14.0064 12.5575 13.903 12.6598C13.7995 12.7621 13.7414 12.9008 13.7414 13.0455V17.9545H3.81034V9.22727H29.1897V17.9545ZM7.12069 13.5909C7.12069 13.3751 7.18541 13.1642 7.30665 12.9848C7.4279 12.8054 7.60024 12.6656 7.80187 12.583C8.0035 12.5005 8.22536 12.4789 8.43941 12.521C8.65346 12.5631 8.85007 12.667 9.00439 12.8195C9.15871 12.9721 9.26381 13.1665 9.30638 13.3781C9.34896 13.5897 9.32711 13.809 9.24359 14.0084C9.16007 14.2077 9.01864 14.3781 8.83718 14.498C8.65572 14.6178 8.44238 14.6818 8.22414 14.6818C7.93149 14.6818 7.65082 14.5669 7.44388 14.3623C7.23695 14.1577 7.12069 13.8802 7.12069 13.5909ZM23.6724 13.5909C23.6724 13.3751 23.7371 13.1642 23.8584 12.9848C23.9796 12.8054 24.152 12.6656 24.3536 12.583C24.5552 12.5005 24.7771 12.4789 24.9911 12.521C25.2052 12.5631 25.4018 12.667 25.5561 12.8195C25.7104 12.9721 25.8155 13.1665 25.8581 13.3781C25.9007 13.5897 25.8788 13.809 25.7953 14.0084C25.7118 14.2077 25.5704 14.3781 25.3889 14.498C25.2074 14.6178 24.9941 14.6818 24.7759 14.6818C24.4832 14.6818 24.2025 14.5669 23.9956 14.3623C23.7887 14.1577 23.6724 13.8802 23.6724 13.5909Z" fill="#333333"/>
</svg>
