<svg width="24" height="24" viewBox="0 0 24 24" fill="none" xmlns="http://www.w3.org/2000/svg">
<path d="M6 2V4M18 2V4M21 8H3M21.5 12.243C21.5 7.886 21.5 5.707 20.248 4.353C18.996 3 16.98 3 12.95 3H11.05C7.02 3 5.004 3 3.752 4.354C2.5 5.707 2.5 7.886 2.5 12.244V12.757C2.5 17.114 2.5 19.293 3.752 20.647C5.004 22 7.02 22 11.05 22H12.95C16.98 22 18.996 22 20.248 20.646C21.5 19.293 21.5 17.114 21.5 12.756V12.243Z" stroke="#333333" stroke-linecap="round" stroke-linejoin="round"/>
<path d="M15 15H9M15 15C15 14.3 13.006 12.992 12.5 12.5M15 15C15 15.7 13.006 17.009 12.5 17.5" stroke="#333333" stroke-linecap="round" stroke-linejoin="round"/>
</svg>
