<svg width="25" height="25" viewBox="0 0 25 25" fill="none" xmlns="http://www.w3.org/2000/svg">
<path d="M12.501 13.252C12.9158 13.252 13.252 12.9158 13.252 12.501C13.252 12.0862 12.9158 11.75 12.501 11.75C12.0862 11.75 11.75 12.0862 11.75 12.501C11.75 12.9158 12.0862 13.252 12.501 13.252Z" fill="#333333"/>
<path d="M21.4899 21.98C21.4279 21.711 21.1559 21.545 20.8899 21.605C20.8769 21.608 20.4299 21.71 19.6729 21.844C19.9329 20.559 20.5019 17.314 20.5019 13.5C20.5019 8.618 19.6069 4.966 19.5689 4.813C19.5289 4.651 19.4109 4.521 19.2549 4.463C19.1989 4.443 17.8999 3.976 16.0019 3.646V2.5C16.0019 2.311 15.8949 2.138 15.7259 2.053C15.6809 2.031 14.5959 1.5 12.5019 1.5C8.90992 1.5 5.86292 2.692 5.73492 2.743C5.57892 2.805 5.46392 2.943 5.42892 3.108C5.41992 3.153 4.50092 7.716 4.50092 13C4.50092 17.214 5.09092 20.549 5.35992 21.849C4.58592 21.713 4.12692 21.608 4.11292 21.605C3.84292 21.544 3.57592 21.711 3.51292 21.98C3.45092 22.249 3.61792 22.518 3.88792 22.58C4.05092 22.618 7.92892 23.5 12.4999 23.5C17.0709 23.5 20.9499 22.618 21.1119 22.58C21.3819 22.518 21.5489 22.249 21.4869 21.98H21.4899ZM18.6599 5.318C18.8619 6.24 19.5029 9.478 19.5029 13.5C19.5029 17.646 18.7929 21.193 18.6149 22.018C17.8739 22.13 16.9849 22.245 16.0029 22.334V4.662C17.2539 4.89 18.2229 5.178 18.6599 5.318ZM6.42192 22.022C6.24092 21.208 5.50292 17.603 5.50292 13C5.50292 8.551 6.16592 4.626 6.35892 3.58C7.14892 3.303 9.68092 2.5 12.5029 2.5C13.7649 2.5 14.6019 2.71 15.0029 2.842V22.413C14.2069 22.466 13.3659 22.5 12.5029 22.5C10.1619 22.5 7.97592 22.255 6.42192 22.022Z" fill="#333333"/>
</svg>
