<svg width="24" height="24" viewBox="0 0 24 24" fill="none" xmlns="http://www.w3.org/2000/svg">
<path d="M12.0022 5.46029C11.7955 5.46029 11.6155 5.38362 11.4622 5.23029C11.3089 5.07695 11.2322 4.89695 11.2322 4.69029C11.2322 4.48362 11.3089 4.30395 11.4622 4.15129C11.6155 3.99862 11.7955 3.92195 12.0022 3.92129C12.2089 3.92062 12.3889 3.99729 12.5422 4.15129C12.6955 4.30529 12.7722 4.48529 12.7722 4.69129C12.7722 4.89729 12.6955 5.07695 12.5422 5.23029C12.3889 5.38362 12.2089 5.46029 12.0022 5.46029ZM12.0022 2.15229C11.7955 2.15229 11.6155 2.07562 11.4622 1.92229C11.3089 1.76895 11.2322 1.58895 11.2322 1.38229C11.2322 1.17562 11.3089 0.995952 11.4622 0.843286C11.6155 0.690619 11.7955 0.613952 12.0022 0.613286C12.2089 0.612619 12.3889 0.689286 12.5422 0.843286C12.6955 0.997286 12.7722 1.17729 12.7722 1.38329C12.7722 1.58929 12.6955 1.76895 12.5422 1.92229C12.3889 2.07562 12.2089 2.15229 12.0022 2.15229ZM9.05619 20.4213C8.23285 19.9166 7.59185 19.2463 7.13319 18.4103C6.67385 17.5743 6.43785 16.6676 6.42519 15.6903C6.43852 14.5716 6.75185 13.5566 7.36519 12.6453C7.97919 11.7346 8.79419 11.039 9.81019 10.5583V8.07529C9.81019 7.93395 9.85785 7.81529 9.95319 7.71929C10.0485 7.62329 10.1675 7.57529 10.3102 7.57529H13.6942C13.8362 7.57529 13.9549 7.62329 14.0502 7.71929C14.1455 7.81529 14.1935 7.93395 14.1942 8.07529V10.5583C15.2055 11.0383 16.0195 11.734 16.6362 12.6453C17.2522 13.5566 17.5665 14.5716 17.5792 15.6903C17.5659 16.6676 17.3299 17.5743 16.8712 18.4103C16.4125 19.2463 15.7715 19.9166 14.9482 20.4213H9.05619ZM9.34819 19.4213H14.6562C15.2509 18.9766 15.7202 18.4306 16.0642 17.7833C16.4082 17.136 16.5799 16.4383 16.5792 15.6903C16.5792 14.8103 16.3442 14.0023 15.8742 13.2663C15.4042 12.5303 14.7725 11.9666 13.9792 11.5753L13.1942 11.1983V8.57529H10.8102V11.1983L10.0252 11.5753C9.23185 11.9666 8.60019 12.53 8.13019 13.2653C7.66019 14.002 7.42519 14.8103 7.42519 15.6903C7.42519 16.439 7.59719 17.1366 7.94119 17.7833C8.28452 18.43 8.75352 18.976 9.34819 19.4213ZM6.38719 3.15129C6.18052 3.15129 6.00052 3.07495 5.84719 2.92229C5.69385 2.76962 5.61719 2.58962 5.61719 2.38229C5.61719 2.17495 5.69385 1.99529 5.84719 1.84329C6.00052 1.69129 6.18052 1.61462 6.38719 1.61329C6.59385 1.61195 6.77352 1.68862 6.92619 1.84329C7.07885 1.99795 7.15552 2.17795 7.15619 2.38329C7.15685 2.58862 7.08019 2.76829 6.92619 2.92229C6.77219 3.07629 6.59219 3.15295 6.38619 3.15229M17.6182 3.15229C17.4115 3.15229 17.2315 3.07562 17.0782 2.92229C16.9249 2.76895 16.8482 2.58895 16.8482 2.38229C16.8482 2.17562 16.9249 1.99595 17.0782 1.84329C17.2315 1.69062 17.4115 1.61395 17.6182 1.61329C17.8249 1.61262 18.0045 1.68929 18.1572 1.84329C18.3099 1.99729 18.3865 2.17729 18.3872 2.38329C18.3879 2.58929 18.3112 2.76895 18.1572 2.92229C18.0032 3.07562 17.8242 3.15229 17.6182 3.15229ZM8.69519 5.46029C8.48852 5.46029 8.30885 5.38362 8.15619 5.23029C8.00352 5.07695 7.92685 4.89695 7.92619 4.69029C7.92552 4.48362 8.00219 4.30395 8.15619 4.15129C8.31019 3.99862 8.49019 3.92195 8.69619 3.92129C8.90219 3.92062 9.08185 3.99729 9.23519 4.15129C9.38852 4.30529 9.46519 4.48529 9.46519 4.69129C9.46519 4.89729 9.38852 5.07695 9.23519 5.23029C9.08185 5.38362 8.90185 5.46029 8.69519 5.46029ZM15.3112 5.46029C15.1045 5.46029 14.9245 5.38362 14.7712 5.23029C14.6179 5.07695 14.5412 4.89695 14.5412 4.69029C14.5412 4.48362 14.6179 4.30395 14.7712 4.15129C14.9245 3.99862 15.1045 3.92195 15.3112 3.92129C15.5179 3.92062 15.6975 3.99729 15.8502 4.15129C16.0029 4.30529 16.0795 4.48529 16.0802 4.69129C16.0809 4.89729 16.0042 5.07695 15.8502 5.23029C15.6962 5.38362 15.5162 5.46029 15.3102 5.46029" fill="#333333"/>
</svg>
