<svg width="25" height="25" viewBox="0 0 25 25" fill="none" xmlns="http://www.w3.org/2000/svg">
<g clip-path="url(#clip0_8986_3783)">
<path d="M17.0625 0.511719H8.0625C5.5815 0.511719 3.5625 2.52972 3.5625 5.01172V20.0117C3.5625 22.4927 5.5815 24.5117 8.0625 24.5117H10.0625C10.3385 24.5117 10.5625 24.2877 10.5625 24.0117V17.4987H14.5625V24.0117C14.5625 24.2877 14.7865 24.5117 15.0625 24.5117H17.0625C19.5435 24.5117 21.5625 22.4927 21.5625 20.0117V5.01172C21.5625 2.52972 19.5435 0.511719 17.0625 0.511719ZM20.5625 20.0117C20.5625 21.9417 18.9925 23.5117 17.0625 23.5117H15.5625V17.4987H16.9985C17.2745 17.4987 17.4985 17.2747 17.4985 16.9987C17.4985 16.7227 17.2745 16.4987 16.9985 16.4987H7.9985C7.7225 16.4987 7.4985 16.7227 7.4985 16.9987C7.4985 17.2747 7.7225 17.4987 7.9985 17.4987H9.5625V23.5117H8.0625C6.1325 23.5117 4.5625 21.9417 4.5625 20.0117V5.01172C4.5625 3.08172 6.1325 1.51172 8.0625 1.51172H17.0625C18.9925 1.51172 20.5625 3.08172 20.5625 5.01172V20.0117ZM9.4985 12.9987C9.4985 13.2747 9.2745 13.4987 8.9985 13.4987H7.9985C7.7225 13.4987 7.4985 13.2747 7.4985 12.9987C7.4985 12.7227 7.7225 12.4987 7.9985 12.4987H8.9985C9.2745 12.4987 9.4985 12.7227 9.4985 12.9987ZM17.4985 12.9987C17.4985 13.2747 17.2745 13.4987 16.9985 13.4987H15.9985C15.7225 13.4987 15.4985 13.2747 15.4985 12.9987C15.4985 12.7227 15.7225 12.4987 15.9985 12.4987H16.9985C17.2745 12.4987 17.4985 12.7227 17.4985 12.9987ZM9.4985 4.99872C9.4985 5.27472 9.2745 5.49872 8.9985 5.49872H7.9985C7.7225 5.49872 7.4985 5.27472 7.4985 4.99872C7.4985 4.72272 7.7225 4.49872 7.9985 4.49872H8.9985C9.2745 4.49872 9.4985 4.72272 9.4985 4.99872ZM17.4985 4.99872C17.4985 5.27472 17.2745 5.49872 16.9985 5.49872H15.9985C15.7225 5.49872 15.4985 5.27472 15.4985 4.99872C15.4985 4.72272 15.7225 4.49872 15.9985 4.49872H16.9985C17.2745 4.49872 17.4985 4.72272 17.4985 4.99872ZM9.4985 8.99872C9.4985 9.27472 9.2745 9.49872 8.9985 9.49872H7.9985C7.7225 9.49872 7.4985 9.27472 7.4985 8.99872C7.4985 8.72272 7.7225 8.49872 7.9985 8.49872H8.9985C9.2745 8.49872 9.4985 8.72272 9.4985 8.99872ZM17.4985 8.99872C17.4985 9.27472 17.2745 9.49872 16.9985 9.49872H15.9985C15.7225 9.49872 15.4985 9.27472 15.4985 8.99872C15.4985 8.72272 15.7225 8.49872 15.9985 8.49872H16.9985C17.2745 8.49872 17.4985 8.72272 17.4985 8.99872ZM13.4985 12.9987C13.4985 13.2747 13.2745 13.4987 12.9985 13.4987H11.9985C11.7225 13.4987 11.4985 13.2747 11.4985 12.9987C11.4985 12.7227 11.7225 12.4987 11.9985 12.4987H12.9985C13.2745 12.4987 13.4985 12.7227 13.4985 12.9987ZM13.4985 4.99872C13.4985 5.27472 13.2745 5.49872 12.9985 5.49872H11.9985C11.7225 5.49872 11.4985 5.27472 11.4985 4.99872C11.4985 4.72272 11.7225 4.49872 11.9985 4.49872H12.9985C13.2745 4.49872 13.4985 4.72272 13.4985 4.99872ZM13.4985 8.99872C13.4985 9.27472 13.2745 9.49872 12.9985 9.49872H11.9985C11.7225 9.49872 11.4985 9.27472 11.4985 8.99872C11.4985 8.72272 11.7225 8.49872 11.9985 8.49872H12.9985C13.2745 8.49872 13.4985 8.72272 13.4985 8.99872Z" fill="#333333"/>
</g>
<defs>
<clipPath id="clip0_8986_3783">
<rect width="24" height="24" fill="white" transform="translate(0.5 0.5)"/>
</clipPath>
</defs>
</svg>
