<svg width="24" height="25" viewBox="0 0 24 25" fill="none" xmlns="http://www.w3.org/2000/svg">
<g clip-path="url(#clip0_8986_3774)">
<path d="M22.968 8.36459L21 6.82259V2.49859H20V6.03959L13.658 1.07059C12.681 0.304594 11.318 0.304594 10.341 1.07059L1.032 8.36459C0.386 8.87059 0 9.66259 0 10.4846V24.4986H24V10.4846C24 9.64959 23.623 8.87759 22.968 8.36459ZM23 23.4986H1V10.4846C1 9.96759 1.242 9.46959 1.649 9.15159L10.958 1.85759C11.571 1.37859 12.428 1.37659 13.041 1.85759L22.352 9.15159C22.758 9.46859 23 9.96659 23 10.4846V23.4986ZM14.48 9.49859C13.4 9.49859 12.504 9.97759 11.98 10.7526C11.456 9.97859 10.56 9.49859 9.48 9.49859C7.826 9.49859 6.48 10.9346 6.48 12.6986C6.48 15.7526 11.482 19.2606 11.695 19.4096L11.98 19.6066L12.265 19.4096C12.478 19.2616 17.479 15.7526 17.479 12.6986C17.479 10.9336 16.134 9.49859 14.48 9.49859ZM11.98 18.3836C10.5 17.2936 7.48 14.6636 7.48 12.6986C7.48 11.4856 8.377 10.4986 9.48 10.4986C10.658 10.4986 11.48 11.3026 11.48 12.4526H11.501V12.5236H12.501V12.2206H12.492C12.595 11.1956 13.383 10.4976 14.48 10.4976C15.583 10.4976 16.48 11.4846 16.48 12.6976C16.48 14.6626 13.461 17.2936 11.98 18.3836Z" fill="#333333"/>
</g>
<defs>
<clipPath id="clip0_8986_3774">
<rect width="24" height="24" fill="white" transform="translate(0 0.5)"/>
</clipPath>
</defs>
</svg>
