<svg width="64" height="32" viewBox="0 0 64 32" fill="none" xmlns="http://www.w3.org/2000/svg">
<rect x="0.5" y="0.5" width="63" height="31" rx="4.5" stroke="#333333" stroke-opacity="0.1"/>
<g clip-path="url(#clip0_9267_5248)">
<path d="M25.3178 23.9197V22.8607C25.3178 22.4547 25.0656 22.19 24.6334 22.19C24.4173 22.19 24.1832 22.2606 24.0211 22.4901C23.8951 22.2959 23.715 22.19 23.4449 22.19C23.2648 22.19 23.0848 22.2429 22.9407 22.4371V22.2253H22.5625V23.9197H22.9407V22.9842C22.9407 22.6843 23.1028 22.543 23.3549 22.543C23.6069 22.543 23.7331 22.7019 23.7331 22.9842V23.9197H24.1113V22.9842C24.1113 22.6843 24.2912 22.543 24.5253 22.543C24.7775 22.543 24.9035 22.7019 24.9035 22.9842V23.9197H25.3178ZM30.9181 22.2253H30.3059V21.7135H29.9278V22.2253H29.5856V22.5606H29.9277V23.3373C29.9277 23.7256 30.0898 23.955 30.522 23.955C30.6841 23.955 30.8641 23.9021 30.9902 23.8315L30.8821 23.5138C30.7741 23.5844 30.6481 23.602 30.558 23.602C30.3779 23.602 30.3059 23.4962 30.3059 23.3196V22.5606H30.9181V22.2253ZM34.1236 22.1899C33.9075 22.1899 33.7635 22.2959 33.6734 22.4371V22.2253H33.2952V23.9197H33.6734V22.9666C33.6734 22.6843 33.7994 22.5254 34.0335 22.5254C34.1055 22.5254 34.1956 22.5431 34.2676 22.5607L34.3757 22.2077C34.3036 22.19 34.1956 22.19 34.1236 22.19M29.2795 22.3666C29.0993 22.243 28.8472 22.1901 28.5771 22.1901C28.145 22.1901 27.8569 22.4019 27.8569 22.7372C27.8569 23.0197 28.0729 23.1785 28.4511 23.2315L28.6312 23.2492C28.8293 23.2844 28.9373 23.3374 28.9373 23.4256C28.9373 23.5491 28.7933 23.6374 28.5411 23.6374C28.2889 23.6374 28.0909 23.5491 27.9648 23.4609L27.7848 23.7433C27.9829 23.8845 28.253 23.9551 28.5231 23.9551C29.0273 23.9551 29.3155 23.7257 29.3155 23.408C29.3155 23.1079 29.0814 22.949 28.7212 22.8961L28.5411 22.8784C28.379 22.8607 28.253 22.8255 28.253 22.7196C28.253 22.5961 28.379 22.5255 28.5771 22.5255C28.7933 22.5255 29.0093 22.6137 29.1174 22.6666L29.2795 22.3666ZM39.3279 22.1901C39.1117 22.1901 38.9677 22.296 38.8776 22.4372V22.2254H38.4994V23.9198H38.8776V22.9667C38.8776 22.6843 39.0037 22.5255 39.2377 22.5255C39.3098 22.5255 39.3999 22.5431 39.4719 22.5608L39.58 22.2078C39.5079 22.1901 39.3999 22.1901 39.3279 22.1901ZM34.5017 23.0726C34.5017 23.5844 34.8619 23.9551 35.4202 23.9551C35.6722 23.9551 35.8523 23.9022 36.0324 23.761L35.8523 23.4609C35.7083 23.5668 35.5642 23.6197 35.4021 23.6197C35.096 23.6197 34.8799 23.408 34.8799 23.0726C34.8799 22.7549 35.096 22.5431 35.4021 22.5255C35.5642 22.5255 35.7083 22.5784 35.8523 22.6843L36.0324 22.3843C35.8523 22.243 35.6722 22.1901 35.4202 22.1901C34.8619 22.1901 34.5017 22.5608 34.5017 23.0726ZM37.9953 23.0726V22.2254H37.6171V22.4372C37.491 22.2784 37.311 22.1901 37.0769 22.1901C36.5907 22.1901 36.2125 22.5608 36.2125 23.0726C36.2125 23.5844 36.5907 23.9551 37.0769 23.9551C37.3289 23.9551 37.5091 23.8669 37.6171 23.708V23.9198H37.9953V23.0726ZM36.6086 23.0726C36.6086 22.7725 36.8067 22.5255 37.1308 22.5255C37.437 22.5255 37.6531 22.7549 37.6531 23.0726C37.6531 23.3727 37.437 23.6197 37.1308 23.6197C36.8067 23.602 36.6086 23.3727 36.6086 23.0726ZM32.0887 22.1901C31.5845 22.1901 31.2243 22.5431 31.2243 23.0726C31.2243 23.6021 31.5844 23.9551 32.1067 23.9551C32.3588 23.9551 32.6109 23.8845 32.809 23.7257L32.6289 23.4609C32.4848 23.5668 32.3048 23.6374 32.1247 23.6374C31.8906 23.6374 31.6565 23.5315 31.6024 23.2314H32.881V23.0903C32.8991 22.5431 32.575 22.1901 32.0887 22.1901ZM32.0886 22.5078C32.3227 22.5078 32.4848 22.649 32.5208 22.9138H31.6204C31.6564 22.6843 31.8185 22.5078 32.0886 22.5078ZM41.4707 23.0726V21.5547H41.0925V22.4372C40.9665 22.2784 40.7864 22.1901 40.5523 22.1901C40.0661 22.1901 39.6879 22.5608 39.6879 23.0726C39.6879 23.5844 40.0661 23.9551 40.5523 23.9551C40.8044 23.9551 40.9845 23.8669 41.0925 23.708V23.9198H41.4707V23.0726ZM40.0841 23.0726C40.0841 22.7725 40.2822 22.5255 40.6063 22.5255C40.9125 22.5255 41.1286 22.7549 41.1286 23.0726C41.1286 23.3727 40.9125 23.6197 40.6063 23.6197C40.2822 23.602 40.0841 23.3727 40.0841 23.0726ZM27.4425 23.0726V22.2254H27.0644V22.4372C26.9383 22.2784 26.7582 22.1901 26.5241 22.1901C26.0379 22.1901 25.6598 22.5608 25.6598 23.0726C25.6598 23.5844 26.0379 23.9551 26.5241 23.9551C26.7763 23.9551 26.9563 23.8669 27.0644 23.708V23.9198H27.4425V23.0726ZM26.0379 23.0726C26.0379 22.7725 26.236 22.5255 26.5601 22.5255C26.8663 22.5255 27.0824 22.7549 27.0824 23.0726C27.0824 23.3727 26.8663 23.6197 26.5601 23.6197C26.236 23.602 26.0379 23.3727 26.0379 23.0726Z" fill="black"/>
<path d="M29.1562 9.35938H34.8287V19.3494H29.1562V9.35938Z" fill="#FF5F00"/>
<path d="M29.5136 14.3541C29.5136 12.3243 30.4859 10.524 31.9806 9.35904C30.8822 8.51184 29.4956 8 27.9829 8C24.3992 8 21.5 10.8416 21.5 14.3541C21.5 17.8665 24.3992 20.7082 27.9828 20.7082C29.4955 20.7082 30.8821 20.1963 31.9806 19.3491C30.4859 18.2018 29.5136 16.3838 29.5136 14.3541Z" fill="#EB001B"/>
<path d="M42.4806 14.3541C42.4806 17.8665 39.5813 20.7082 35.9977 20.7082C34.4851 20.7082 33.0985 20.1963 32 19.3491C33.5127 18.1842 34.4671 16.3838 34.4671 14.3541C34.4671 12.3243 33.4946 10.524 32 9.35904C33.0984 8.51184 34.4851 8 35.9977 8C39.5813 8 42.4806 10.8593 42.4806 14.3541Z" fill="#F79E1B"/>
</g>
<defs>
<clipPath id="clip0_9267_5248">
<rect width="21" height="16" fill="white" transform="translate(21.5 8)"/>
</clipPath>
</defs>
</svg>
