<svg width="42" height="16" viewBox="0 0 42 16" fill="none" xmlns="http://www.w3.org/2000/svg">
<path d="M0 6H1.375V2H2.75L5.10125 6H8.25V2H9.625V6H11V7.33333H9.625V8.66667H11V10H9.625V14H8.25L5.89187 10H2.75V14H1.375V10H0V8.66667H1.375V7.33333H0V6ZM2.75 6H3.52688L2.75 4.68667V6ZM2.75 7.33333V8.66667H5.10125L4.3175 7.33333H2.75ZM8.25 11.3333V10H7.45938L8.25 11.3333ZM5.885 7.33333L6.67562 8.66667H8.25V7.33333H5.885Z" fill="#333333"/>
<path d="M14.368 12.5V4.1H15.1L20.896 11.396H20.512V4.1H21.388V12.5H20.656L14.872 5.204H15.256V12.5H14.368ZM27.8137 12.572C27.1737 12.572 26.5817 12.468 26.0377 12.26C25.5017 12.044 25.0337 11.744 24.6337 11.36C24.2417 10.976 23.9337 10.524 23.7097 10.004C23.4937 9.484 23.3857 8.916 23.3857 8.3C23.3857 7.684 23.4937 7.116 23.7097 6.596C23.9337 6.076 24.2457 5.624 24.6457 5.24C25.0457 4.856 25.5137 4.56 26.0497 4.352C26.5937 4.136 27.1857 4.028 27.8257 4.028C28.4657 4.028 29.0497 4.128 29.5777 4.328C30.1137 4.528 30.5697 4.832 30.9457 5.24L30.3937 5.804C30.0417 5.452 29.6537 5.2 29.2297 5.048C28.8057 4.896 28.3497 4.82 27.8617 4.82C27.3417 4.82 26.8617 4.908 26.4217 5.084C25.9897 5.252 25.6097 5.496 25.2817 5.816C24.9617 6.128 24.7097 6.496 24.5257 6.92C24.3497 7.336 24.2617 7.796 24.2617 8.3C24.2617 8.796 24.3497 9.256 24.5257 9.68C24.7097 10.104 24.9617 10.476 25.2817 10.796C25.6097 11.108 25.9897 11.352 26.4217 11.528C26.8617 11.696 27.3377 11.78 27.8497 11.78C28.3297 11.78 28.7817 11.708 29.2057 11.564C29.6377 11.42 30.0337 11.176 30.3937 10.832L30.8977 11.504C30.4977 11.856 30.0297 12.124 29.4937 12.308C28.9577 12.484 28.3977 12.572 27.8137 12.572ZM30.0457 11.396V8.3H30.8977V11.504L30.0457 11.396ZM33.411 12.5V4.1H34.143L39.939 11.396H39.555V4.1H40.431V12.5H39.699L33.915 5.204H34.299V12.5H33.411Z" fill="#333333"/>
</svg>
