<svg width="24" height="21" viewBox="0 0 24 21" fill="none" xmlns="http://www.w3.org/2000/svg">
<path d="M20.668 1.84667C20.4013 1.06 19.8813 0.5 19.0013 0.5H5.0013C4.1213 0.5 3.61464 1.06 3.33464 1.84667L0.667969 9.5V19.5C0.667969 20.2333 0.934635 20.5 1.66797 20.5H2.33464C3.06797 20.5 3.33464 20.2333 3.33464 19.5V17.8333H20.668V19.5C20.668 20.2333 20.9346 20.5 21.668 20.5H22.3346C23.068 20.5 23.3346 20.2333 23.3346 19.5V9.5L20.668 1.84667Z" stroke="#333333"/>
<path d="M4.66927 13.8346C4.31565 13.8346 3.97651 13.6942 3.72646 13.4441C3.47641 13.1941 3.33594 12.8549 3.33594 12.5013C3.33594 12.1477 3.47641 11.8085 3.72646 11.5585C3.97651 11.3084 4.31565 11.168 4.66927 11.168C5.02289 11.168 5.36203 11.3084 5.61208 11.5585C5.86213 11.8085 6.0026 12.1477 6.0026 12.5013C6.0026 12.8549 5.86213 13.1941 5.61208 13.4441C5.36203 13.6942 5.02289 13.8346 4.66927 13.8346ZM19.3359 13.8346C18.9823 13.8346 18.6432 13.6942 18.3931 13.4441C18.1431 13.1941 18.0026 12.8549 18.0026 12.5013C18.0026 12.1477 18.1431 11.8085 18.3931 11.5585C18.6432 11.3084 18.9823 11.168 19.3359 11.168C19.6896 11.168 20.0287 11.3084 20.2787 11.5585C20.5288 11.8085 20.6693 12.1477 20.6693 12.5013C20.6693 12.8549 20.5288 13.1941 20.2787 13.4441C20.0287 13.6942 19.6896 13.8346 19.3359 13.8346Z" stroke="#333333"/>
<path d="M3.66797 7.16667L5.33464 2.5H18.668L20.3346 7.16667H3.66797Z" stroke="#333333" stroke-linejoin="round"/>
</svg>
