<svg width="25" height="24" viewBox="0 0 25 24" fill="none" xmlns="http://www.w3.org/2000/svg">
<g clip-path="url(#clip0_9373_878)">
<path d="M16.6172 10.5C16.6172 12.99 14.6072 15 12.1172 15C9.62719 15 7.61719 12.99 7.61719 10.5C7.61719 8.01 9.62719 6 12.1172 6C14.6072 6 16.6172 8.01 16.6172 10.5Z" fill="#333333"/>
<path fill-rule="evenodd" clip-rule="evenodd" d="M24.1172 12C24.1172 18.63 18.7472 24 12.1172 24C5.48719 24 0.117188 18.63 0.117188 12C0.117188 5.37 5.48719 0 12.1172 0C18.7472 0 24.1172 5.37 24.1172 12ZM6.11719 20.625C6.35719 20.226 8.68219 16.5 12.1022 16.5C15.5072 16.5 17.8472 20.235 18.0872 20.625C19.482 19.6605 20.6216 18.3716 21.4081 16.8692C22.1946 15.3668 22.6044 13.6958 22.6022 12C22.6022 6.195 17.9072 1.5 12.1022 1.5C6.29719 1.5 1.60219 6.195 1.60219 12C1.60219 15.57 3.38719 18.735 6.11719 20.625Z" fill="#333333"/>
</g>
<defs>
<clipPath id="clip0_9373_878">
<rect width="24" height="24" fill="white" transform="translate(0.117188)"/>
</clipPath>
</defs>
</svg>
