<svg width="76" height="12" viewBox="0 0 76 12" fill="none" xmlns="http://www.w3.org/2000/svg">
<path d="M5.52447 1.46353C5.67415 1.00287 6.32585 1.00287 6.47553 1.46353L7.23483 3.80041C7.30176 4.00642 7.49374 4.1459 7.71036 4.1459H10.1675C10.6519 4.1459 10.8532 4.76571 10.4614 5.05041L8.47352 6.49468C8.29828 6.622 8.22495 6.84768 8.29188 7.0537L9.05118 9.39058C9.20086 9.85123 8.67362 10.2343 8.28176 9.94959L6.29389 8.50532C6.11865 8.378 5.88135 8.378 5.70611 8.50532L3.71824 9.94959C3.32638 10.2343 2.79914 9.85123 2.94882 9.39058L3.70812 7.0537C3.77505 6.84768 3.70172 6.622 3.52648 6.49468L1.53861 5.05041C1.14675 4.76571 1.34814 4.1459 1.8325 4.1459H4.28964C4.50626 4.1459 4.69824 4.00642 4.76517 3.80041L5.52447 1.46353Z" fill="#333333" fill-opacity="0.5"/>
<path d="M21.5245 1.46353C21.6741 1.00287 22.3259 1.00287 22.4755 1.46353L23.2348 3.80041C23.3018 4.00642 23.4937 4.1459 23.7104 4.1459H26.1675C26.6519 4.1459 26.8532 4.76571 26.4614 5.05041L24.4735 6.49468C24.2983 6.622 24.2249 6.84768 24.2919 7.0537L25.0512 9.39058C25.2009 9.85123 24.6736 10.2343 24.2818 9.94959L22.2939 8.50532C22.1186 8.378 21.8814 8.378 21.7061 8.50532L19.7182 9.94959C19.3264 10.2343 18.7991 9.85123 18.9488 9.39058L19.7081 7.0537C19.7751 6.84768 19.7017 6.622 19.5265 6.49468L17.5386 5.05041C17.1468 4.76571 17.3481 4.1459 17.8325 4.1459H20.2896C20.5063 4.1459 20.6982 4.00642 20.7652 3.80041L21.5245 1.46353Z" fill="#333333" fill-opacity="0.5"/>
<path d="M37.5245 1.46353C37.6741 1.00287 38.3259 1.00287 38.4755 1.46353L39.2348 3.80041C39.3018 4.00642 39.4937 4.1459 39.7104 4.1459H42.1675C42.6519 4.1459 42.8532 4.76571 42.4614 5.05041L40.4735 6.49468C40.2983 6.622 40.2249 6.84768 40.2919 7.0537L41.0512 9.39058C41.2009 9.85123 40.6736 10.2343 40.2818 9.94959L38.2939 8.50532C38.1186 8.378 37.8814 8.378 37.7061 8.50532L35.7182 9.94959C35.3264 10.2343 34.7991 9.85123 34.9488 9.39058L35.7081 7.0537C35.7751 6.84768 35.7017 6.622 35.5265 6.49468L33.5386 5.05041C33.1468 4.76571 33.3481 4.1459 33.8325 4.1459H36.2896C36.5063 4.1459 36.6982 4.00642 36.7652 3.80041L37.5245 1.46353Z" fill="#333333" fill-opacity="0.5"/>
<path d="M53.5245 1.46353C53.6741 1.00287 54.3259 1.00287 54.4755 1.46353L55.2348 3.80041C55.3018 4.00642 55.4937 4.1459 55.7104 4.1459H58.1675C58.6519 4.1459 58.8532 4.76571 58.4614 5.05041L56.4735 6.49468C56.2983 6.622 56.2249 6.84768 56.2919 7.0537L57.0512 9.39058C57.2009 9.85123 56.6736 10.2343 56.2818 9.94959L54.2939 8.50532C54.1186 8.378 53.8814 8.378 53.7061 8.50532L51.7182 9.94959C51.3264 10.2343 50.7991 9.85123 50.9488 9.39058L51.7081 7.0537C51.7751 6.84768 51.7017 6.622 51.5265 6.49468L49.5386 5.05041C49.1468 4.76571 49.3481 4.1459 49.8325 4.1459H52.2896C52.5063 4.1459 52.6982 4.00642 52.7652 3.80041L53.5245 1.46353Z" fill="#333333" fill-opacity="0.5"/>
<path d="M69.5245 1.46353C69.6741 1.00287 70.3259 1.00287 70.4755 1.46353L71.2348 3.80041C71.3018 4.00642 71.4937 4.1459 71.7104 4.1459H74.1675C74.6519 4.1459 74.8532 4.76571 74.4614 5.05041L72.4735 6.49468C72.2983 6.622 72.2249 6.84768 72.2919 7.0537L73.0512 9.39058C73.2009 9.85123 72.6736 10.2343 72.2818 9.94959L70.2939 8.50532C70.1186 8.378 69.8814 8.378 69.7061 8.50532L67.7182 9.94959C67.3264 10.2343 66.7991 9.85123 66.9488 9.39058L67.7081 7.0537C67.7751 6.84768 67.7017 6.622 67.5265 6.49468L65.5386 5.05041C65.1468 4.76571 65.3481 4.1459 65.8325 4.1459H68.2896C68.5063 4.1459 68.6982 4.00642 68.7652 3.80041L69.5245 1.46353Z" fill="#333333" fill-opacity="0.5"/>
</svg>
