<svg width="19" height="19" viewBox="0 0 19 19" fill="none" xmlns="http://www.w3.org/2000/svg">
<path d="M15.5 12.5L18.5 9.5M18.5 9.5L15.5 6.5M18.5 9.5H4.5M11.5 13.5V16.1C11.5 16.4152 11.4379 16.7273 11.3173 17.0184C11.1967 17.3096 11.0199 17.5742 10.7971 17.7971C10.5742 18.0199 10.3096 18.1967 10.0184 18.3173C9.72726 18.4379 9.41517 18.5 9.1 18.5H2.9C2.26348 18.5 1.65303 18.2471 1.20294 17.7971C0.752856 17.347 0.5 16.7365 0.5 16.1V2.9C0.5 2.58483 0.562078 2.27274 0.682689 1.98156C0.8033 1.69038 0.980083 1.4258 1.20294 1.20294C1.65303 0.752856 2.26348 0.5 2.9 0.5H9.1C9.41517 0.5 9.72726 0.562078 10.0184 0.682689C10.3096 0.8033 10.5742 0.980083 10.7971 1.20294C11.0199 1.4258 11.1967 1.69038 11.3173 1.98156C11.4379 2.27274 11.5 2.58483 11.5 2.9V5.5" stroke="#333333" stroke-miterlimit="10" stroke-linecap="round" stroke-linejoin="round"/>
</svg>
