<svg width="24" height="24" viewBox="0 0 24 24" fill="none" xmlns="http://www.w3.org/2000/svg">
<path d="M15 11.5C15.1326 11.5 15.2598 11.5527 15.3536 11.6464C15.4473 11.7402 15.5 11.8674 15.5 12V14C15.5 14.1326 15.4473 14.2598 15.3536 14.3536C15.2598 14.4473 15.1326 14.5 15 14.5C14.8674 14.5 14.7402 14.4473 14.6464 14.3536C14.5527 14.2598 14.5 14.1326 14.5 14V12C14.5 11.8674 14.5527 11.7402 14.6464 11.6464C14.7402 11.5527 14.8674 11.5 15 11.5ZM13 7.611C13 7.2735 13.2735 7 13.611 7C13.7436 7 13.8708 6.94732 13.9646 6.85355C14.0583 6.75979 14.111 6.63261 14.111 6.5C14.111 6.36739 14.0583 6.24022 13.9646 6.14645C13.8708 6.05268 13.7436 6 13.611 6C13.3994 5.99987 13.1899 6.04145 12.9943 6.12236C12.7988 6.20328 12.6212 6.32194 12.4716 6.47156C12.3219 6.62118 12.2033 6.79883 12.1224 6.99434C12.0414 7.18986 11.9999 7.3994 12 7.611V7.932C12.0001 8.44431 12.2037 8.93559 12.566 9.29781C12.9284 9.66002 13.4197 9.8635 13.932 9.8635H14.3635C14.4385 9.8635 14.5 9.9245 14.5 10C14.5 10.1326 14.5527 10.2598 14.6464 10.3536C14.7402 10.4473 14.8674 10.5 15 10.5C15.1326 10.5 15.2598 10.4473 15.3536 10.3536C15.4473 10.2598 15.5 10.1326 15.5 10C15.5 9.69858 15.3803 9.40951 15.1671 9.19637C14.954 8.98324 14.6649 8.8635 14.3635 8.8635H13.932C13.6849 8.8635 13.4479 8.76538 13.2732 8.5907C13.0984 8.41602 13.0001 8.1791 13 7.932V7.611Z" fill="#333333"/>
<path d="M14.4245 7.69319C14.4371 7.81634 14.495 7.93043 14.5869 8.01337C14.6788 8.09631 14.7982 8.14221 14.922 8.14219C15.517 8.14219 15.9985 8.62419 15.9985 9.21869V10.1642C15.9985 10.2968 16.0512 10.424 16.1449 10.5177C16.2387 10.6115 16.3659 10.6642 16.4985 10.6642C16.6311 10.6642 16.7583 10.6115 16.852 10.5177C16.9458 10.424 16.9985 10.2968 16.9985 10.1642V9.21819C16.9989 8.91688 16.9335 8.61912 16.8069 8.3457C16.6803 8.07228 16.4955 7.8298 16.2655 7.63519C16.5343 7.34456 16.6835 6.96309 16.683 6.56719V6.06569C16.6831 5.83439 16.6377 5.60534 16.5492 5.39163C16.4608 5.17791 16.331 4.98373 16.1675 4.82018C16.0039 4.65663 15.8098 4.52692 15.596 4.43847C15.3823 4.35002 15.1533 4.30456 14.922 4.30469C14.7894 4.30469 14.6622 4.35737 14.5684 4.45113C14.4747 4.5449 14.422 4.67208 14.422 4.80469C14.422 4.9373 14.4747 5.06447 14.5684 5.15824C14.6622 5.25201 14.7894 5.30469 14.922 5.30469C15.342 5.30469 15.683 5.64519 15.683 6.06569V6.56719C15.683 6.71969 15.6224 6.86594 15.5146 6.97377C15.4067 7.08161 15.2605 7.14219 15.108 7.14219H14.922C14.852 7.14217 14.7828 7.15684 14.7189 7.18525C14.6549 7.21366 14.5977 7.25518 14.5508 7.30711C14.5039 7.35904 14.4684 7.42024 14.4467 7.48675C14.4249 7.55325 14.4173 7.62358 14.4245 7.69319ZM16.4985 11.5017C16.6311 11.5017 16.7583 11.5544 16.852 11.6481C16.9458 11.7419 16.9985 11.8691 16.9985 12.0017V14.0017C16.9985 14.1343 16.9458 14.2615 16.852 14.3552C16.7583 14.449 16.6311 14.5017 16.4985 14.5017C16.3659 14.5017 16.2387 14.449 16.1449 14.3552C16.0512 14.2615 15.9985 14.1343 15.9985 14.0017V12.0017C15.9985 11.8691 16.0512 11.7419 16.1449 11.6481C16.2387 11.5544 16.3659 11.5017 16.4985 11.5017Z" fill="#333333"/>
<path fill-rule="evenodd" clip-rule="evenodd" d="M12 22C17.523 22 22 17.523 22 12C22 6.477 17.523 2 12 2C6.477 2 2 6.477 2 12C2 17.523 6.477 22 12 22ZM18.708 18.0005C20.1869 16.3521 21.0034 14.2146 21 12C21 7.0295 16.9705 3 12 3C9.84641 2.99671 7.76361 3.76878 6.1325 5.175L12.3535 11.3965C12.3846 11.4273 12.4115 11.4621 12.4335 11.5H13C13.2652 11.5 13.5196 11.6054 13.7071 11.7929C13.8946 11.9804 14 12.2348 14 12.5V13.5C14 13.7652 13.8946 14.0196 13.7071 14.2071C13.5196 14.3946 13.2652 14.5 13 14.5H6C5.73478 14.5 5.48043 14.3946 5.29289 14.2071C5.10536 14.0196 5 13.7652 5 13.5V12.5C5 12.2348 5.10536 11.9804 5.29289 11.7929C5.48043 11.6054 5.73478 11.5 6 11.5H11.043L5.4115 5.8685C3.85897 7.53243 2.99693 9.72426 3 12C3 16.9705 7.0295 21 12 21C14.305 21 16.4085 20.133 18.0005 18.708L15.3965 16.1035C15.3054 16.0092 15.255 15.8829 15.2562 15.7518C15.2573 15.6207 15.3099 15.4953 15.4026 15.4026C15.4953 15.3099 15.6207 15.2573 15.7518 15.2562C15.8829 15.255 16.0092 15.3054 16.1035 15.3965L18.708 18.0005ZM6 12.5H13V13.5H6V12.5Z" fill="#333333"/>
</svg>
