<svg width="24" height="25" viewBox="0 0 24 25" fill="none" xmlns="http://www.w3.org/2000/svg">
<path d="M12.225 2.50106C8.992 2.45906 5.91 3.66206 3.594 5.93606C3.054 6.46706 0 9.49906 0 14.4991V18.4991C0 20.7051 1.794 22.4991 4 22.4991H20C22.206 22.4991 24 20.7051 24 18.4991V14.8811C24 8.17406 18.718 2.62006 12.225 2.50106ZM21.083 8.49206C21.081 8.49206 21.081 8.49206 21.083 8.49206V8.49206ZM4.294 6.65006C6.368 4.61406 9.097 3.50006 11.999 3.50006C15.5 3.50006 18.368 5.10706 20.348 7.50006H3.514C3.758 7.20606 4.018 6.92206 4.294 6.65006ZM5 21.5001H4C2.346 21.5001 1 20.1541 1 18.5001V14.5001C1 12.3341 1.62 10.2681 2.776 8.50006H6.326C5.479 10.0911 5 12.4201 5 15.0221V21.5001ZM14 21.5001H10V16.5001C10 15.3971 10.897 14.5001 12 14.5001C13.103 14.5001 14 15.3971 14 16.5001V21.5001ZM18 21.5001H15V16.5001C15 14.8461 13.654 13.5001 12 13.5001C10.346 13.5001 9 14.8461 9 16.5001V21.5001H6V15.0221C6 12.2941 6.541 9.91906 7.484 8.50406C7.485 8.50206 7.486 8.50106 7.487 8.49906H16.512C16.512 8.49906 16.514 8.50206 16.515 8.50406C17.458 9.91906 17.999 12.2941 17.999 15.0221L18 21.5001ZM23 18.5001C23 20.1541 21.654 21.5001 20 21.5001H19V15.0221C19 12.4201 18.521 10.0901 17.674 8.50006H21.088C22.293 10.3261 23 12.5261 23 14.8821V18.5001Z" fill="#333333"/>
</svg>
