<svg width="26" height="24" viewBox="0 0 26 24" fill="none" xmlns="http://www.w3.org/2000/svg">
<path d="M1 16.5C4.31067 16.5 6.79333 12.5 6.79333 12.5C6.79333 12.5 9.276 16.5 12.5867 16.5C15.8973 16.5 19.2067 12.5 19.2067 12.5C19.2067 12.5 22.5173 16.5 25 16.5M1 23.1667C4.31067 23.1667 6.79333 19.1667 6.79333 19.1667C6.79333 19.1667 9.276 23.1667 12.5867 23.1667C15.8973 23.1667 19.2067 19.1667 19.2067 19.1667C19.2067 19.1667 22.5173 23.1667 25 23.1667M3.66667 10.5L9 7.16667L7.41733 5.188C7.27636 5.0122 7.1722 4.80984 7.11104 4.59295C7.04989 4.37607 7.03299 4.1491 7.06135 3.92555C7.08971 3.702 7.16276 3.48644 7.27614 3.2917C7.38952 3.09696 7.54093 2.92702 7.72133 2.792C8.06616 2.53288 8.49745 2.41632 8.92586 2.46646C9.35427 2.51659 9.74699 2.72959 10.0227 3.06133L15.6667 9.83333M19 7.16667C19.8841 7.16667 20.7319 6.81548 21.357 6.19036C21.9821 5.56523 22.3333 4.71739 22.3333 3.83333C22.3333 2.94928 21.9821 2.10143 21.357 1.47631C20.7319 0.851189 19.8841 0.5 19 0.5C18.1159 0.5 17.2681 0.851189 16.643 1.47631C16.0179 2.10143 15.6667 2.94928 15.6667 3.83333C15.6667 4.71739 16.0179 5.56523 16.643 6.19036C17.2681 6.81548 18.1159 7.16667 19 7.16667Z" stroke="#333333" stroke-linecap="round" stroke-linejoin="round"/>
</svg>
