<svg width="65" height="32" viewBox="0 0 65 32" fill="none" xmlns="http://www.w3.org/2000/svg">
<rect x="0.5" y="0.5" width="64" height="31" rx="4.5" stroke="#333333" stroke-opacity="0.1"/>
<g clip-path="url(#clip0_9267_5254)">
<path d="M33.3416 13.0961C33.3137 15.316 35.306 16.5548 36.8068 17.2913C38.3488 18.047 38.8667 18.5316 38.8606 19.2075C38.8491 20.2417 37.6306 20.6982 36.4904 20.7159C34.5012 20.7469 33.3445 20.175 32.425 19.7424L31.7083 23.1196C32.6309 23.5477 34.3392 23.9211 36.1107 23.9375C40.269 23.9375 42.9894 21.8702 43.0042 18.665C43.0205 14.5972 37.4174 14.372 37.4557 12.5538C37.4689 12.0025 37.9913 11.4141 39.1359 11.2645C39.7024 11.189 41.2664 11.1311 43.0396 11.9535L43.7355 8.68603C42.782 8.33634 41.5564 8.0015 40.0305 8.0015C36.1166 8.0015 33.3638 10.0969 33.3416 13.0961ZM50.4229 8.28295C49.6636 8.28295 49.0237 8.72902 48.7381 9.41355L42.7982 23.6975H46.9535L47.7803 21.396H52.858L53.3376 23.6975H57L53.8041 8.28295H50.4229ZM51.0042 12.447L52.2034 18.2353H48.9192L51.0042 12.447ZM28.3036 8.28314L25.0283 23.6973H28.9879L32.2617 8.28275L28.3036 8.28314ZM22.446 8.28314L18.3246 18.7747L16.6575 9.85384C16.4619 8.85798 15.6894 8.28295 14.8315 8.28295H8.09436L8 8.73056C9.3831 9.03283 10.9545 9.52034 11.9066 10.042C12.4892 10.3606 12.6554 10.6392 12.8468 11.3964L16.0044 23.6975H20.1888L26.6039 8.28295L22.446 8.28314Z" fill="url(#paint0_linear_9267_5254)"/>
</g>
<defs>
<linearGradient id="paint0_linear_9267_5254" x1="2260.73" y1="55.9051" x2="2307.18" y2="-1580.73" gradientUnits="userSpaceOnUse">
<stop stop-color="#222357"/>
<stop offset="1" stop-color="#254AA5"/>
</linearGradient>
<clipPath id="clip0_9267_5254">
<rect width="49" height="16" fill="white" transform="translate(8 8)"/>
</clipPath>
</defs>
</svg>
