<svg width="32" height="33" viewBox="0 0 32 33" fill="none" xmlns="http://www.w3.org/2000/svg">
<path d="M24 7.1813L24.0133 7.16664M28 5.83464V27.168C28 27.8752 27.719 28.5535 27.219 29.0536C26.7189 29.5537 26.0406 29.8346 25.3333 29.8346H6.66667C5.95942 29.8346 5.28115 29.5537 4.78105 29.0536C4.28095 28.5535 4 27.8752 4 27.168V5.83464C4 5.12739 4.28095 4.44911 4.78105 3.94902C5.28115 3.44892 5.95942 3.16797 6.66667 3.16797H25.3333C26.0406 3.16797 26.7189 3.44892 27.219 3.94902C27.719 4.44911 28 5.12739 28 5.83464Z" stroke="#333333" stroke-linecap="round" stroke-linejoin="round"/>
<path d="M16 25.8359C18.1217 25.8359 20.1566 24.9931 21.6569 23.4928C23.1571 21.9925 24 19.9577 24 17.8359C24 15.7142 23.1571 13.6794 21.6569 12.1791C20.1566 10.6788 18.1217 9.83594 16 9.83594C13.8783 9.83594 11.8434 10.6788 10.3431 12.1791C8.84286 13.6794 8 15.7142 8 17.8359C8 19.9577 8.84286 21.9925 10.3431 23.4928C11.8434 24.9931 13.8783 25.8359 16 25.8359Z" stroke="#333333" stroke-linecap="round" stroke-linejoin="round"/>
<path d="M16 21.8359C14.9391 21.8359 13.9217 21.4145 13.1716 20.6644C12.4214 19.9142 12 18.8968 12 17.8359" stroke="#333333" stroke-linecap="round" stroke-linejoin="round"/>
</svg>
